<svg width="11" height="9" viewBox="0 0 11 9" fill="none" xmlns="http://www.w3.org/2000/svg">
<path d="M10.5902 4.37638L6.97881 0.903545C6.87572 0.804413 6.73832 0.75 6.59182 0.75C6.44516 0.75 6.30784 0.804491 6.20475 0.903545L5.87687 1.21892C5.77386 1.3179 5.71711 1.4501 5.71711 1.59106C5.71711 1.73194 5.77386 1.8686 5.87687 1.96757L7.98368 3.99799H1.29024C0.988453 3.99799 0.75 4.22518 0.75 4.51546V4.96132C0.75 5.2516 0.988453 5.5017 1.29024 5.5017H8.00758L5.87695 7.54345C5.77394 7.64258 5.71719 7.77119 5.71719 7.91215C5.71719 8.05295 5.77394 8.18343 5.87695 8.28248L6.20483 8.59685C6.30792 8.69598 6.44524 8.75 6.5919 8.75C6.73841 8.75 6.8758 8.69527 6.97889 8.59614L10.5902 5.12339C10.6936 5.02394 10.7504 4.89119 10.75 4.75008C10.7503 4.60849 10.6936 4.47567 10.5902 4.37638Z" fill="#EFB247"/>
</svg>
