<?xml version="1.0" encoding="UTF-8" standalone="no"?>
<svg
   width="24"
   height="24"
   viewBox="0 0 24 24"
   fill="none"
   version="1.1"
   id="svg4"
   sodipodi:docname="dashboard.svg"
   inkscape:version="1.4 (86a8ad7, 2024-10-11)"
   xmlns:inkscape="http://www.inkscape.org/namespaces/inkscape"
   xmlns:sodipodi="http://sodipodi.sourceforge.net/DTD/sodipodi-0.dtd"
   xmlns="http://www.w3.org/2000/svg"
   xmlns:svg="http://www.w3.org/2000/svg">
  <defs
     id="defs4" />
  <sodipodi:namedview
     id="namedview4"
     pagecolor="#ffffff"
     bordercolor="#000000"
     borderopacity="0.25"
     inkscape:showpageshadow="2"
     inkscape:pageopacity="0.0"
     inkscape:pagecheckerboard="0"
     inkscape:deskcolor="#d1d1d1"
     inkscape:zoom="32.625"
     inkscape:cx="11.954023"
     inkscape:cy="12"
     inkscape:window-width="1920"
     inkscape:window-height="1001"
     inkscape:window-x="-9"
     inkscape:window-y="-9"
     inkscape:window-maximized="1"
     inkscape:current-layer="svg4" />
  <path
     style="fill:#285335;stroke:#285335;stroke-opacity:1;stroke-width:0.001;stroke-dasharray:none"
     d="m 6.5,2.25 c -2.3383267,0 -4.25,1.9116733 -4.25,4.25 0,2.3383267 1.9116733,4.25 4.25,4.25 2.3383267,0 4.25,-1.9116733 4.25,-4.25 0,-2.3383267 -1.9116733,-4.25 -4.25,-4.25 z m 0,1.5 C 8.0276665,3.75 9.25,4.9723335 9.25,6.5 9.25,8.0276665 8.0276665,9.25 6.5,9.25 4.9723335,9.25 3.75,8.0276665 3.75,6.5 3.75,4.9723335 4.9723335,3.75 6.5,3.75 Z"
     id="ellipse1"
     transform="rotate(90 6.5 6.5)" />
  <path
     style="fill:#285335;stroke:#285335;stroke-opacity:1;stroke-width:0.001;stroke-dasharray:none"
     d="m 17.5,2.25 c -2.338327,0 -4.25,1.9116733 -4.25,4.25 0,2.3383267 1.911673,4.25 4.25,4.25 2.338327,0 4.25,-1.9116733 4.25,-4.25 0,-2.3383267 -1.911673,-4.25 -4.25,-4.25 z m 0,1.5 c 1.527667,0 2.75,1.2223335 2.75,2.75 0,1.5276665 -1.222333,2.75 -2.75,2.75 -1.527667,0 -2.75,-1.2223335 -2.75,-2.75 0,-1.5276665 1.222333,-2.75 2.75,-2.75 z"
     id="ellipse2"
     transform="rotate(90 17.5 6.5)" />
  <path
     style="fill:#285335;stroke:#285335;stroke-opacity:1;stroke-width:0.001;stroke-dasharray:none"
     d="m 17.5,13.25 c -2.338327,0 -4.25,1.911673 -4.25,4.25 0,2.338327 1.911673,4.25 4.25,4.25 2.338327,0 4.25,-1.911673 4.25,-4.25 0,-2.338327 -1.911673,-4.25 -4.25,-4.25 z m 0,1.5 c 1.527667,0 2.75,1.222333 2.75,2.75 0,1.527667 -1.222333,2.75 -2.75,2.75 -1.527667,0 -2.75,-1.222333 -2.75,-2.75 0,-1.527667 1.222333,-2.75 2.75,-2.75 z"
     id="ellipse3"
     transform="rotate(90 17.5 17.5)" />
  <path
     style="fill:#285335;stroke:#285335;stroke-opacity:1;stroke-width:0.001;stroke-dasharray:none"
     d="m 6.5,13.25 c -2.3383267,0 -4.25,1.911673 -4.25,4.25 0,2.338327 1.9116733,4.25 4.25,4.25 2.3383267,0 4.25,-1.911673 4.25,-4.25 0,-2.338327 -1.9116733,-4.25 -4.25,-4.25 z m 0,1.5 c 1.5276665,0 2.75,1.222333 2.75,2.75 0,1.527667 -1.2223335,2.75 -2.75,2.75 -1.5276665,0 -2.75,-1.222333 -2.75,-2.75 0,-1.527667 1.2223335,-2.75 2.75,-2.75 z"
     id="ellipse4"
     transform="rotate(90 6.5 17.5)" />
</svg>
