<?xml version="1.0" encoding="UTF-8" standalone="no"?>
<svg
   width="24"
   height="24"
   viewBox="0 0 24 24"
   fill="none"
   version="1.1"
   id="svg3"
   sodipodi:docname="exit.svg"
   inkscape:version="1.4 (86a8ad7, 2024-10-11)"
   xmlns:inkscape="http://www.inkscape.org/namespaces/inkscape"
   xmlns:sodipodi="http://sodipodi.sourceforge.net/DTD/sodipodi-0.dtd"
   xmlns="http://www.w3.org/2000/svg"
   xmlns:svg="http://www.w3.org/2000/svg">
  <defs
     id="defs3" />
  <sodipodi:namedview
     id="namedview3"
     pagecolor="#ffffff"
     bordercolor="#000000"
     borderopacity="0.25"
     inkscape:showpageshadow="2"
     inkscape:pageopacity="0.0"
     inkscape:pagecheckerboard="0"
     inkscape:deskcolor="#d1d1d1"
     inkscape:zoom="32.625"
     inkscape:cx="11.984674"
     inkscape:cy="12"
     inkscape:window-width="1920"
     inkscape:window-height="1001"
     inkscape:window-x="-9"
     inkscape:window-y="-9"
     inkscape:window-maximized="1"
     inkscape:current-layer="svg3" />
  <path
     style="fill:#285335;stroke-linecap:round;stroke:#285335;stroke-opacity:1;stroke-width:0.001;stroke-dasharray:none"
     d="M 5,1.25 C 2.9378176,1.25 1.25,2.9378176 1.25,5 v 14 c 0,2.06222 1.6878327,3.75 3.75,3.75 h 3 c 2.062167,0 3.75,-1.68778 3.75,-3.75 V 17 A 0.75,0.75 0 0 0 11,16.25 0.75,0.75 0 0 0 10.25,17 v 2 c 0,1.25158 -0.9984673,2.25 -2.25,2.25 H 5 C 3.7484673,21.25 2.75,20.25158 2.75,19 V 5 C 2.75,3.7484824 3.7484824,2.75 5,2.75 h 3 c 1.25153,0 2.25,0.9984794 2.25,2.25 V 7.625 A 0.75,0.75 0 0 0 11,8.375 0.75,0.75 0 0 0 11.75,7.625 V 5 C 11.75,2.9378206 10.06219,1.25 8,1.25 Z"
     id="path1" />
  <path
     style="fill:#285335;stroke-linecap:round;stroke:#285335;stroke-opacity:1;stroke-width:0.001;stroke-dasharray:none"
     d="m 20.5,8.25 a 0.75,0.75 0 0 0 -0.53125,0.21875 0.75,0.75 0 0 0 0,1.0625 L 22.439453,12 19.96875,14.46875 a 0.75,0.75 0 0 0 0,1.0625 0.75,0.75 0 0 0 1.0625,0 l 2.556641,-2.558594 c 0.530755,-0.530755 0.530755,-1.414557 0,-1.945312 L 21.03125,8.46875 A 0.75,0.75 0 0 0 20.5,8.25 Z"
     id="path2" />
  <path
     style="fill:#285335;stroke-linecap:round;stroke:#285335;stroke-opacity:1;stroke-width:0.001;stroke-dasharray:none"
     d="M 15,11.25 A 0.75,0.75 0 0 0 14.25,12 0.75,0.75 0 0 0 15,12.75 h 7 A 0.75,0.75 0 0 0 22.75,12 0.75,0.75 0 0 0 22,11.25 Z"
     id="path3" />
</svg>
