<svg width="22" height="25" viewBox="0 0 22 25" fill="none" xmlns="http://www.w3.org/2000/svg">
<path d="M18.1379 12.6742C18.0481 12.583 17.9409 12.5105 17.8225 12.4608C17.7042 12.4112 17.5771 12.3855 17.4486 12.3851C17.3201 12.3848 17.1929 12.4098 17.0743 12.4588C16.9557 12.5078 16.8481 12.5798 16.7577 12.6705C16.6674 12.7612 16.5961 12.8689 16.5481 12.9873C16.5001 13.1056 16.4763 13.2323 16.4781 13.3599C16.4798 13.4875 16.5071 13.6134 16.5584 13.7304C16.6097 13.8474 16.6839 13.9531 16.7767 14.0413C17.598 14.8441 18.2495 15.8017 18.6932 16.8579C19.1368 17.9142 19.3636 19.0478 19.3602 20.1923C19.3602 21.3684 15.9665 23.0769 10.6481 23.0769C5.32981 23.0769 1.93606 21.3675 1.93606 20.1904C1.9328 19.0538 2.15655 17.9278 2.59435 16.8776C3.03214 15.8275 3.6753 14.874 4.48657 14.0724C4.57833 13.9835 4.65142 13.8775 4.70158 13.7603C4.75175 13.6432 4.778 13.5173 4.77881 13.39C4.77962 13.2627 4.75498 13.1365 4.70631 13.0188C4.65764 12.901 4.58592 12.794 4.4953 12.704C4.40469 12.614 4.29698 12.5428 4.17842 12.4944C4.05987 12.4461 3.93283 12.4216 3.80468 12.4224C3.67653 12.4232 3.54982 12.4493 3.43189 12.4991C3.31397 12.549 3.20718 12.6215 3.11771 12.7127C2.12591 13.6927 1.33968 14.8584 0.804523 16.1423C0.26937 17.4261 -0.00406648 18.8027 4.57013e-05 20.1923C4.57013e-05 23.315 5.48575 25 10.6481 25C15.8105 25 21.2962 23.315 21.2962 20.1923C21.3006 18.7934 21.0234 17.4077 20.481 16.1166C19.9386 14.8256 19.142 13.6552 18.1379 12.6742Z" fill="white"/>
<path d="M10.6481 13.4615C11.9883 13.4615 13.2984 13.0668 14.4127 12.3272C15.527 11.5876 16.3955 10.5364 16.9084 9.30653C17.4213 8.07664 17.5555 6.7233 17.294 5.41766C17.0326 4.11202 16.3872 2.91271 15.4395 1.9714C14.4919 1.03008 13.2845 0.389041 11.9701 0.129333C10.6557 -0.130375 9.29322 0.00291633 8.05506 0.512352C6.8169 1.02179 5.75862 1.88449 5.01405 2.99136C4.26949 4.09823 3.87208 5.39955 3.87208 6.73077C3.87416 8.51525 4.58873 10.226 5.85904 11.4879C7.12935 12.7497 8.85166 13.4595 10.6481 13.4615ZM10.6481 1.92308C11.6054 1.92308 12.5412 2.20505 13.3371 2.73332C14.1331 3.2616 14.7534 4.01246 15.1198 4.89095C15.4861 5.76944 15.5819 6.7361 15.3952 7.6687C15.2084 8.60131 14.7475 9.45795 14.0706 10.1303C13.3937 10.8027 12.5313 11.2606 11.5924 11.4461C10.6535 11.6316 9.68034 11.5364 8.79594 11.1725C7.91154 10.8086 7.15563 10.1924 6.6238 9.40178C6.09196 8.61116 5.8081 7.68164 5.8081 6.73077C5.80961 5.45615 6.32003 4.23417 7.22739 3.33288C8.13474 2.43159 9.36495 1.92458 10.6481 1.92308Z" fill="white"/>
</svg>
