<?xml version="1.0" encoding="UTF-8" standalone="no"?>
<svg
   width="26"
   height="24"
   viewBox="0 0 26 24"
   fill="none"
   version="1.1"
   id="svg11"
   sodipodi:docname="rate.svg"
   inkscape:version="1.4 (86a8ad7, 2024-10-11)"
   xmlns:inkscape="http://www.inkscape.org/namespaces/inkscape"
   xmlns:sodipodi="http://sodipodi.sourceforge.net/DTD/sodipodi-0.dtd"
   xmlns="http://www.w3.org/2000/svg"
   xmlns:svg="http://www.w3.org/2000/svg">
  <defs
     id="defs11" />
  <sodipodi:namedview
     id="namedview11"
     pagecolor="#ffffff"
     bordercolor="#000000"
     borderopacity="0.25"
     inkscape:showpageshadow="2"
     inkscape:pageopacity="0.0"
     inkscape:pagecheckerboard="0"
     inkscape:deskcolor="#d1d1d1"
     inkscape:zoom="32.625"
     inkscape:cx="12.996169"
     inkscape:cy="12"
     inkscape:window-width="1920"
     inkscape:window-height="1001"
     inkscape:window-x="-9"
     inkscape:window-y="-9"
     inkscape:window-maximized="1"
     inkscape:current-layer="svg11" />
  <path
     style="fill:#285335;stroke-width:0.001;stroke-dasharray:none;stroke:#285335;stroke-opacity:1"
     d="M 9.7753906,5.5742187 C 6.0170193,5.5456659 2.9348028,8.57948 2.90625,12.337891 l -0.011719,1.767578 c -0.028564,3.75841 3.0052898,6.838634 6.7636718,6.867187 l 6.4296879,0.05078 c 3.758415,0.02855 6.838634,-3.007307 6.867187,-6.765624 l 0.01367,-1.767579 C 22.997303,8.7318646 19.963395,5.6516106 16.205078,5.6230469 Z m -0.00781,1 6.4296879,0.048828 c 3.217883,0.024456 5.795931,2.6414447 5.771484,5.8593751 L 21.955078,14.25 c -0.02445,3.217883 -2.641391,5.797885 -5.859375,5.773437 L 9.6660156,19.972656 C 6.4480576,19.948209 3.8700748,17.331271 3.8945313,14.113281 L 3.90625,12.345703 C 3.9306972,9.1277138 6.5496295,6.5497716 9.7675781,6.5742187 Z"
     id="path1" />
  <path
     style="fill:#285335;stroke-linecap:round;stroke-width:0.001;stroke-dasharray:none;stroke:#285335;stroke-opacity:1"
     d="m 22.761719,2.1933594 c -0.19432,-0.1039753 -0.438168,-0.115526 -0.634766,0.015625 l -4.396484,2.9296875 c -0.401007,0.2675553 -0.335373,0.9150952 0.09961,1.1054687 0.78841,0.3451714 1.895357,1.1520629 2.765625,2.203125 0.870268,1.0510621 1.50586,2.3341464 1.505859,3.6464844 h 1 V 2.7285156 c 0,-0.2362909 -0.145524,-0.4311809 -0.339843,-0.5351562 z m -0.660157,1.234375 V 8.9863281 C 21.863449,8.5854054 21.657132,8.1587727 21.367187,7.8085937 20.539753,6.8092629 19.577919,6.1724245 18.697266,5.6953125 Z"
     id="path2" />
  <path
     style="fill:#285335;stroke-linecap:round;stroke-width:0.001;stroke-dasharray:none;stroke:#285335;stroke-opacity:1"
     d="M 3.2382813,2.1933594 C 3.0439724,2.297343 2.8984375,2.4923073 2.8984375,2.7285156 V 12.09375 h 1 c 0,-1.312338 0.6355914,-2.5954219 1.5058594,-3.6464844 C 6.2745648,7.3962032 7.3815217,6.5893118 8.1699219,6.2441406 8.6048605,6.0537058 8.6706606,5.4060914 8.2695313,5.1386719 L 3.8730469,2.2089844 C 3.6765206,2.0779591 3.4325901,2.0893758 3.2382813,2.1933594 Z m 0.6601562,1.234375 3.4042969,2.2695312 C 6.4226427,6.1744872 5.4615334,6.8100684 4.6347656,7.8085937 4.3447344,8.1588777 4.1366028,8.5852711 3.8984375,8.9863281 Z"
     id="path3" />
  <path
     style="fill:#285335;stroke-linecap:round;stroke-width:0.001;stroke-dasharray:none;stroke:#285335;stroke-opacity:1"
     d="m 16.556641,15.748047 a 0.5,0.5 0 0 0 -0.339844,0.177734 c -0.577044,0.690239 -0.986438,0.991129 -1.279297,1.017578 -0.292859,0.02645 -0.742415,-0.174854 -1.486328,-0.949218 -0.240696,-0.25046 -0.641895,-0.257966 -0.892578,-0.01367 -0.708463,0.690175 -1.190861,0.950965 -1.494141,0.949218 -0.30328,-0.0017 -0.685945,-0.233954 -1.267578,-0.988281 a 0.5,0.5 0 0 0 -0.7011719,-0.0918 0.5,0.5 0 0 0 -0.091797,0.701172 c 0.6496769,0.842574 1.2813907,1.374453 2.0546877,1.378906 0.68173,0.0039 1.281285,-0.418907 1.9375,-1.021484 0.705575,0.676806 1.347492,1.093003 2.03125,1.03125 0.771491,-0.06968 1.335575,-0.629685 1.957031,-1.373047 a 0.5,0.5 0 0 0 -0.0625,-0.703125 0.5,0.5 0 0 0 -0.365234,-0.115234 z"
     id="path4" />
  <path
     style="fill:#285335;stroke-width:0.001;stroke-dasharray:none;stroke:#285335;stroke-opacity:1"
     d="m 9.4003906,9.1933594 c -0.9329893,0 -1.6992187,0.7662294 -1.6992187,1.6992186 0,0.932989 0.7662294,1.701172 1.6992187,1.701172 0.9329894,0 1.6992184,-0.768183 1.6992184,-1.701172 0,-0.9329892 -0.766229,-1.6992186 -1.6992184,-1.6992186 z m 0,0.9999996 c 0.3925493,0 0.6992184,0.30667 0.6992184,0.699219 0,0.392549 -0.3066691,0.701172 -0.6992184,0.701172 -0.3925492,0 -0.6992187,-0.308623 -0.6992187,-0.701172 0,-0.392549 0.3066695,-0.699219 0.6992187,-0.699219 z"
     id="circle4" />
  <path
     style="fill:#285335;stroke-width:0.001;stroke-dasharray:none;stroke:#285335;stroke-opacity:1"
     d="m 16.599609,9.1933594 c -0.932989,0 -1.699218,0.7662294 -1.699218,1.6992186 0,0.932989 0.766229,1.701172 1.699218,1.701172 0.93299,0 1.701172,-0.768183 1.701172,-1.701172 0,-0.9329892 -0.768182,-1.6992186 -1.701172,-1.6992186 z m 0,0.9999996 c 0.39255,0 0.701172,0.30667 0.701172,0.699219 0,0.392549 -0.308622,0.701172 -0.701172,0.701172 -0.392549,0 -0.699218,-0.308623 -0.699218,-0.701172 0,-0.392549 0.306669,-0.699219 0.699218,-0.699219 z"
     id="circle5" />
  <path
     style="fill:#285335;stroke-linecap:round;stroke-width:0.001;stroke-dasharray:none;stroke:#285335;stroke-opacity:1"
     d="m 1.1855469,10.380859 a 0.5,0.5 0 0 0 -0.65039065,0.279297 0.5,0.5 0 0 0 0.27929688,0.650391 L 7.1289062,13.835938 A 0.5,0.5 0 0 0 7.7792969,13.558594 0.5,0.5 0 0 0 7.5019531,12.908203 Z"
     id="path5" />
  <path
     style="fill:#285335;stroke-linecap:round;stroke-width:0.001;stroke-dasharray:none;stroke:#285335;stroke-opacity:1"
     d="m 24.814453,10.380859 -6.316406,2.527344 a 0.5,0.5 0 0 0 -0.277344,0.650391 0.5,0.5 0 0 0 0.650391,0.277344 l 6.314453,-2.525391 a 0.5,0.5 0 0 0 0.279297,-0.650391 0.5,0.5 0 0 0 -0.650391,-0.279297 z"
     id="path6" />
  <path
     style="fill:#285335;stroke-linecap:round;stroke-width:0.001;stroke-dasharray:none;stroke:#285335;stroke-opacity:1"
     d="m 1,14.134766 a 0.5,0.5 0 0 0 -0.5,0.5 0.5,0.5 0 0 0 0.5,0.5 h 6.3164062 a 0.5,0.5 0 0 0 0.5,-0.5 0.5,0.5 0 0 0 -0.5,-0.5 z"
     id="path7" />
  <path
     style="fill:#285335;stroke-linecap:round;stroke-width:0.001;stroke-dasharray:none;stroke:#285335;stroke-opacity:1"
     d="m 18.685547,13.916016 a 0.72003001,0.72003001 0 0 0 -0.720703,0.71875 0.72003001,0.72003001 0 0 0 0.720703,0.720703 H 25 A 0.72003001,0.72003001 0 0 0 25.720703,14.634766 0.72003001,0.72003001 0 0 0 25,13.916016 Z"
     id="path8" />
  <path
     style="fill:#285335;stroke-linecap:round;stroke-width:0.001;stroke-dasharray:none;stroke:#285335;stroke-opacity:1"
     d="M 7.1582031,15.423828 1.4726562,17.318359 A 0.5,0.5 0 0 0 1.15625,17.951172 0.5,0.5 0 0 0 1.7890625,18.267578 L 7.4726562,16.373047 A 0.5,0.5 0 0 0 7.7890625,15.740234 0.5,0.5 0 0 0 7.1582031,15.423828 Z"
     id="path9" />
  <path
     style="fill:#285335;stroke-linecap:round;stroke-width:0.001;stroke-dasharray:none;stroke:#285335;stroke-opacity:1"
     d="m 18.841797,15.423828 a 0.5,0.5 0 0 0 -0.63086,0.316406 0.5,0.5 0 0 0 0.316407,0.632813 l 5.683593,1.894531 a 0.5,0.5 0 0 0 0.632813,-0.316406 0.5,0.5 0 0 0 -0.316406,-0.632813 z"
     id="path10" />
  <path
     style="fill:#285335;stroke-linecap:round;stroke-width:0.001;stroke-dasharray:none;stroke:#285335;stroke-opacity:1"
     d="m 12.410156,12.574219 c -0.40278,0 -0.761709,0.269406 -0.898437,0.599609 -0.136728,0.330203 -0.07398,0.775812 0.210937,1.060547 l 0.589844,0.589844 c 0.373784,0.373405 1.001216,0.373405 1.375,0 h 0.002 l 0.589844,-0.589844 c 0.284967,-0.284788 0.34768,-0.730422 0.210937,-1.060547 -0.136742,-0.330125 -0.495578,-0.599609 -0.898437,-0.599609 z"
     id="path11" />
</svg>
