<svg width="24" height="24" viewBox="0 0 24 24" fill="none" xmlns="http://www.w3.org/2000/svg">
<path fill-rule="evenodd" clip-rule="evenodd" d="M11.6952 1.7405C10.3572 2.10114 9.45799 3.18256 9.35305 4.55729C9.30858 5.13947 9.46401 5.81778 9.75109 6.2945C9.83238 6.4295 9.87575 6.5403 9.84752 6.54073C9.81929 6.54117 9.59544 6.5701 9.35017 6.60496C7.71655 6.83719 6.27571 7.58047 5.10074 8.79703C4.13662 9.79536 3.45137 11.1033 3.20841 12.4089C3.16822 12.6249 3.12205 12.8647 3.10582 12.9417L3.07632 13.0818L2.89737 13.0013C2.4461 12.7983 2.19524 12.3654 2.15256 11.7159L2.12498 11.2962H1.47704H0.829102V11.767C0.829102 12.6053 1.03336 13.1177 1.59084 13.678C1.98129 14.0704 2.39347 14.3099 2.83572 14.4012L3.08863 14.4534L3.11799 14.7184C3.30235 16.3808 4.22197 18.1675 5.43926 19.2287C5.68532 19.4431 5.72014 19.5027 6.4139 20.8935L7.13336 22.3359H9.17384H11.2143V21.3978V20.4596H12.4579H13.7015V21.3978V22.3359H15.742H17.7825L18.4801 20.9287L19.1778 19.5215L19.6375 19.0415C20.1858 18.4691 20.3106 18.3142 20.6858 17.7402L20.9719 17.3023L22.0603 16.9715L23.1486 16.6406L23.1598 13.841L23.171 11.0414L22.7453 10.9102C22.5111 10.838 22.0117 10.6863 21.6354 10.5732L20.9513 10.3675L20.767 10.0573C20.5844 9.74989 20.257 9.30224 19.9625 8.95717L19.8097 8.77813L20.2885 8.19355C20.5518 7.87205 20.763 7.59653 20.7579 7.58126C20.7481 7.55194 19.6789 6.67522 19.3087 6.39289C19.0311 6.18131 18.3887 5.86997 18.0214 5.76913C17.8105 5.71122 17.5757 5.69111 17.1051 5.69067C16.3604 5.68993 16.0723 5.75425 15.3347 6.08596C15.3089 6.09753 15.3437 5.93979 15.4121 5.73535C15.7894 4.60742 15.4965 3.39715 14.6406 2.54731C14.0495 1.96046 13.4156 1.69455 12.5452 1.66832C12.1213 1.65554 11.9594 1.66928 11.6952 1.7405ZM13.0176 3.09014C14.0678 3.45148 14.539 4.69648 13.9839 5.64363C13.6291 6.24903 12.8516 6.62037 12.1915 6.49967C11.0012 6.28206 10.3501 5.01843 10.8857 3.96546C11.2767 3.19678 12.2117 2.81288 13.0176 3.09014ZM17.6723 7.08456C17.8043 7.11955 18.0253 7.20626 18.1633 7.2773C18.4306 7.41479 18.8456 7.7164 18.8486 7.77539C18.8497 7.7949 18.6541 8.05191 18.4141 8.34658C18.1741 8.64125 17.9787 8.90018 17.98 8.92204C17.9811 8.94386 18.0806 9.04025 18.201 9.13625C18.6584 9.50095 19.3855 10.4048 19.7975 11.1207L20.0105 11.4908L20.9364 11.7721L21.8623 12.0534L21.8509 13.8399L21.8395 15.6264L20.9291 15.9026C20.4283 16.0545 20.0145 16.1847 20.0094 16.192C20.0043 16.1992 19.9053 16.3761 19.7895 16.585C19.4899 17.1253 19.0742 17.6644 18.5683 18.1688L18.1305 18.6051L17.5431 19.7942L16.9557 20.9832H15.9831H15.0106V20.0451V19.1069H12.4361H9.86162V20.0451V20.9832H8.91194H7.96221L7.35747 19.7712C6.83241 18.719 6.72969 18.5421 6.57849 18.4294C6.28736 18.2125 5.681 17.5402 5.40697 17.1305C3.65724 14.5147 4.28153 10.9549 6.82172 9.06368C7.4591 8.5891 8.10996 8.27938 8.94527 8.05313L9.44708 7.91725L12.3214 7.90263L15.1956 7.88802L15.5057 7.62699C16.0078 7.20438 16.4701 7.02744 17.0833 7.02334C17.2753 7.02203 17.5403 7.04961 17.6723 7.08456ZM12.1088 8.94478C11.7071 8.97545 11.3377 9.0636 10.9494 9.22134C10.6564 9.34042 10.1351 9.65568 9.93405 9.83533L9.81013 9.94608L9.95587 10.109C10.036 10.1986 10.236 10.4222 10.4002 10.6058L10.6988 10.9398L11.0111 10.7283C11.4691 10.4182 11.9031 10.2853 12.4579 10.2853C13.013 10.2853 13.4467 10.4182 13.9052 10.7287L14.2179 10.9404L14.647 10.4617C14.883 10.1983 15.0812 9.96837 15.0875 9.9507C15.1022 9.90929 14.7525 9.64285 14.4226 9.44423C13.7829 9.05897 12.9544 8.88011 12.1088 8.94478ZM17.4542 12.5834V13.2598H18.1305H18.8069V12.5834V11.9071H18.1305H17.4542V12.5834Z" fill="#285335"/>
</svg>
