<svg width="14" height="13" viewBox="0 0 14 13" fill="none" xmlns="http://www.w3.org/2000/svg">
<path d="M2.22791 1.46486H11.8198C11.9964 1.46486 12.1685 1.48984 12.3356 1.53135C12.1501 0.935568 11.6092 0.5 10.9639 0.5H3.03609C2.387 0.5 1.84323 0.941081 1.66123 1.54238C1.84355 1.49243 2.0335 1.46486 2.22791 1.46486Z" fill="#285335"/>
<path d="M1.27273 3.09459H12.7273C12.9188 3.09459 13.1034 3.12411 13.2777 3.17795C13.25 3.09524 13.2179 3.01384 13.1772 2.93697C12.9064 2.42908 12.3865 2.11384 11.8198 2.11384H2.22791C1.65964 2.11384 1.13877 2.4307 0.868636 2.94086C0.830773 3.01254 0.800546 3.08778 0.774136 3.16465C0.933227 3.12054 1.09995 3.09492 1.27273 3.09492V3.09459Z" fill="#285335"/>
<path d="M12.7273 3.74324H1.27273C0.569864 3.74324 0 4.32411 0 5.04054V11.2027C0 11.9191 0.569864 12.5 1.27273 12.5H12.7273C13.4301 12.5 14 11.9191 14 11.2027V5.04054C14 4.32411 13.4301 3.74324 12.7273 3.74324ZM9.19991 8.96422L6.33627 10.6494C6.18673 10.7373 6.02286 10.7814 5.859 10.7814C5.69514 10.7814 5.53095 10.7376 5.38173 10.6494C5.08295 10.4736 4.90445 10.1587 4.90445 9.80681V6.43643C4.90445 6.08454 5.08295 5.76962 5.38173 5.59384C5.6805 5.41805 6.0375 5.41805 6.33627 5.59384L9.19991 7.27903C9.49868 7.45481 9.67718 7.77005 9.67718 8.12162C9.67718 8.47319 9.49868 8.78843 9.19991 8.96422Z" fill="#285335"/>
</svg>
