<?xml version="1.0" encoding="UTF-8" standalone="no"?>
<svg
   width="24"
   height="25"
   viewBox="0 0 24 25"
   fill="none"
   version="1.1"
   id="svg6"
   sodipodi:docname="calender.svg"
   inkscape:version="1.3 (0e150ed6c4, 2023-07-21)"
   xmlns:inkscape="http://www.inkscape.org/namespaces/inkscape"
   xmlns:sodipodi="http://sodipodi.sourceforge.net/DTD/sodipodi-0.dtd"
   xmlns="http://www.w3.org/2000/svg"
   xmlns:svg="http://www.w3.org/2000/svg">
  <defs
     id="defs6" />
  <sodipodi:namedview
     id="namedview6"
     pagecolor="#ffffff"
     bordercolor="#000000"
     borderopacity="0.25"
     inkscape:showpageshadow="2"
     inkscape:pageopacity="0.0"
     inkscape:pagecheckerboard="0"
     inkscape:deskcolor="#d1d1d1"
     inkscape:zoom="32.84"
     inkscape:cx="12.012789"
     inkscape:cy="12.5"
     inkscape:window-width="1920"
     inkscape:window-height="1017"
     inkscape:window-x="-8"
     inkscape:window-y="-8"
     inkscape:window-maximized="1"
     inkscape:current-layer="svg6" />
  <path
     style="color:#000000;fill:#285335;-inkscape-stroke:none"
     d="m 4.5,4.8222656 c -1.7875253,0 -3.25,1.4624747 -3.25,3.25 V 19.072266 c 0,1.787525 1.4624747,3.25 3.25,3.25 h 15 c 1.787525,0 3.25,-1.462475 3.25,-3.25 V 8.0722656 c 0,-1.7875253 -1.462475,-3.25 -3.25,-3.25 z m 0,1.5 h 15 c 0.982472,0 1.75,0.7675281 1.75,1.75 V 19.072266 c 0,0.982472 -0.767528,1.75 -1.75,1.75 h -15 c -0.9824719,0 -1.75,-0.767528 -1.75,-1.75 V 8.0722656 c 0,-0.9824719 0.7675281,-1.75 1.75,-1.75 z"
     id="rect1" />
  <path
     style="color:#000000;fill:#285335;-inkscape-stroke:none"
     d="m 4.5,4.8222656 c -1.7860359,0 -3.25,1.4639605 -3.25,3.25 v 1.25 h 21.5 v -1.25 c 0,-1.7860431 -1.463971,-3.25 -3.25,-3.25 z m 0,1.5 h 15 c 0.876959,0 1.511196,0.6647127 1.646484,1.5 H 2.8535156 c 0.1352869,-0.8352893 0.7695143,-1.5 1.6464844,-1.5 z"
     id="path1" />
  <path
     style="color:#000000;fill:#285335;stroke-linecap:round;-inkscape-stroke:none"
     d="m 7,14.822266 a 0.75,0.75 0 0 0 -0.75,0.75 0.75,0.75 0 0 0 0.75,0.75 h 10 a 0.75,0.75 0 0 0 0.75,-0.75 0.75,0.75 0 0 0 -0.75,-0.75 z"
     id="path2" />
  <path
     style="color:#000000;fill:#285335;stroke-linecap:round;-inkscape-stroke:none"
     d="m 6,3.3222656 c -0.6874993,0 -1.2980927,0.2848172 -1.6855469,0.7207031 C 3.9269989,4.4788547 3.75,5.0305995 3.75,5.5722656 3.75,6.1139317 3.9269989,6.6656765 4.3144531,7.1015625 4.7019073,7.5374485 5.3125007,7.8222656 6,7.8222656 a 0.75,0.75 0 0 0 0.75,-0.75 0.75,0.75 0 0 0 -0.75,-0.75 c -0.3124997,0 -0.4519078,-0.090183 -0.5644531,-0.2167969 C 5.3230016,5.9788553 5.25,5.7805987 5.25,5.5722656 5.25,5.3639325 5.3230016,5.165676 5.4355469,5.0390625 5.5480922,4.912449 5.6875003,4.8222656 6,4.8222656 a 0.75,0.75 0 0 0 0.75,-0.75 0.75,0.75 0 0 0 -0.75,-0.75 z"
     id="path3" />
  <path
     style="color:#000000;fill:#285335;stroke-linecap:round;-inkscape-stroke:none"
     d="m 10.5,3.3222656 c -0.6874993,0 -1.2980927,0.2848172 -1.6855469,0.7207031 C 8.4269989,4.4788547 8.25,5.0305995 8.25,5.5722656 8.25,6.1139317 8.4269989,6.6656765 8.8144531,7.1015625 9.2019073,7.5374485 9.8125007,7.8222656 10.5,7.8222656 a 0.75,0.75 0 0 0 0.75,-0.75 0.75,0.75 0 0 0 -0.75,-0.75 c -0.3125,0 -0.451908,-0.090183 -0.5644531,-0.2167969 C 9.8230016,5.9788553 9.75,5.7805987 9.75,5.5722656 9.75,5.3639325 9.8230016,5.165676 9.9355469,5.0390625 10.048092,4.912449 10.1875,4.8222656 10.5,4.8222656 a 0.75,0.75 0 0 0 0.75,-0.75 0.75,0.75 0 0 0 -0.75,-0.75 z"
     id="path4" />
  <path
     style="color:#000000;fill:#285335;stroke-linecap:round;-inkscape-stroke:none"
     d="m 15,3.3222656 c -0.687499,0 -1.298093,0.2848172 -1.685547,0.7207031 C 12.926999,4.4788547 12.75,5.0305995 12.75,5.5722656 c 0,0.5416661 0.176999,1.0934109 0.564453,1.5292969 C 13.701907,7.5374485 14.312501,7.8222656 15,7.8222656 a 0.75,0.75 0 0 0 0.75,-0.75 0.75,0.75 0 0 0 -0.75,-0.75 c -0.3125,0 -0.451908,-0.090183 -0.564453,-0.2167969 C 14.323002,5.9788553 14.25,5.7805987 14.25,5.5722656 c 0,-0.2083331 0.073,-0.4065896 0.185547,-0.5332031 C 14.548092,4.912449 14.6875,4.8222656 15,4.8222656 a 0.75,0.75 0 0 0 0.75,-0.75 0.75,0.75 0 0 0 -0.75,-0.75 z"
     id="path5" />
  <path
     style="color:#000000;fill:#285335;stroke-linecap:round;-inkscape-stroke:none"
     d="m 19.5,3.3222656 c -0.687499,0 -1.298093,0.2848172 -1.685547,0.7207031 C 17.426999,4.4788547 17.25,5.0305995 17.25,5.5722656 c 0,0.5416661 0.176999,1.0934109 0.564453,1.5292969 0.387454,0.435886 0.998048,0.7207031 1.685547,0.7207031 a 0.75,0.75 0 0 0 0.75,-0.75 0.75,0.75 0 0 0 -0.75,-0.75 c -0.3125,0 -0.451908,-0.090183 -0.564453,-0.2167969 C 18.823002,5.9788553 18.75,5.7805987 18.75,5.5722656 c 0,-0.2083331 0.073,-0.4065896 0.185547,-0.5332031 C 19.048092,4.912449 19.1875,4.8222656 19.5,4.8222656 a 0.75,0.75 0 0 0 0.75,-0.75 0.75,0.75 0 0 0 -0.75,-0.75 z"
     id="path6" />
</svg>
