<?xml version="1.0" encoding="UTF-8" standalone="no"?>
<svg
   width="22"
   height="23"
   viewBox="0 0 22 23"
   fill="none"
   version="1.1"
   id="svg1"
   sodipodi:docname="clock.svg"
   inkscape:version="1.3 (0e150ed6c4, 2023-07-21)"
   xmlns:inkscape="http://www.inkscape.org/namespaces/inkscape"
   xmlns:sodipodi="http://sodipodi.sourceforge.net/DTD/sodipodi-0.dtd"
   xmlns="http://www.w3.org/2000/svg"
   xmlns:svg="http://www.w3.org/2000/svg">
  <defs
     id="defs1" />
  <sodipodi:namedview
     id="namedview1"
     pagecolor="#ffffff"
     bordercolor="#000000"
     borderopacity="0.25"
     inkscape:showpageshadow="2"
     inkscape:pageopacity="0.0"
     inkscape:pagecheckerboard="0"
     inkscape:deskcolor="#d1d1d1"
     inkscape:zoom="35.695652"
     inkscape:cx="10.995737"
     inkscape:cy="11.5"
     inkscape:window-width="1920"
     inkscape:window-height="1017"
     inkscape:window-x="-8"
     inkscape:window-y="-8"
     inkscape:window-maximized="1"
     inkscape:current-layer="svg1" />
  <path
     style="color:#000000;fill:#285335;-inkscape-stroke:none"
     d="m 11,0.82226563 c -5.9281717,0 -10.75,4.82182837 -10.75,10.75000037 0,5.928171 4.8218283,10.75 10.75,10.75 5.928172,0 10.75,-4.821829 10.75,-10.75 C 21.75,5.644094 16.928172,0.82226563 11,0.82226563 Z m 0,1.49999997 c 5.117512,0 9.25,4.1324877 9.25,9.2500004 0,5.117512 -4.132488,9.25 -9.25,9.25 -5.1175123,0 -9.25,-4.132488 -9.25,-9.25 0,-5.1175127 4.1324877,-9.2500004 9.25,-9.2500004 z"
     id="circle1" />
  <path
     style="color:#000000;fill:#285335;stroke-linecap:round;-inkscape-stroke:none"
     d="m 11,3.8222656 a 0.75,0.75 0 0 0 -0.75,0.75 v 6.4257814 c 0,0.470505 0.256125,0.906111 0.666016,1.136719 l 3.716797,2.091797 a 0.75,0.75 0 0 0 1.021484,-0.28711 0.75,0.75 0 0 0 -0.287109,-1.021484 L 11.75,10.884766 V 4.5722656 a 0.75,0.75 0 0 0 -0.75,-0.75 z"
     id="path1" />
</svg>
