<svg width="29" height="29" viewBox="0 0 29 29" fill="none" xmlns="http://www.w3.org/2000/svg">
<path d="M22.2777 28.7754H6.7222C5.0603 28.7754 3.49778 28.1282 2.32248 26.9529C1.14723 25.7777 0.5 24.2151 0.5 22.5531V20.9975C0.5 20.1384 1.19641 19.4419 2.05556 19.4419C2.91472 19.4419 3.61113 20.1384 3.61113 20.9975V22.5531C3.61113 23.3841 3.93477 24.1654 4.52229 24.7529C5.10996 25.3406 5.8912 25.6643 6.7222 25.6643H22.2777C23.1087 25.6643 23.8899 25.3406 24.4775 24.7529C25.0652 24.1653 25.3889 23.384 25.3889 22.5531V20.9975C25.3889 20.1384 26.0853 19.4419 26.9444 19.4419C27.8035 19.4419 28.5 20.1384 28.5 20.9975V22.5531C28.5 24.215 27.8528 25.7775 26.6775 26.9529C25.5022 28.1282 23.9396 28.7754 22.2777 28.7754ZM14.5 22.5531C14.2848 22.5531 14.0799 22.5094 13.8935 22.4304C13.7197 22.357 13.5563 22.2502 13.4133 22.1106L13.4132 22.1105C13.4122 22.1096 13.4111 22.1085 13.4101 22.1075C13.4098 22.1073 13.4095 22.1069 13.4092 22.1066C13.4084 22.1059 13.4076 22.1051 13.4068 22.1042C13.4062 22.1037 13.4057 22.1033 13.4052 22.1027C13.4047 22.1021 13.404 22.1014 13.4035 22.101C13.4024 22.0999 13.4012 22.0987 13.4001 22.0976L7.17784 15.8753C6.57038 15.2678 6.57038 14.2829 7.17784 13.6754C7.78529 13.0679 8.7703 13.0679 9.37775 13.6754L12.9445 17.2421V2.33096C12.9444 1.4718 13.6408 0.775391 14.5 0.775391C15.3591 0.775391 16.0556 1.4718 16.0556 2.33096V17.242L19.6222 13.6754C20.2296 13.0679 21.2148 13.0679 21.8222 13.6754C22.4296 14.2828 22.4296 15.2678 21.8222 15.8753L15.5999 22.0975C15.5988 22.0986 15.5976 22.0998 15.5965 22.1009C15.5959 22.1014 15.5953 22.1021 15.5948 22.1026C15.5943 22.1031 15.5938 22.1036 15.5932 22.1041C15.5925 22.105 15.5916 22.1058 15.5908 22.1065C15.5906 22.1068 15.5902 22.1072 15.5899 22.1074C15.5889 22.1084 15.5879 22.1095 15.5869 22.1104L15.5868 22.1105C15.5696 22.1272 15.5523 22.1434 15.5346 22.1592C15.4043 22.2754 15.2593 22.3659 15.1059 22.4306C15.1053 22.4308 15.1049 22.431 15.1043 22.4312C15.1037 22.4315 15.1032 22.4318 15.1026 22.432C14.9172 22.51 14.7137 22.5531 14.5 22.5531Z" fill="#285335"/>
</svg>
