<svg width="19" height="22" viewBox="0 0 19 22" fill="none" xmlns="http://www.w3.org/2000/svg">
<path d="M17.9956 13.8485C17.6556 17.3924 14.1099 21.6823 9.66584 21.6823C5.06076 21.6823 1.42188 18.1335 1.0126 13.8485C0.604547 9.57631 2.36212 7.60487 4.2675 4.93951C4.34417 4.83226 4.5165 4.88662 4.51946 5.01843C4.59881 8.54236 5.67453 7.79072 6.17322 10.798C6.20032 10.9614 6.52915 10.9579 6.55446 10.7942C7.49852 4.68952 9.63688 7.04216 10.2246 0.644717C10.2355 0.525706 10.3853 0.470431 10.4629 0.561325C13.2135 3.78323 14.1145 6.13175 12.215 11.5545C12.1773 11.662 12.2792 11.7671 12.3839 11.722C14.1425 10.9649 15.5975 9.03545 15.7756 7.11729C15.7874 6.98963 15.9546 6.93426 16.0313 7.037C17.0991 8.46754 18.3056 10.6156 17.9956 13.8485Z" fill="#F29C14"/>
</svg>
