<svg width="16" height="16" viewBox="0 0 16 16" fill="none" xmlns="http://www.w3.org/2000/svg">
<path d="M8 5.249C6.482 5.249 5.249 6.482 5.249 8C5.249 9.518 6.482 10.754 8 10.754C9.518 10.754 10.754 9.518 10.754 8C10.754 6.482 9.518 5.249 8 5.249Z" fill="#285335"/>
<path d="M12.152 0.5H3.848C2.003 0.5 0.5 2.003 0.5 3.848V12.152C0.5 14 2.003 15.5 3.848 15.5H12.152C14 15.5 15.5 14 15.5 12.152V3.848C15.5 2.003 14 0.5 12.152 0.5ZM8 12.86C5.321 12.86 3.14 10.679 3.14 8C3.14 5.321 5.321 3.143 8 3.143C10.679 3.143 12.86 5.321 12.86 8C12.86 10.679 10.679 12.86 8 12.86ZM12.962 4.025C12.395 4.025 11.933 3.566 11.933 2.999C11.933 2.432 12.395 1.97 12.962 1.97C13.529 1.97 13.991 2.432 13.991 2.999C13.991 3.566 13.529 4.025 12.962 4.025Z" fill="#285335"/>
</svg>
