<svg width="21" height="21" viewBox="0 0 21 21" fill="none" xmlns="http://www.w3.org/2000/svg">
<path fill-rule="evenodd" clip-rule="evenodd" d="M10.3963 2.98282C10.3583 2.99677 10.2787 3.05227 10.2193 3.10615C10.0013 3.30409 9.982 3.40027 9.982 4.28857C9.982 5.1519 9.9948 5.21968 10.1984 5.43364C10.2853 5.52487 10.5614 5.62821 10.7185 5.62821C10.8756 5.62821 11.1518 5.52487 11.2386 5.43364C11.4425 5.21931 11.455 5.15268 11.4548 4.27929C11.4546 3.33613 11.4255 3.22814 11.1217 3.04234C10.9756 2.95295 10.5688 2.91961 10.3963 2.98282ZM5.71255 4.94657C5.47305 5.02437 5.24068 5.25698 5.193 5.4666C5.14462 5.67941 5.17615 5.92823 5.27065 6.07936C5.39696 6.28136 6.31768 7.16421 6.46747 7.22701C6.79304 7.36345 7.18229 7.23624 7.39136 6.92504C7.53484 6.7115 7.53719 6.32531 7.39629 6.12012C7.25198 5.91009 6.34986 5.02728 6.23528 4.98397C6.04462 4.91199 5.85981 4.89873 5.71255 4.94657ZM15.365 4.9323C15.3002 4.95253 15.1966 4.99616 15.1348 5.02922C15.0007 5.10097 14.0805 6.0258 13.9982 6.17147C13.9266 6.2983 13.9231 6.70817 13.9925 6.84327C14.1844 7.21713 14.6014 7.38182 14.9664 7.22793C15.1208 7.16283 16.0347 6.2911 16.1595 6.08993C16.3401 5.79872 16.2844 5.34148 16.0436 5.13823C15.82 4.94952 15.5613 4.87099 15.365 4.9323ZM9.91296 6.78048C9.31252 6.91244 8.92706 7.095 8.39392 7.49979C8.2167 7.63434 8.02903 7.79372 7.97688 7.85398C7.48508 8.42208 7.19697 8.94997 7.03167 9.58589C6.90366 10.0782 6.90283 10.9132 7.02988 11.404C7.21059 12.1024 7.52895 12.6656 8.02949 13.1726C8.52672 13.6763 9.06492 13.9898 9.7593 14.1802C10.3023 14.3291 11.1347 14.3291 11.6777 14.1802C13.0407 13.8064 14.0348 12.7978 14.4011 11.417C14.5332 10.9192 14.5362 10.0889 14.4076 9.59471C13.881 7.57034 11.9164 6.34018 9.91296 6.78048ZM3.59193 9.81518C3.50784 9.85674 3.38355 9.96372 3.31575 10.0529C3.21282 10.1883 3.19238 10.2623 3.19238 10.4994C3.19238 10.7368 3.21277 10.8104 3.31639 10.9466C3.5286 11.2257 3.66222 11.2612 4.50119 11.2612C5.40207 11.2612 5.53326 11.2229 5.76052 10.8931C5.86758 10.7377 5.868 10.2619 5.76121 10.1057C5.6378 9.92503 5.46951 9.79496 5.32059 9.76509C5.24506 9.74994 4.85959 9.73798 4.464 9.73858C3.89261 9.73942 3.71337 9.75516 3.59193 9.81518ZM16.0218 9.80715C15.7216 9.93796 15.5978 10.14 15.5978 10.4994C15.5978 10.6877 15.6235 10.8161 15.6765 10.8931C15.9037 11.2229 16.0349 11.2612 16.9358 11.2612C17.7748 11.2612 17.9084 11.2257 18.1206 10.9466C18.2242 10.8104 18.2446 10.7368 18.2446 10.4994C18.2446 10.2619 18.2242 10.1883 18.1206 10.0521C17.9074 9.77169 17.776 9.73729 16.9258 9.73932C16.378 9.74066 16.132 9.75908 16.0218 9.80715ZM6.45481 13.7748C6.30106 13.8419 5.40561 14.7062 5.26421 14.924C5.16565 15.0758 5.14779 15.5194 5.23373 15.6805C5.39949 15.9912 5.93313 16.16 6.24237 15.9996C6.39902 15.9183 7.2297 15.1091 7.39306 14.8786C7.50842 14.7158 7.53567 14.3329 7.44453 14.1555C7.25115 13.7788 6.82287 13.6141 6.45481 13.7748ZM14.3937 13.7704C14.0906 13.9055 13.9405 14.1483 13.9412 14.5025C13.9417 14.7958 14.0124 14.8962 14.6911 15.5667C15.0634 15.9346 15.176 16.0193 15.3355 16.0519C15.586 16.103 15.822 16.0426 16.0239 15.8756C16.2846 15.6602 16.3474 15.212 16.1595 14.9088C16.0307 14.701 15.1294 13.8387 14.972 13.7727C14.7891 13.6961 14.5624 13.6952 14.3937 13.7704ZM10.3697 15.4552C10.256 15.5087 10.1427 15.6105 10.082 15.7136C9.98918 15.8714 9.982 15.9441 9.98219 16.7237C9.98237 17.6621 10.0117 17.7707 10.3153 17.9564C10.5191 18.081 10.9179 18.081 11.1217 17.9564C11.4253 17.7707 11.4546 17.6621 11.4548 16.7237C11.455 15.9596 11.4465 15.8692 11.3606 15.7232C11.2324 15.5052 11.077 15.4131 10.795 15.388C10.6224 15.3726 10.506 15.391 10.3697 15.4552Z" fill="white"/>
</svg>
