<svg width="18" height="16" viewBox="0 0 18 16" fill="none" xmlns="http://www.w3.org/2000/svg">
<path d="M0.3909 7.89216L4.46844 9.29501L14.149 3.29977C14.2893 3.21283 14.4331 3.4059 14.3121 3.51875L6.98318 10.3524L6.71063 14.1782C6.68988 14.4693 7.03596 14.6313 7.24135 14.4267L9.49791 12.1789L13.6231 15.3423C14.0678 15.6834 14.7116 15.443 14.8316 14.8913L17.704 1.6794C17.8678 0.925696 17.1388 0.289704 16.4273 0.565717L0.370152 6.79442C-0.133555 6.98983 -0.119836 7.71648 0.3909 7.89216Z" fill="#160E0E"/>
<path d="M0.3909 7.89216L4.46844 9.29501L14.149 3.29977C14.2893 3.21283 14.4331 3.4059 14.3121 3.51875L6.98318 10.3524L6.71063 14.1782C6.68988 14.4693 7.03596 14.6313 7.24135 14.4267L9.49791 12.1789L13.6231 15.3423C14.0678 15.6834 14.7116 15.443 14.8316 14.8913L17.704 1.6794C17.8678 0.925696 17.1388 0.289704 16.4273 0.565717L0.370152 6.79442C-0.133555 6.98983 -0.119836 7.71648 0.3909 7.89216Z" fill="#285335"/>
</svg>
