<svg width="20" height="14" viewBox="0 0 20 14" fill="none" xmlns="http://www.w3.org/2000/svg">
<path d="M18.9073 2.23812L18.9308 2.39184C18.7034 1.58478 18.0892 0.962038 17.3088 0.735371L17.2924 0.73145C15.8249 0.333019 9.91983 0.333019 9.91983 0.333019C9.91983 0.333019 4.02964 0.325175 2.54729 0.73145C1.75199 0.962038 1.13709 1.58478 0.913564 2.37537L0.909642 2.39184C0.361407 5.25537 0.357486 8.69615 0.933956 11.762L0.909642 11.6067C1.13709 12.4138 1.75121 13.0365 2.5316 13.2632L2.54807 13.2671C4.01395 13.6663 9.92062 13.6663 9.92062 13.6663C9.92062 13.6663 15.81 13.6663 17.2932 13.2671C18.0892 13.0365 18.7041 12.4138 18.9277 11.6232L18.9316 11.6067C19.181 10.275 19.3237 8.74242 19.3237 7.17693C19.3237 7.11968 19.3237 7.06164 19.323 7.0036C19.3237 6.95027 19.3237 6.88674 19.3237 6.82321C19.3237 5.25694 19.181 3.72439 18.9073 2.23812ZM8.03591 9.86321V4.14321L12.9504 7.00752L8.03591 9.86321Z" fill="#285335"/>
</svg>
