<?xml version="1.0" encoding="UTF-8" standalone="no"?>
<!-- Created with Inkscape (http://www.inkscape.org/) -->

<svg
   version="1.1"
   id="svg1"
   width="349.92584"
   height="143.89256"
   viewBox="0 0 349.92584 143.89256"
   sodipodi:docname="apple-pay.svg"
   inkscape:version="1.4 (86a8ad7, 2024-10-11)"
   xmlns:inkscape="http://www.inkscape.org/namespaces/inkscape"
   xmlns:sodipodi="http://sodipodi.sourceforge.net/DTD/sodipodi-0.dtd"
   xmlns="http://www.w3.org/2000/svg"
   xmlns:svg="http://www.w3.org/2000/svg">
  <defs
     id="defs1" />
  <sodipodi:namedview
     id="namedview1"
     pagecolor="#ffffff"
     bordercolor="#000000"
     borderopacity="0.25"
     inkscape:showpageshadow="2"
     inkscape:pageopacity="0.0"
     inkscape:pagecheckerboard="0"
     inkscape:deskcolor="#d1d1d1"
     inkscape:zoom="0.63321429"
     inkscape:cx="242.41399"
     inkscape:cy="232.93852"
     inkscape:window-width="1920"
     inkscape:window-height="1001"
     inkscape:window-x="-9"
     inkscape:window-y="-9"
     inkscape:window-maximized="1"
     inkscape:current-layer="g1" />
  <g
     inkscape:groupmode="layer"
     inkscape:label="Image"
     id="g1"
     transform="translate(17.256038,-6.059479)">
    <path
       style="fill:#ffffff;stroke:none;fill-opacity:1"
       d="m 29.669793,33.059479 c 14.486553,-1.81633 22.617767,-12.84259 23,-27 -14.099495,3.2428 -22.792484,12.282654 -23,27 m 78.000007,-19 V 121.05948 h 16 l 7.9e-4,-24.99997 c 0.008,-3.156914 -0.5388,-7.625268 1.91759,-10.081658 3.9678,-3.967819 14.93337,-1.900665 20.08162,-1.920334 C 156.70825,84.015348 167.79503,80.993408 175,72 c 14.32855,-17.885223 7.41168,-47.304931 -14.3302,-55.369476 -15.74231,-5.839175 -36.46779,-2.571045 -53,-2.571045 m 16,14 c 8.13602,0 16.98349,-0.966934 25,0.571045 15.57494,2.988075 22.86295,22.705963 12.26476,35.121902 -5.17176,6.058785 -13.76555,7.187531 -21.26476,7.294144 -3.82814,0.05442 -11.87451,1.443749 -14.63904,-1.905464 -2.36281,-2.862534 -1.36067,-8.645966 -1.36096,-12.081627 v -29 m -47.000004,63 C 72.12423,88.047379 67.924485,84.734474 64.967805,80.057366 57.250237,67.849129 63.54773,54.239563 73.669793,46.059479 c -6.481667,-9.027054 -16.982933,-13.303764 -28,-11.14257 -4.927746,0.966667 -9.641159,3.684829 -14.667667,3.998023 -4.289143,0.267251 -8.261052,-2.009429 -12.332486,-2.996994 -6.173196,-1.497367 -13.242973,-1.102485 -18.99924,1.689614 -24.528218,11.897491 -18.312157,47.616379 -6.881134,66.451928 2.563354,4.22379 5.428847,8.41018 8.988744,11.86205 10.109844,9.80307 17.451647,2.03063 28.891783,1.38477 7.299973,-0.41213 13.682655,4.41101 21,3.83298 13.531723,-1.06892 21.114281,-19.07387 25.000003,-30.079801 m 114.000004,-25 c 3.98145,-1.5e-5 8.85495,0.719002 12.67075,-0.585861 4.11169,-1.406052 6.51452,-5.841362 10.34408,-7.880425 8.14577,-4.337234 19.92923,-1.016807 22.39606,8.469345 0.75488,2.902916 0.57971,6.024918 0.58911,8.996941 -8.53004,0.02361 -17.57428,0.425804 -26,1.767906 -4.46732,0.711586 -9.03435,1.63617 -12.99402,3.926102 -12.44885,7.199341 -14.64201,24.799843 -3.70236,34.519993 12.56085,11.1606 34.65298,7.09726 42.69638,-7.214 h 1 v 13 h 15 V 78.059479 c -3e-5,-8.662193 0.62927,-17.594818 -4.93329,-24.890251 C 233.18405,34.083321 193.86043,41.377983 190.6698,66.059479 m 69,-22 c 4.66385,17.590309 12.15652,34.917427 18.44214,52 2.74457,7.458921 7.28412,16.073451 8.11645,24.000001 1.24668,11.87227 -9.69558,16.92598 -19.55859,17 0.002,3.19449 -0.85083,8.3275 1.36096,10.97127 2.17606,2.60101 6.7023,1.93379 9.63922,1.5543 8.83539,-1.1416 15.56247,-4.89549 20.42743,-12.52768 5.74027,-9.00538 8.36374,-20.04753 12.01496,-29.99789 7.6817,-20.93432 14.5227,-42.197419 22.55743,-63.000001 L 316.59821,45.420441 310.11237,62.059479 296.6698,106.05948 282.30841,62.059479 275.74893,45.420441 259.6698,44.059479 m -23,42 c -0.005,4.342392 0.33604,8.99588 -1.69629,12.985016 -4.72671,9.277775 -20.62639,14.268345 -28.81224,6.384635 -6.37367,-6.138404 -1.7607,-14.687583 5.51468,-17.075065 3.2428,-1.064148 6.62376,-1.150589 9.99385,-1.376282 5.02884,-0.336761 9.9485,-0.904327 15,-0.918304 z"
       id="path1" />
  </g>
</svg>
