<?xml version="1.0" encoding="UTF-8" standalone="no"?>
<!-- Created with Inkscape (http://www.inkscape.org/) -->

<svg
   version="1.1"
   id="svg1"
   width="1882.3387"
   height="510.90668"
   viewBox="0 0 1882.3387 510.90668"
   sodipodi:docname="ethereum.svg"
   inkscape:version="1.4 (86a8ad7, 2024-10-11)"
   xmlns:inkscape="http://www.inkscape.org/namespaces/inkscape"
   xmlns:sodipodi="http://sodipodi.sourceforge.net/DTD/sodipodi-0.dtd"
   xmlns="http://www.w3.org/2000/svg"
   xmlns:svg="http://www.w3.org/2000/svg">
  <defs
     id="defs1" />
  <sodipodi:namedview
     id="namedview1"
     pagecolor="#000000"
     bordercolor="#000000"
     borderopacity="0.25"
     inkscape:showpageshadow="2"
     inkscape:pageopacity="0.0"
     inkscape:pagecheckerboard="0"
     inkscape:deskcolor="#d1d1d1"
     inkscape:zoom="0.27034405"
     inkscape:cx="567.795"
     inkscape:cy="715.75461"
     inkscape:window-width="1920"
     inkscape:window-height="1001"
     inkscape:window-x="-9"
     inkscape:window-y="-9"
     inkscape:window-maximized="1"
     inkscape:current-layer="g1" />
  <g
     inkscape:groupmode="layer"
     inkscape:label="Image"
     id="g1"
     transform="translate(-0.58330252,-0.67968036)">
    <path
       id="path2"
       style="fill:#ffffff;fill-opacity:1"
       d="M 256.08789,0.6796875 C 244.60145,0.67772939 233.1684,1.0782497 227,1.8847656 178.11105,8.2769773 139.19996,24.051997 100,53.373047 87.781421,62.512382 62.511016,87.784333 53.375,100 25.041613,137.88426 9.0354551,176.33503 2.3828125,222.5 c -2.57991638,17.90293 -2.35319393,51.51409 0.4707031,70 6.9499341,45.49594 22.9463504,83.1149 51.4550784,120.99805 8.227387,10.93276 35.08787,37.46406 46.779296,46.20703 38.70906,28.94701 82.78238,46.17746 131.23633,51.30469 11.83856,1.25272 47.36136,0.33868 59.67578,-1.53516 C 365.59326,498.27619 428.33054,458.52823 469.52734,397 478.16905,384.09342 492.26095,356.13782 497,342.5 520.4984,274.87738 515.92521,203.51898 484.05273,140.5 445.3579,63.991722 372.1157,12.862917 285.5,1.8945312 279.11417,1.0858752 267.57433,0.68164561 256.08789,0.6796875 Z m 0.94531,47.4882815 c 0.23028,-0.111634 0.39834,-0.09211 0.51953,0.03711 1.68308,1.794577 126.6384,210.936181 126.25586,211.318361 -0.17008,0.16991 -27.53359,16.59995 -60.80859,36.50976 -33.275,19.90982 -61.85316,37.01594 -63.50586,38.01368 l -3.00391,1.8125 -64.10937,-38.08399 -64.10938,-38.08398 45.53321,-75.59571 C 198.84723,142.51822 227.66206,94.642156 237.83789,77.705078 250.76452,56.189463 255.42126,48.949406 257.0332,48.167969 Z M 382.43945,286.13281 C 382.72952,286.44634 258.38834,464.04758 257,465.30273 c -0.275,0.24862 -28.91256,-39.65588 -63.63867,-88.67578 -34.72612,-49.0199 -63.00351,-89.27586 -62.83789,-89.45703 0.16561,-0.18116 27.61326,15.71348 60.99414,35.32031 33.38088,19.60684 61.72831,36.12052 62.99414,36.69727 2.04368,0.93116 9.31935,-3.12227 64.94531,-36.18555 34.45394,-20.47893 62.79598,-37.07066 62.98242,-36.86914 z" />
    <path
       d="m 793.64178,344.453 h -142.08 v -179.2 h 142.08 v 35.84 h -96 v 34.56 h 75.52 v 35.84 h -75.52 v 37.12 h 96 z m 112.64006,0 q -24.832,2.56 -48.64,2.56 -17.408,0 -27.904,-10.496 -10.496,-10.496 -10.496,-27.904 v -65.28 h -15.36 v -34.56 h 15.36 l 5.12,-30.72 h 39.68 v 30.72 h 32 v 34.56 h -32 v 58.88 q 0,3.84 2.56,6.4 2.56,2.56 6.4,2.56 h 33.28 z m 62.72014,-133.12 q 24.832,-5.12 43.52002,-5.12 h 11.52 q 17.408,0 27.904,10.496 10.496,10.496 10.496,27.904 v 99.84 h -44.8 v -94.72 q 0,-3.84 -2.56,-6.4 -2.56,-2.56 -6.4,-2.56 h -8.96002 q -9.728,0 -17.92,1.024 -7.936,1.024 -12.8,1.536 v 101.12 h -44.8 v -179.2 h 44.8 z m 168.95982,26.88 q -10.24,0 -10.24,10.24 v 14.08 h 43.52 v -14.08 q 0,-10.24 -10.24,-10.24 z m 72.96,103.68 q -49.408,5.12 -89.6,5.12 -17.408,0 -27.904,-10.496 -10.496,-10.496 -10.496,-27.904 v -61.44 q 0,-19.2 10.752,-29.952 11.008,-11.008 30.208,-11.008 h 51.2 q 19.2,0 29.952,11.008 11.008,10.752 11.008,29.952 v 47.36 h -88.32 v 10.24 q 0,3.84 2.56,6.4 2.56,2.56 6.4,2.56 25.344,0 74.24,-3.84 z m 106.2401,-96 q -16.128,0 -33.28,7.68 v 90.88 h -44.8 v -135.68 h 39.68 l 2.56,16.64 q 22.016,-19.2 46.08,-19.2 h 11.52 v 39.68 z m 87.0396,-7.68 q -10.24,0 -10.24,10.24 v 14.08 h 43.52 v -14.08 q 0,-10.24 -10.24,-10.24 z m 72.96,103.68 q -49.408,5.12 -89.6,5.12 -17.408,0 -27.904,-10.496 -10.496,-10.496 -10.496,-27.904 v -61.44 q 0,-19.2 10.752,-29.952 11.008,-11.008 30.208,-11.008 h 51.2 q 19.2,0 29.952,11.008 11.008,10.752 11.008,29.952 v 47.36 h -88.32 v 10.24 q 0,3.84 2.56,6.4 2.56,2.56 6.4,2.56 25.344,0 74.24,-3.84 z m 90.8801,-32 q 13.568,0 30.72,-5.12 v -96 h 44.8 v 135.68 h -39.68 l -2.56,-12.8 q -12.032,7.936 -24.832,11.776 -12.544,3.584 -21.248,3.584 h -11.52 q -17.408,0 -27.904,-10.496 -10.496,-10.496 -10.496,-27.904 v -99.84 h 44.8 v 92.16 q 0,3.84 2.56,6.4 2.56,2.56 6.4,2.56 z m 191.9999,-103.68 q 20.736,0 32,15.36 11.776,-7.936 25.344,-11.52 13.824,-3.84 24.576,-3.84 h 2.56 q 17.408,0 27.904,10.496 10.496,10.496 10.496,27.904 v 99.84 h -44.8 v -92.16 q 0,-3.84 -2.56,-6.4 -2.56,-2.56 -6.4,-2.56 h -1.28 q -11.52,0 -29.44,5.12 v 96 h -44.8 v -92.16 q 0,-3.84 -2.56,-6.4 -2.56,-2.56 -6.4,-2.56 h -1.28 q -11.52,0 -29.44,5.12 v 96 h -44.8 v -135.68 h 39.68 l 2.56,12.8 q 12.032,-7.936 24.576,-11.52 12.8,-3.84 21.504,-3.84 z"
       id="text2"
       style="font-size:256px;font-family:'Russo One';-inkscape-font-specification:'Russo One, Normal';fill:#ffffff;stroke:#285335;stroke-width:0.001"
       aria-label="Ethereum" />
  </g>
</svg>
