<?xml version="1.0" encoding="UTF-8" standalone="no"?>
<!-- Generator: Adobe Illustrator 23.0.1, SVG Export Plug-In . SVG Version: 6.00 Build 0)  -->

<svg
   version="1.1"
   id="svg3409"
   inkscape:version="1.4 (86a8ad7, 2024-10-11)"
   sodipodi:docname="mastercard.svg"
   x="0px"
   y="0px"
   width="999.20001"
   height="618"
   viewBox="0 0 999.2 618"
   enable-background="new 0 0 999.2 776"
   xml:space="preserve"
   xmlns:inkscape="http://www.inkscape.org/namespaces/inkscape"
   xmlns:sodipodi="http://sodipodi.sourceforge.net/DTD/sodipodi-0.dtd"
   xmlns="http://www.w3.org/2000/svg"
   xmlns:svg="http://www.w3.org/2000/svg"><defs
   id="defs1"><clipPath
     clipPathUnits="userSpaceOnUse"
     id="clipPath1"><rect
       style="fill:#d81010;stroke:#285335;stroke-width:0.001"
       id="rect2"
       width="999.20001"
       height="636.26056"
       x="0"
       y="0"
       rx="4" /></clipPath></defs><sodipodi:namedview
   id="namedview1"
   pagecolor="#ffffff"
   bordercolor="#000000"
   borderopacity="0.25"
   inkscape:showpageshadow="2"
   inkscape:pageopacity="0.0"
   inkscape:pagecheckerboard="0"
   inkscape:deskcolor="#d1d1d1"
   inkscape:zoom="0.50451031"
   inkscape:cx="67.392082"
   inkscape:cy="355.79055"
   inkscape:window-width="1920"
   inkscape:window-height="1001"
   inkscape:window-x="-9"
   inkscape:window-y="-9"
   inkscape:window-maximized="1"
   inkscape:current-layer="svg3409" />

<g
   id="g1"
   clip-path="url(#clipPath1)">
	<rect
   id="rect19"
   x="364"
   y="66.099998"
   fill="#ff5a00"
   width="270.39999"
   height="485.79999" />
	<path
   id="XMLID_330_"
   inkscape:connector-curvature="0"
   fill="#eb001b"
   d="M 382,309 C 382,210.3 428.4,122.7 499.6,66.1 447.2,24.9 381.1,0 309,0 138.2,0 0,138.2 0,309 0,479.8 138.2,618 309,618 381.1,618 447.2,593.1 499.6,551.9 428.3,496.1 382,407.7 382,309 Z" />
	<path
   id="path22"
   inkscape:connector-curvature="0"
   fill="#f79e1b"
   d="M 999.2,309 C 999.2,479.8 861,618 690.2,618 618.1,618 552,593.1 499.6,551.9 571.7,495.2 617.2,407.7 617.2,309 617.2,210.3 570.8,122.7 499.6,66.1 551.9,24.9 618,0 690.1,0 861,0 999.2,139.1 999.2,309 Z" />
</g>
</svg>
