<?xml version="1.0" encoding="UTF-8" standalone="no"?>
<!-- Uploaded to: SVG Repo, www.svgrepo.com, Generator: SVG Repo Mixer Tools -->

<svg
   fill="#000000"
   width="666.76666"
   height="204.33659"
   viewBox="0 0 20.003 6.1300978"
   version="1.1"
   id="svg1"
   sodipodi:docname="visa.svg"
   inkscape:version="1.4 (86a8ad7, 2024-10-11)"
   xmlns:inkscape="http://www.inkscape.org/namespaces/inkscape"
   xmlns:sodipodi="http://sodipodi.sourceforge.net/DTD/sodipodi-0.dtd"
   xmlns="http://www.w3.org/2000/svg"
   xmlns:svg="http://www.w3.org/2000/svg">
  <defs
     id="defs1" />
  <sodipodi:namedview
     id="namedview1"
     pagecolor="#000000"
     bordercolor="#000000"
     borderopacity="0.25"
     inkscape:showpageshadow="2"
     inkscape:pageopacity="0.0"
     inkscape:pagecheckerboard="0"
     inkscape:deskcolor="#d1d1d1"
     inkscape:zoom="0.97875"
     inkscape:cx="333.07791"
     inkscape:cy="101.66028"
     inkscape:window-width="1920"
     inkscape:window-height="1001"
     inkscape:window-x="-9"
     inkscape:window-y="-9"
     inkscape:window-maximized="1"
     inkscape:current-layer="svg1" />
  <path
     d="M 14.541,0.25109759 A 4.155,4.155 0 0 0 13.09,9.7588847e-5 c -1.6,0 -2.73,0.806000001153 -2.738,1.963000011153 -0.01,0.85 0.803,1.329 1.418,1.613 0.631,0.292 0.842,0.476 0.84,0.737 -0.004,0.397 -0.504,0.577 -0.969,0.577 -0.639,0 -0.988,-0.089 -1.525,-0.312 l -0.199,-0.093 -0.227,1.332 c 0.389,0.162 1.09,0.301 1.814,0.313 1.701,0 2.813,-0.801 2.826,-2.032 0.014,-0.679 -0.426,-1.192 -1.352,-1.616 -0.563,-0.275 -0.912,-0.459 -0.912,-0.738 0,-0.247 0.299,-0.511 0.924,-0.511 a 2.95,2.95 0 0 1 1.213,0.229 l 0.15,0.067 0.227,-1.28700001 z m 4.152,-0.143 h -1.25 c -0.389,0 -0.682,0.107 -0.852,0.493 L 14.187,6.0470976 h 1.701 l 0.34,-0.893 2.076,0.002 c 0.049,0.209 0.199,0.891 0.199,0.891 h 1.5 z m -10.642,-0.05 H 9.672 L 8.658,6.0000976 H 7.039 L 8.051,0.05609759 Z m -4.115,3.27500001 0.168,0.825 1.584,-4.05000001 H 7.405 L 4.854,6.0390976 H 3.141 l -1.4,-5.022 A 0.339,0.339 0 0 0 1.592,0.81809759 6.948,6.948 0 0 0 0,0.22909759 l 0.022,-0.125 h 2.609 c 0.354,0.014 0.639,0.125 0.734,0.503 l 0.57,2.72900001 v -0.003 z m 12.757,0.606 0.646,-1.662 c -0.008,0.018 0.133,-0.343 0.215,-0.566 l 0.111,0.513 0.375,1.714 h -1.348 v 0.001 z"
     id="path1"
     style="fill:#ffffff;fill-opacity:1" />
</svg>
