<svg width="2754" height="3444" viewBox="0 0 2754 3444" fill="none" xmlns="http://www.w3.org/2000/svg">
<path d="M14.3257 3444C13.9074 3184.39 -20.829 2923.37 23.5585 2664.82C41.8913 2558.04 74.0487 2450.07 139.653 2355.12C185.473 2288.81 254.685 2233.78 285.744 2160.89C302.842 2120.76 301.892 2080.6 284.898 2040.65C266.388 1997.12 238.675 1956.47 219.687 1913.04C190.02 1845.16 178.258 1773.96 178.09 1702.21C177.795 1574.24 176.835 1446.26 175.644 1318.29C172.519 983.001 167.775 647.714 166.17 312.415C166.013 279.582 165.905 246.744 165.89 213.911M37.5604 3442.17C32.9489 3182.95 6.79571 2921.64 53.2552 2663.78C72.4788 2557.08 104.41 2449.39 167.401 2353.42C211.212 2286.67 279.11 2230.88 308.718 2158.11C325.156 2117.71 323.483 2077.43 306.203 2037.48C287.433 1994.09 259.842 1953.51 241.106 1910.05C211.744 1841.92 202.28 1771.59 201.773 1699.82C200.867 1571.55 198.849 1443.28 198.18 1315.01C196.438 980.851 196.935 646.673 193.081 312.526C192.697 279.4 192.245 246.275 191.674 213.149M59.3432 3437C51.4687 3178.58 34.6714 2917.38 83.5424 2660.73C103.908 2553.79 135.923 2446.04 196.6 2348.81C238.611 2281.5 305.293 2224.66 333.242 2151.71C348.898 2110.85 346.26 2070.36 328.419 2030.33C309.25 1987.31 281.753 1947.05 263.095 1903.82C233.374 1834.95 225.697 1764.72 224.855 1692.3C223.374 1564.75 221.07 1437.26 221.233 1309.7C221.661 976.866 227.98 643.966 222.911 311.149C222.404 277.763 221.705 244.377 220.701 210.999M79.7775 3428.73C69.457 3170.13 62.5225 2907.98 115.144 2651.77C137.138 2544.69 169.852 2437.07 228.768 2338.88C269.203 2271.48 334.182 2213.76 359.651 2140.7C373.978 2099.6 369.893 2059.18 351.462 2019.46C331.48 1976.39 303.575 1936.06 284.736 1892.58C271.984 1863.15 262.539 1832.85 256.456 1802.07C248.464 1761.66 248.08 1721.53 247.396 1680.75C245.265 1554.17 243.439 1427.74 244.718 1301.12C248.055 970.218 260.753 639.18 255.428 308.257C254.886 274.69 254.05 241.126 252.721 207.571M98.9715 3417.61C86.9728 3158.67 90.5753 2895.49 147.547 2639.73C171.284 2533.16 204.726 2426.33 261.437 2327.7C273.529 2306.67 286.335 2285.5 301.523 2265.77C315.087 2248.15 329.536 2231.08 342.131 2212.97C360.911 2185.96 377.541 2157.53 387.065 2127.46C400.284 2085.71 394.668 2044.97 375.272 2005.16C354.248 1962.01 325.727 1921.59 306.518 1877.79C293.806 1848.8 284.391 1818.94 278.357 1788.6C270.335 1748.28 270.148 1708.34 269.528 1667.66C268.647 1610.14 266.181 1552.68 266.157 1495.14C266.127 1425.5 267.19 1355.86 268.676 1286.22C275.645 958.891 295.14 631.388 290.425 303.961C289.938 270.283 289.047 236.613 287.501 202.955M117.034 3403.88C110.498 3273.13 112.363 3142.06 122.29 3011.45C132.069 2882.77 149.57 2754.16 180.054 2627.52C205.981 2519.8 240.875 2412.16 296.724 2311.71C308.448 2290.62 320.712 2269.32 335.359 2249.41C348.401 2231.68 362.334 2214.5 374.318 2196.26C392.006 2169.34 407.4 2140.99 415.762 2111.21C427.687 2068.72 420.31 2027.64 399.777 1987.73C377.507 1944.46 348.165 1903.9 328.409 1859.72C315.431 1830.68 305.869 1800.73 299.776 1770.28C291.68 1729.81 291.857 1689.8 291.084 1648.99C290.011 1592.35 287.841 1535.82 288.23 1479.15C288.712 1408.97 290.607 1338.78 293.048 1268.62C298.683 1106.45 307.257 944.356 314.624 782.232C321.947 621.059 329.33 459.693 327.666 298.386C327.317 264.668 326.455 230.955 324.787 197.261M134.067 3387.78C127.408 3257.61 132.453 3127.03 145.638 2997.22C158.778 2867.87 180.182 2738.82 213.393 2611.75C241.5 2504.21 277.644 2396.98 331.864 2295.85C343.273 2274.57 355.02 2253.03 369.081 2232.76C381.597 2214.73 395.18 2197.29 406.672 2178.79C423.676 2151.4 438.239 2122.62 445.567 2092.49C456.119 2049.11 446.802 2007.58 424.926 1967.49C401.391 1924.37 371.286 1883.92 350.847 1839.65C337.445 1810.63 327.563 1780.61 321.273 1750.07C312.931 1709.56 313.039 1669.54 312.331 1628.66C311.346 1572.09 309.343 1515.68 310.273 1459.09C311.405 1390.45 314.181 1321.84 317.602 1253.26C325.609 1092.81 337.189 932.488 347.333 772.12C357.451 612.19 367.605 451.983 366.96 291.801C366.822 258.052 366.069 224.307 364.356 190.586M150.18 3369.57C143.64 3238.92 152.233 3107.8 169.128 2977.84C186.019 2847.88 211.695 2718.47 248.021 2591.07C278.584 2483.88 316.347 2377.29 369.298 2275.71C380.47 2254.28 391.858 2232.58 405.422 2212.04C417.431 2193.84 430.364 2176.17 441.202 2157.47C457.28 2129.72 470.687 2100.56 476.656 2070.23C485.313 2026.26 473.792 1984.62 450.641 1944.69C425.487 1901.33 394.171 1860.62 372.861 1815.78C358.997 1786.61 348.809 1756.39 342.318 1725.61C333.715 1684.83 334.025 1644.53 333.08 1603.36C330.235 1479.47 334.256 1356.13 342.598 1232.38C353.293 1073.69 368.161 915.208 381.331 756.646C394.388 599.407 407.41 441.808 408.094 284.163C408.242 250.441 407.661 216.72 405.983 183.022M165.476 3349.48C159.315 3218.28 171.737 3086.6 192.555 2956.5C213.309 2826.81 243.203 2697.94 282.432 2571.02C315.732 2463.29 355.483 2356.34 407.804 2253.49C418.784 2231.91 429.818 2210.05 442.855 2189.2C454.342 2170.82 466.681 2152.95 476.824 2134.04C491.731 2106.24 503.764 2077.07 508.43 2046.94C515.394 2001.95 501.614 1959.82 476.853 1919.67C449.942 1876.03 417.268 1835.04 394.939 1789.58C380.78 1760.75 370.302 1730.83 363.564 1700.32C354.548 1659.49 354.435 1619.11 353.613 1577.84C351.162 1454.77 357.2 1332.37 367.875 1209.57C381.503 1052.81 399.89 896.353 416.313 739.772C432.505 585.409 448.564 430.592 450.828 275.617C451.32 241.97 450.981 208.324 449.401 174.698M180.064 3327.76C174.552 3196.92 190.798 3065.67 215.376 2936.45C240.191 2806 274.627 2676.67 317.247 2549.22C353.45 2440.96 395.402 2333.62 447.255 2229.47C457.787 2208.31 468.28 2186.96 480.387 2166.35C491.347 2147.68 503.12 2129.48 512.633 2110.27C526.851 2081.58 537.94 2051.5 541.178 2020.63C551.454 1922.68 461.478 1847.86 417.686 1762.49C402.636 1733.15 391.509 1702.6 384.372 1671.4C375.149 1631.05 374.519 1591.04 373.865 1550.2C371.906 1428.06 380.233 1306.73 393.428 1185.04C410.068 1031.56 431.983 878.472 451.743 725.229C471.41 572.724 490.909 419.643 494.989 266.258C495.88 232.734 495.836 199.202 494.413 165.686M194.056 3304.66C189.341 3173.11 209.859 3041.25 238.66 2911.98C267.668 2781.77 306.573 2652.98 352.407 2525.95C391.661 2417.15 435.99 2309.38 487.509 2203.9C507.278 2163.42 531.64 2124.29 550.032 2083.44C562.995 2054.65 572.612 2024.54 574.467 1993.86C580.506 1893.99 486.003 1819.15 439.907 1732.51C424.473 1703.5 412.927 1673.22 405.442 1642.26C395.505 1601.14 394.545 1560.27 393.792 1518.56C391.627 1398.31 403.438 1278.61 419.197 1159.08C438.987 1008.95 464.544 859.353 487.774 709.55C511.265 558.063 534.598 405.842 540.455 253.132C541.695 220.796 541.936 188.443 540.76 156.099M207.546 3280.42C203.815 3148.89 228.507 3017.26 261.314 2888.74C294.79 2757.59 338.602 2628.17 388.236 2500.4C430.443 2391.74 477.026 2284.14 528.008 2177.92C560.977 2109.24 607.58 2040.24 608.367 1964.89C609.425 1863.4 510.492 1788.71 462.049 1700.9C424.719 1633.24 414.295 1562.37 413.631 1489.02C412.553 1369.81 426.412 1251.48 444.942 1133.28C468.147 985.254 497.745 837.929 524.75 690.328C551.897 541.942 578.813 392.688 586.806 242.7C588.523 210.498 589.134 178.276 588.194 146.054M220.652 3255.28C218.014 3122.9 247.332 2990.66 284.534 2862.15C322.425 2731.25 370.838 2602.37 423.897 2474.96C469.348 2365.81 518.559 2257.7 569.438 2150.11C601.974 2081.31 645.313 2011.18 642.7 1935.81C639.127 1832.68 536.291 1758.4 485.008 1669.55C446.118 1602.17 433.775 1530.62 433.293 1456.94C432.525 1338.96 449.598 1221.77 471.016 1105.19C497.785 959.51 531.527 814.734 562.4 669.603C593.238 524.65 623.732 378.666 633.939 231.665C636.159 199.676 637.173 167.655 636.504 135.623M233.473 3229.49C232.036 3097.01 265.748 2965.01 307.001 2837.31C349.597 2705.46 403.104 2575.98 460.169 2447.75C508.656 2338.79 560.293 2230.78 610.838 2122.44C643.281 2052.89 683.755 1981.05 677.323 1905.05C668.454 1800.26 561.179 1726.25 507.195 1636C467.148 1569.06 453.092 1496.97 452.802 1423.22C452.339 1306.23 473.069 1189.85 497.568 1074.76C527.649 933.447 565.038 793.224 599.459 652.579C634.397 509.803 669.006 365.816 681.624 220.456C684.385 188.656 685.827 156.801 685.448 124.923M246.116 3203.3C245.939 3069.84 284.534 2937.22 330.221 2809.61C377.335 2678.02 435.468 2549.11 496.057 2421.18C547.862 2311.8 602.319 2203.21 652.868 2093.44C685.04 2023.59 722.006 1950.79 712.212 1874.76C698.5 1768.34 587.357 1694.76 530.242 1603.35C488.193 1536.04 472.198 1462.43 472.227 1387.58C472.276 1273.65 496.151 1160.04 523.16 1048.52C557.04 908.642 599.021 770.124 637.69 631.072C676.403 491.863 714.687 351.265 729.634 208.888C732.946 177.337 734.826 145.719 734.758 114.053M258.691 3176.95C259.808 3043.29 302.881 2910.93 352.555 2784.2C404.502 2651.67 467.803 2522.16 532.506 2393.36C587.323 2284.24 644.29 2175.7 694.598 2065.16C726.829 1994.34 760.67 1919.98 747.071 1843.34C737.907 1791.67 705.962 1746.89 668.272 1705.27C627.92 1660.72 584.153 1618.22 552.424 1569.08C509.301 1502.31 491.264 1428.01 491.662 1353.13C492.263 1240.21 519.74 1127.43 549.889 1017.56C587.377 880.942 633.393 745.943 675.876 610.296C718.713 473.529 761.122 335.094 778.146 194.441C781.822 164.081 784.007 133.634 784.244 103.128M271.305 3150.68C273.716 3015.94 321.824 2882.99 375.858 2756.42C432.313 2624.18 500.152 2495.27 568.38 2366.72C626.488 2257.24 686.364 2148.08 736.677 2036.09C768.716 1964.78 798.885 1889.61 782.068 1813C770.488 1760.23 735.929 1714.9 696.138 1672.82C653.7 1627.93 608.013 1585.04 574.704 1535.12C530.646 1469.09 510.413 1394.28 511.097 1319.57C512.106 1208.88 542.591 1098.15 575.348 991.16C616.409 857.06 666.683 724.914 713.221 592.001C760.207 457.807 806.804 321.711 826.259 182.857C830.477 152.746 833.095 122.528 833.636 92.2273M284.061 3124.75C287.743 2988.88 340.935 2855.35 399.275 2728.97C460.164 2597.06 532.437 2468.74 604.13 2340.44C665.487 2230.64 728.301 2120.84 778.569 2007.37C810.589 1935.09 837.146 1858.69 816.613 1781.76C787.01 1670.85 664.148 1598.52 597.815 1502.81C552.325 1437.18 529.706 1361.48 530.582 1286.44C531.857 1177 565.904 1067.21 601.58 962.248C645.997 831.577 700.105 703.182 750.324 573.912C801.445 442.317 852.24 308.553 874.092 171.439C878.851 141.576 881.887 111.575 882.724 81.4761M297.069 3099.39C301.932 2963.24 359.583 2830.01 421.584 2704.6C487.73 2570.81 565.702 2441.03 641.996 2310.85C705.583 2202.35 770.217 2093.45 819.723 1980.19C851.669 1907.1 874.766 1829.82 851.305 1752.75C816.903 1639.74 689.484 1567.51 619.888 1469.76C573.537 1404.66 548.934 1328.29 550.18 1253.26C551.011 1203.19 561.071 1152.83 573.34 1103.85C587.603 1046.91 606.482 990.746 627.286 935.14C675.364 806.622 733.778 680.784 788.024 553.905C842.84 425.687 897.326 295.04 921.378 160.419C926.678 130.746 930.133 100.911 931.241 70.9457M310.431 3074.85C316.332 2938.87 377.994 2806.35 443.21 2682.31C513.849 2547.96 596.59 2417.97 676.732 2287.17C743.341 2178.46 810.776 2068.96 860.238 1954.31C878.708 1911.5 893.807 1868.82 897.208 1823.41C899.738 1789.6 896.44 1755.48 885.013 1722.8C845.335 1609.39 715.672 1537.83 643.138 1439.43C595.143 1374.32 568.079 1296.44 569.954 1220.59C571.185 1170.9 582.199 1120.93 595.561 1072.53C611.059 1016.38 631.405 961.136 653.788 906.524C705.469 780.417 767.998 657.396 826.047 533.14C884.215 408.624 942.009 281.377 968 149.542C973.797 120.133 977.626 90.5347 978.98 60.7786M324.256 3051.37C331.116 2914.23 397.734 2781.16 466.828 2657.4C541.611 2523.45 628.442 2394.1 711.799 2263.53C781.325 2154.62 851.625 2044.43 900.707 1928.31C919.025 1884.97 932.904 1842.02 934.617 1796.08C935.882 1762.19 931.226 1728.15 918.735 1695.7C874.441 1580.59 740.865 1509.17 665.26 1408.95C616.488 1344.3 588.267 1266.48 589.842 1190.65C590.866 1141.38 603.17 1091.51 617.462 1043.76C634.058 988.316 655.801 933.909 679.695 880.224C734.428 757.258 800.441 637.768 861.837 516.909C923.844 394.854 985.604 269.75 1013.65 139.308C1019.93 110.096 1024.11 80.6592 1025.68 51.0373M338.646 3029.2C346.285 2890.91 417.819 2757.29 490.614 2633.85C569.935 2499.35 661.392 2369.76 748.38 2238.43C820.009 2130.28 892.277 2020.32 940.4 1903.75C958.521 1859.86 971.12 1816.62 971.204 1770.19C971.263 1736.27 965.323 1702.33 951.872 1670.11C903.153 1553.42 765.872 1482.07 687.304 1380.1C637.936 1316.03 608.397 1238.07 609.996 1162.41C611.03 1113.44 624.18 1063.76 639.368 1016.53C656.997 961.712 680.079 908.094 705.425 855.297C763.027 735.322 832.327 619.236 896.893 501.636C962.596 381.965 1028.23 258.9 1058.16 129.705C1064.89 100.655 1069.38 71.3523 1071.11 41.8369M353.716 3008.59C357.604 2942.51 378.157 2877.93 405.038 2815.63C435.128 2745.91 473.305 2678.54 514.208 2612.52C597.146 2478.66 692.142 2349.91 781.916 2218.99C856.133 2110.76 931.039 2000.16 978.66 1882.23C988.183 1858.65 997.692 1834.26 1002.62 1809.74C1006.73 1789.3 1007.43 1767.97 1006.84 1747.29C1005.84 1712.34 998.533 1677.54 983.527 1644.65C930.271 1527.93 791.414 1457.18 710.43 1354.7C659.64 1290.42 628.368 1211.38 630.411 1134.83C631.69 1086.9 645.225 1038.26 660.915 992.21C679.361 938.087 703.589 885.305 730.2 833.455C790.716 715.555 863.579 602.054 931.497 486.857C1000.61 369.639 1069.81 248.662 1101.34 120.74C1108.46 91.8641 1113.2 62.696 1115.04 33.2949M369.568 2989.77C373.594 2923.31 395.338 2858.5 423.558 2796.21C454.815 2727.21 494.246 2660.71 536.325 2595.59C623.23 2461.09 722.518 2332.06 815.688 2200.36C892.311 2092.05 969.762 1980.72 1016.42 1861.38C1025.69 1837.67 1035.03 1812.92 1039.17 1788.23C1042.63 1767.54 1042.63 1745.99 1041.39 1725.17C1039.29 1690.24 1030.88 1655.57 1015.07 1622.93C957.866 1504.86 815.84 1434.18 732.321 1330.04C681.127 1266.2 649.191 1187.34 651.145 1110.95C652.39 1062.35 666.825 1013.03 683.696 966.581C702.876 913.768 727.936 862.402 755.438 812.051C818.906 695.852 895.348 584.576 966.504 471.371C1038.3 357.152 1110.24 238.81 1142.95 112.783C1150.42 83.9852 1155.35 54.8644 1157.25 25.487M386.312 2973C390.328 2906.29 413.07 2841.34 442.466 2779.16C475.21 2709.92 516.359 2643.35 560.185 2578.24C650.894 2443.47 754.045 2314.42 850.178 2182.16C928.244 2074.75 1007.18 1963.7 1052.48 1844.13C1061.56 1820.18 1070.27 1795.26 1073.98 1770.34C1077.09 1749.39 1076.56 1727.62 1074.76 1706.6C1071.68 1670.66 1062 1635.17 1044.77 1601.85C983.582 1483.59 839.675 1413.2 754.272 1308.14C702.384 1244.31 669.97 1165.07 672.244 1088.35C673.661 1040.6 688.096 992.237 705.282 946.751C725.042 894.451 751.023 843.745 779.578 794.171C845.522 679.688 925.108 570.681 999.202 459.567C1073.95 347.47 1149.03 230.825 1182.79 105.685C1190.54 76.9587 1195.6 47.8769 1197.47 18.5232M404.044 2958.52C407.883 2891.69 431.447 2826.73 461.793 2764.76C495.772 2695.38 538.461 2628.88 583.799 2563.89C677.869 2429.03 784.49 2300.16 883.246 2167.54C963 2060.44 1043.84 1948.97 1087.59 1828.45C1096.33 1804.36 1104.46 1779.26 1107.51 1754.22C1110.08 1733.06 1109.06 1711.18 1106.73 1690.03C1102.73 1653.71 1092.03 1617.97 1073.88 1584.51C1009.42 1465.67 863.501 1395.46 776.291 1289.34C723.837 1225.51 691.536 1146.45 693.727 1069.52C695.085 1021.85 709.633 973.643 727.356 928.381C747.647 876.547 774.47 826.46 803.984 777.608C872.138 664.802 954.544 558.004 1031.2 448.894C1108.51 338.869 1186.29 223.873 1220.69 99.5894C1228.63 70.9143 1233.71 41.8564 1235.49 12.5185M422.884 2946.57C426.314 2880.65 449.908 2816.66 480.343 2755.73C515.68 2685 560.549 2617.46 608.033 2551.55C705.341 2416.49 815.318 2287.66 916.511 2154.51C997.657 2047.73 1080.22 1935.71 1121.7 1814.2C1137.24 1768.71 1143.41 1723.89 1137.27 1676.9C1132.54 1640.68 1121.25 1605.11 1102.74 1571.83C1035.85 1451.51 887.099 1381.16 798.004 1273.48C745.457 1209.98 714.053 1131.95 715.578 1055.33C716.543 1006.85 731.347 957.81 749.896 911.933C770.749 860.363 798.388 810.694 828.867 762.359C899.206 650.815 984.384 545.824 1063.41 438.226C1142.41 330.667 1221.86 217.738 1256.36 94.8707C1264.42 66.1365 1269.47 36.9919 1271.06 7.56323M442.924 2937.4C445.808 2871.44 469.88 2807.46 500.944 2746.75C537.192 2675.91 583.316 2608.47 632.025 2542.72C732.08 2407.65 844.946 2279.06 948.181 2145.59C1030.47 2039.21 1114.51 1926.72 1153.72 1804.39C1168.38 1758.66 1173.11 1713.24 1166.07 1666.31C1160.6 1629.8 1148.53 1594.04 1129.31 1560.61C1059.99 1440.02 909.911 1369.85 819.768 1261.32C766.851 1197.61 736.702 1120.22 737.981 1043.4C739.684 940.999 794.387 840.545 852.496 751.383C924.41 641.038 1011.83 537.796 1092.82 431.736C1173.77 325.715 1255.27 213.872 1289.64 91.3831C1297.73 62.5502 1302.63 33.2948 1303.94 3.75963M464.284 2931.26C466.41 2865.29 490.776 2801.34 522.304 2740.84C559.265 2669.92 606.467 2602.59 656.224 2537.01C758.671 2401.99 874.106 2273.67 979.039 2139.92C1062.17 2033.95 1147.46 1920.97 1183.98 1797.92C1208.18 1716.38 1199.34 1628.97 1154.41 1552.87C1083.14 1432.16 932.127 1362.18 841.393 1252.94C788.225 1188.92 759.971 1112.41 760.92 1035.4C762.19 932.508 816.111 832.714 875.686 743.575C948.811 634.166 1038.14 532.398 1120.74 427.597C1203.33 322.807 1286.49 211.733 1320.31 89.3788C1328.34 60.3644 1332.97 30.9197 1333.91 1.21092M487.066 2928.39C488.222 2861.47 513.376 2796.57 545.957 2735.49C583.144 2665.77 630.381 2599.68 680.173 2535.33C784.455 2400.54 901.923 2272.69 1008.12 2138.9C1054.42 2080.56 1098.86 2021.06 1136.89 1958.96C1168.63 1907.13 1196.47 1853.01 1211.98 1796.46C1234.72 1713.49 1223.62 1623.69 1176.85 1547.12C1103.81 1427.54 953.432 1358.05 863.058 1248.86C809.324 1183.94 783.633 1108.01 784.45 1030.25C785.528 927.616 837.323 829.273 897.499 740.51C971.115 631.913 1061.76 531.483 1145.51 427.921C1230.01 323.423 1315.22 212.108 1348.19 88.8498C1356.02 59.6026 1360.27 29.9296 1360.72 0.019599M510.561 2928.61C511.117 2861.55 536.119 2796.48 568.818 2735.31C606.079 2665.61 653.616 2599.64 703.742 2535.45C808.733 2400.99 927.126 2273.66 1033.84 2140.11C1080.34 2081.91 1124.91 2022.48 1162.84 1960.36C1194.51 1908.48 1222.12 1854.22 1236.99 1797.53C1258.72 1714.68 1246.62 1625.41 1199.91 1549.22C1126.17 1428.92 976.75 1356.82 886.381 1246.35C833.341 1181.52 807.98 1106.81 808.399 1029.43C808.96 926.266 859.932 827.841 920.778 738.719C994.571 630.627 1085.87 531.017 1170.08 428.157C1255.25 324.121 1340.84 213.019 1373.1 89.6666C1380.83 60.1275 1384.87 30.1743 1385.08 -5.19902e-05M532.344 2930.72C532.634 2863.58 557.429 2798.46 590.148 2737.21C627.256 2667.73 674.882 2602.05 725.062 2538.2C830.147 2404.48 948.899 2278.08 1055.86 2145.36C1103.21 2086.61 1148.6 2026.58 1186.95 1963.7C1218.53 1911.94 1245.95 1857.79 1260.48 1801.18C1281.53 1719.13 1268.91 1631.67 1223.44 1556.13C1149.52 1433.34 1001.21 1356.16 910.585 1242.94C858.781 1178.2 832.258 1104.39 832.313 1027.47C832.381 923.406 883.448 824.33 945.307 734.651C1019.23 627.478 1110.81 528.982 1195.15 427.1C1280.67 323.81 1366.22 213.347 1398.08 90.3728C1405.78 60.6759 1409.73 30.5689 1409.85 0.244607M552.35 2934.48C552.439 2867.37 577.066 2802.27 609.868 2741.07C647.538 2670.79 696.158 2604.47 747.401 2540.08C852.156 2408.45 970.249 2284.05 1076.75 2153.36C1124.32 2094.98 1169.89 2035.3 1208.45 1972.73C1240.72 1920.39 1268.65 1865.49 1283.13 1808.08C1303.84 1726.01 1290.13 1639.45 1245.44 1563.84C1171.32 1438.44 1024.96 1355.3 934.528 1238.86C883.964 1173.75 856.477 1100.25 856.138 1023.4C855.67 918.676 907.061 819.07 969.949 729.131C1044.08 623.107 1135.99 525.956 1220.54 425.301C1306.45 323.04 1392.04 213.461 1423.6 91.0987C1431.29 61.315 1435.16 31.1248 1435.22 0.717744M570.722 2939.78C570.668 2872.76 595.187 2807.78 628.112 2746.72C665.792 2676.84 714.54 2610.99 765.95 2547.13C871.808 2415.61 991.363 2291.61 1098.93 2161.02C1146.57 2103.18 1192.18 2043.99 1230.67 1981.87C1262.48 1930.53 1289.94 1876.68 1304.37 1820.36C1325.66 1737.29 1311.03 1650.39 1266.85 1573.59C1192.67 1444.69 1048.24 1354.76 958.206 1234.16C908.444 1167.51 880.032 1093.01 879.879 1015.05C879.683 911.523 930.345 813.199 993.09 724.503C1067.16 619.8 1159.32 524.251 1244.16 425.194C1331.26 323.506 1418 214.309 1449.6 91.8088C1457.29 62.0054 1461.11 31.7876 1461.13 1.3608M587.593 2946.49C587.451 2879.74 611.842 2815.06 644.841 2754.33C682.491 2685.03 731.293 2619.83 782.792 2556.65C889.664 2425.55 1010.58 2302.27 1119.23 2172.15C1166.98 2114.96 1212.71 2056.4 1251.24 1994.85C1283.58 1943.17 1311.47 1888.88 1325.75 1832.01C1346.52 1749.29 1330.83 1663.21 1288.37 1586.45C1214.14 1452.23 1070.59 1354.22 980.786 1227.71C932.968 1160.33 904.187 1085.85 903.557 1007.98C902.72 904.314 953.403 806.023 1017.01 717.611C1091.73 613.752 1184.94 519.446 1270.59 421.434C1358 321.415 1444.71 213.718 1476.09 92.3929C1483.77 62.6684 1487.55 32.5295 1487.54 2.17761M603.096 2954.46C602.914 2886.97 628.014 2821.62 661.968 2760.42C699.441 2692.89 747.637 2629.37 798.511 2567.87C905.708 2438.27 1027.06 2316.67 1136.29 2188.2C1185.05 2130.84 1231.74 2072.06 1271.04 2010.14C1303.53 1958.94 1331.53 1905.03 1345.84 1848.55C1367.1 1764.63 1350.22 1677.69 1308.54 1599.48C1234.43 1460.4 1093.36 1354.21 1004.19 1222.17C957.251 1152.66 927.638 1076.42 927.166 996.916C926.551 893.192 977.799 795.279 1042.63 707.372C1117.81 605.419 1211.38 513.208 1297.28 417.122C1385.02 318.972 1471.77 212.972 1502.99 92.9847C1510.68 63.3943 1514.43 33.3818 1514.41 3.16011M617.374 2963.59C617.192 2896.61 642.178 2831.8 676.181 2771.18C714.23 2703.35 763.386 2639.74 815.24 2578.22C923.607 2449.63 1046.2 2329.25 1156.37 2201.68C1243.49 2100.8 1333 1990.58 1365 1868.71C1387.37 1783.54 1369.46 1695.21 1328.93 1615.32C1255.01 1469.61 1115.22 1354.15 1026.56 1214.9C980.702 1142.86 950.71 1064.45 950.701 983.053C950.686 881.258 1001.26 785.392 1065.8 699.533C1141.45 598.902 1235.9 508.47 1322.6 414.041C1411.32 317.41 1499 212.731 1530.28 93.4544C1537.98 64.0849 1541.7 34.2851 1541.68 4.28439M630.563 2973.75C630.421 2907.2 655.412 2842.91 689.578 2782.83C728.34 2714.68 778.609 2650.95 831.579 2589.4C939.819 2463.63 1061.9 2346.01 1171.93 2221.28C1221.07 2165.58 1268.14 2108.4 1307.84 2047.99C1341.23 1997.19 1369.94 1943.54 1384.6 1887.13C1406.92 1801.27 1387.43 1712.07 1348.27 1631.23C1274.66 1479.26 1137.46 1354.61 1049.6 1208.5C1005.03 1134.38 974.575 1054.33 974.196 971.481C973.733 869.899 1024.45 774.629 1089.95 689.527C1165.78 591.011 1260.57 503.021 1347.62 410.983C1437.5 315.954 1526.39 212.652 1557.88 94.0539C1565.62 64.9054 1569.33 35.3151 1569.32 5.52348M642.793 2984.79C642.725 2918.84 667.672 2855.2 701.936 2795.81C740.737 2728.55 791.08 2665.8 844.134 2605.28C954.284 2479.64 1078.76 2362.59 1190.71 2238.01C1279.67 2139.01 1371.53 2030.07 1403.38 1908.7C1426.1 1822.09 1405.48 1731.71 1367.91 1649.69C1294.91 1490.38 1159.86 1355.93 1072.65 1202.1C1028.99 1125.1 998.012 1042.51 997.637 957.321C997.195 856.24 1048.29 761.779 1114.85 677.817C1191.64 580.958 1287.47 495.032 1375.38 404.789C1465.5 312.273 1554.37 211.283 1585.79 94.5432C1593.56 65.6945 1597.26 36.384 1597.27 6.88433M654.207 2996.6C654.236 2931.28 679.183 2868.32 713.556 2809.66C752.426 2743.32 802.867 2681.59 856.025 2622.13C967.35 2497.62 1093.27 2382.04 1206.57 2258.71C1296.02 2161.35 1388.35 2054.14 1421.13 1934.06C1445.39 1845.23 1423.28 1751.98 1386.43 1667.38C1313.67 1500.35 1180.76 1355.84 1094.58 1193.65C1052.33 1114.13 1021.28 1029.24 1021.04 942.166C1020.76 841.614 1072.11 748.203 1139.81 665.457C1217 571.126 1313 487.965 1401.2 400.409C1491.69 310.585 1580.93 212.278 1613.22 97.6483C1621.48 68.2867 1625.45 38.4279 1625.49 8.34035M664.94 3009.05C665.098 2943.31 690.877 2880.13 726.248 2821.43C765.621 2756.08 816.416 2695.4 869.884 2637.01C981.829 2514.75 1108.15 2401.52 1222 2280.45C1312.44 2184.27 1406.09 2077.99 1439.19 1958.37C1464.02 1868.63 1440.81 1773.68 1405.52 1687.76C1333.24 1511.77 1201.9 1356.38 1116.43 1184.84C1075.48 1102.64 1044.58 1015.31 1044.41 926.164C1044.22 826.223 1096.03 733.945 1164.81 652.539C1242.35 560.766 1338.62 480.469 1427.14 395.679C1518.65 308.02 1609.04 211.619 1641.58 98.106C1649.89 69.1074 1653.86 39.5956 1653.94 9.85531M675.123 3022.01C675.418 2956.95 701.237 2894.53 736.751 2836.62C776.861 2771.22 828.749 2710.73 883.3 2652.61C995.9 2532.66 1122.64 2421.81 1237.07 2303.02C1328.51 2208.09 1423.52 2102.81 1456.98 1983.68C1482.44 1893.01 1458.2 1796.13 1424.39 1708.88C1352.83 1524.21 1223.8 1358.27 1139.14 1177.74C1099 1092.13 1067.81 1001.6 1067.75 909.499C1067.68 811.045 1119.11 720.558 1188.2 641.094C1267.04 550.433 1365.21 472.014 1455.27 388.739C1547.03 303.897 1637.52 210.088 1670.1 98.5911C1678.46 69.9713 1682.44 40.8267 1682.57 11.4454M684.902 3035.36C685.355 2970.06 711.961 2907.56 748.415 2849.8C788.344 2786.52 839.533 2728.07 893.34 2671.97C1007.84 2552.59 1136.91 2442.82 1253.36 2324.71C1344.96 2231.8 1440.14 2128.54 1474.2 2011.07C1500.94 1918.85 1475.55 1819.34 1442.94 1730.13C1372 1536.07 1244.74 1359.15 1161.02 1168.86C1121.86 1079.87 1090.63 986.011 1091.08 890.983C1091.54 794.194 1142.94 705.703 1212.35 628.441C1291.32 540.534 1389.48 465.2 1479.78 385.03C1573.18 302.118 1665.75 209.966 1698.79 98.9779C1707.18 70.7881 1711.17 42.0576 1711.34 13.0945M694.406 3048.96C695.021 2984.36 721.696 2922.64 758.297 2865.73C798.999 2802.44 851.31 2744.23 906.21 2688.46C1021.4 2571.44 1150.92 2464.1 1267.99 2348.33C1360.6 2256.75 1457.19 2154.58 1491.66 2037.64C1505.49 1990.74 1504.24 1942.99 1497.5 1895.36C1490.56 1846.19 1477.34 1797.68 1460.8 1750.05C1390.54 1547.61 1266.18 1360.62 1183.6 1161.6C1145.19 1069.03 1113.79 971.713 1114.39 873.489C1114.97 777.411 1166.89 690.194 1237.43 614.518C1317.5 528.619 1416.8 455.822 1508.05 377.869C1600.98 298.484 1693.01 209.812 1726.79 101.921C1735.73 73.3645 1739.98 44.1843 1740.2 14.7635M703.771 3062.69C704.554 2998.79 731.293 2937.85 768.052 2881.79C809.536 2818.52 862.969 2760.58 918.976 2705.17C1034.87 2590.51 1164.83 2485.6 1282.52 2372.16C1375.61 2282.44 1472.84 2182.15 1508.41 2066.65C1523.09 2018.96 1521.72 1970.4 1515.2 1921.87C1508.4 1871.33 1495.46 1821.41 1479.36 1772.28C1409.75 1559.77 1286.94 1361.5 1205.26 1152.13C1168 1056.63 1136.92 956.543 1137.68 855.833C1138.4 760.465 1190.84 674.578 1262.51 600.523C1343.05 517.299 1442.61 447.537 1534.21 372.496C1628.12 295.557 1721.43 209.101 1755.55 102.406C1764.55 74.2638 1768.82 45.4781 1769.1 16.4519M713.142 3076.41C714.082 3013.29 740.806 2953.24 777.639 2898.08C819.167 2835.88 872.635 2779.1 928.662 2724.91C1046.51 2610.92 1178.81 2507.21 1298.57 2394.55C1392.31 2306.37 1490.57 2207.33 1526.09 2092.59C1540.85 2044.89 1539.07 1996.23 1532.82 1947.68C1526.14 1895.85 1513.44 1844.58 1497.78 1794.04C1428.84 1571.68 1307.81 1362.44 1227.1 1142.97C1190.72 1044.05 1159.77 940.62 1161.01 836.856C1162.12 743.189 1214.78 659.215 1286.68 587.496C1368.02 506.363 1468.46 439.264 1560.91 366.676C1655.62 292.306 1749.99 208.154 1784.38 102.785C1793.41 75.0963 1797.69 46.733 1798.02 18.1329M722.646 3090.01C723.763 3026.57 751.392 2966.43 789.259 2911.39C831.343 2850.22 885.2 2794.55 941.547 2741.48C1060.09 2629.81 1192.82 2528.5 1313.2 2418.16C1407.92 2331.33 1507.61 2233.42 1543.55 2119.19C1558.58 2071.44 1556.53 2022.6 1550.57 1973.95C1543.95 1919.97 1531.25 1866.54 1515.67 1813.8C1447.48 1582.96 1329.19 1364.03 1249.66 1135.83C1213.94 1033.35 1182.89 926.412 1184.31 819.366C1185.53 727.151 1237.86 644.921 1310.1 575.253C1392.86 495.422 1495.16 430.513 1589.18 359.689C1684.06 288.226 1778.63 206.738 1813.1 103.286C1822.2 75.996 1826.49 48.0153 1826.87 19.7939M732.425 3103.36C735.102 2970.18 849.961 2853.84 954.151 2758.2C1074 2648.18 1207.96 2548.74 1329.51 2439.97C1424.34 2355.12 1524.22 2259.17 1560.77 2146.52C1576.48 2098.09 1574.19 2048.45 1568.36 1999.04C1561.94 1944.65 1549.76 1890.77 1534.9 1837.49C1467.56 1596.04 1350.39 1365.73 1271.56 1126.79C1236.87 1021.66 1206.29 912.315 1207.63 802.969C1208.76 710.761 1261.92 629.34 1335.9 560.943C1418.59 484.482 1520.05 422.965 1613.66 355.637C1710.06 286.305 1806.81 206.695 1841.8 103.7C1850.92 76.8324 1855.21 49.2542 1855.63 21.4353M742.607 3116.32C745.565 2984.42 860.582 2870.02 964.978 2776.33C1085.31 2668.33 1219.72 2571.15 1342.08 2464.68C1396.29 2417.52 1448.58 2368.46 1493.06 2315.05C1529.74 2271.01 1561.63 2223.34 1578.56 2171.88C1594.51 2123.43 1591.98 2073.64 1586.4 2024.15C1580.03 1967.69 1567.84 1911.71 1553.06 1856.31C1486.45 1606.72 1371.9 1367.3 1294.21 1120.02C1259.96 1011 1228.66 897.331 1230.99 784.264C1232.87 693.433 1286.49 613.926 1360.94 547.706C1444.74 473.17 1547.3 414.191 1641.82 349.029C1738.33 282.502 1835.28 205.46 1870.33 104.233C1879.51 77.7278 1883.81 50.5006 1884.26 23.025M753.341 3128.77C756.56 2997.05 873.334 2883.77 978.881 2791.41C1100.65 2684.86 1236.43 2589.35 1359.99 2484.19C1456.15 2402.34 1558.04 2309.21 1595.96 2198.28C1612.75 2149.17 1610.11 2098.62 1604.68 2048.35C1598.35 1989.86 1586.15 1931.83 1571.43 1874.36C1505.29 1616.03 1392.72 1367.1 1316.13 1110.85C1282.81 999.39 1252 883.494 1254.36 768.265C1256.2 678.752 1309.56 600.665 1384.27 536.407C1468.89 463.634 1572.3 407.085 1667.75 344.164C1765.1 279.988 1863.34 205.073 1898.7 104.773C1907.92 78.6077 1912.22 51.708 1912.71 24.5519M764.754 3140.58C768.19 3008.99 886.666 2896.74 993.336 2805.67C1115.68 2701.22 1251.78 2607.88 1375.83 2504.79C1472.85 2424.16 1576.21 2331.98 1614.35 2221.41C1631.29 2172.3 1628.46 2121.69 1623.23 2071.4C1617.03 2011.85 1605.08 1952.73 1590.72 1894.13C1525.39 1627.39 1414.74 1369.38 1338.95 1104.63C1306.17 990.119 1275.27 871.193 1277.76 753.099C1279.64 664.024 1333.45 587.014 1409.26 524.224C1494.31 453.775 1597.86 399.932 1693.55 339.575C1791.72 277.656 1891.22 204.809 1926.86 105.33C1936.12 79.4718 1940.42 52.8682 1940.93 26.004M776.985 3151.62C780.548 3021.1 898.985 2910.54 1005.82 2821.15C1129.34 2717.79 1266.81 2625.94 1392.2 2524.1C1446.86 2479.72 1499.67 2433.38 1544.83 2382.49C1582.55 2339.98 1615.56 2293.56 1633.15 2243.03C1650.22 2193.99 1647.18 2143.33 1642.13 2093.08C1636.05 2032.58 1624.31 1972.5 1610.3 1912.89C1545.49 1637.23 1436.16 1369.77 1361.11 1095.97C1329.2 979.51 1298.64 858.741 1301.2 738.916C1303.09 650.196 1357.3 574.152 1434.18 512.742C1520.27 443.982 1624.84 392.424 1721.38 333.997C1819.6 274.552 1919.14 203.921 1954.79 105.886C1964.08 80.3122 1968.35 53.953 1968.89 27.3572M790.174 3161.77C793.821 3031.21 913.804 2921.52 1021.73 2833.21C1146.54 2731.08 1285.26 2640.68 1411.71 2539.91C1509.6 2461.92 1614.01 2372.12 1652.41 2262.92C1669.61 2214.01 1666.33 2163.29 1661.43 2113.14C1655.43 2051.85 1643.91 1990.95 1630.21 1930.49C1565.87 1646.38 1457.8 1369.98 1383.44 1087.61C1352.33 969.5 1322.12 847.181 1324.68 725.896C1326.54 638.178 1380.2 563.251 1457.36 503.408C1544.17 436.091 1649.51 386.66 1746.87 330.17C1845.13 273.151 1945.15 204.967 1981.62 108.541C1991.45 82.553 1995.96 55.7167 1996.52 28.604M804.452 3170.9C808.084 3041.02 928.14 2932.63 1036.39 2845.64C1161.62 2745 1300.77 2656.32 1427.86 2557.26C1526.86 2480.09 1633.01 2390.9 1671.9 2281.64C1689.54 2232.06 1685.97 2180.56 1681.02 2129.71C1674.98 2067.6 1663.53 2005.87 1650.04 1944.55C1586.15 1654.12 1480.13 1370.86 1406.57 1082.06C1376.04 962.193 1346.01 838.316 1348.21 715.433C1349.79 626.926 1403.91 552.192 1483.13 492.948C1569.93 428.051 1674.66 381.112 1771.64 327.092C1870.81 271.857 1972.19 205.302 2008.9 109.189C2018.76 83.3699 2023.24 56.6794 2023.79 29.7206M819.96 3178.89C823.513 3048.58 945.203 2940.66 1054.71 2854.39C1180.45 2755.34 1319.9 2668.31 1447.32 2570.7C1546.48 2494.75 1653.04 2406.63 1692 2298.1C1709.74 2248.67 1706.18 2197.36 1701.36 2146.63C1695.32 2083.05 1683.81 2019.83 1670.33 1957.01C1606.79 1660.95 1502.74 1371.57 1429.88 1077.02C1413.51 1010.81 1398.63 944.313 1387.6 877.387C1378.17 820.218 1370.8 762.288 1371.83 704.547C1373.38 617.39 1426.63 543.797 1505.43 486.064C1593.39 421.616 1699.91 376.22 1798.37 323.336C1897.68 269.999 1999.2 205.065 2035.8 109.844C2045.68 84.1433 2050.12 57.5513 2050.66 30.7069M836.826 3185.59C840.177 3055.75 961.661 2948.81 1071.47 2863.54C1198.3 2765.05 1339.08 2678.99 1467.66 2582.04C1567.55 2506.71 1675.03 2418.9 1713.43 2310.12C1730.58 2261.56 1726.92 2211.05 1722.26 2161.27C1716.28 2097.36 1704.92 2033.79 1691.7 1970.6C1628.54 1668.65 1525.87 1373.01 1453.39 1072.54C1437.01 1004.63 1422.08 936.438 1411.01 867.827C1401.8 810.749 1394.4 752.894 1395.5 695.264C1396.3 652.859 1408.63 611.156 1433.42 573.6C1457.68 536.841 1492.38 505.29 1531.04 477.826C1619.52 414.98 1726.23 371.494 1824.87 320.207C1924.31 268.503 2025.86 205.022 2062.29 110.494C2072.17 84.8493 2076.55 58.3168 2077.06 31.5276M855.198 3190.89C858.239 3061.38 979.349 2955.25 1089.45 2870.79C1216.44 2773.36 1357.46 2688.62 1486.42 2592.94C1586.85 2518.44 1694.83 2431.55 1734.22 2323.27C1752.29 2273.6 1748.44 2221.94 1743.58 2170.94C1737.56 2107.73 1726.46 2044.86 1713.64 1982.34C1650.5 1674.28 1548.66 1372.24 1476.43 1065.58C1460.31 997.181 1445.58 928.519 1434.59 859.459C1425.57 802.689 1418.19 745.149 1419.26 687.843C1420.05 645.544 1432.34 603.932 1457.22 566.526C1481.43 530.126 1516.18 498.997 1554.88 472.089C1643.46 410.482 1750.17 368.59 1848.92 318.878C1949.28 268.353 2051.9 205.846 2088.34 111.157C2098.21 85.512 2102.51 58.9674 2102.97 32.1822M875.204 3194.65C877.832 3065.15 998.696 2959.5 1109.28 2875.55C1237.37 2778.31 1379.76 2694.17 1509.77 2598.67C1610.27 2524.84 1718.18 2438.43 1756.89 2330.36C1774.35 2281.63 1770.61 2231.04 1765.87 2181.05C1759.7 2115.95 1748.23 2051.2 1735.11 1986.79C1671.82 1676.17 1572.01 1371.13 1500.31 1061.78C1484.35 992.936 1469.69 923.848 1458.66 854.374C1449.69 797.879 1442.25 740.66 1443.07 683.637C1443.69 641.252 1455.59 599.466 1480.49 561.945C1504.52 525.715 1539.14 494.799 1577.85 468.234C1666.43 407.456 1773.23 366.889 1872.16 318.491C1973.6 268.862 2077.42 207.069 2113.86 111.911C2123.72 86.1709 2127.94 59.52 2128.35 32.648M896.982 3196.76C899.088 3066.14 1021.23 2960.13 1133.25 2876.06C1261.63 2779.7 1404.22 2696.49 1534.27 2601.65C1634.83 2528.31 1742.45 2442.19 1780.43 2334.2C1797.47 2285.73 1793.51 2235.38 1788.67 2185.74C1782.43 2121.79 1771.17 2058.17 1758.41 1994.86C1695.02 1680.6 1596.21 1371.68 1524.46 1058.67C1508.63 989.622 1494.01 920.344 1482.89 850.693C1473.87 794.124 1466.07 736.738 1467 679.621C1467.69 637.145 1479.63 595.237 1504.73 557.684C1528.85 521.604 1563.58 490.944 1602.44 464.68C1691.22 404.678 1798.24 365.268 1897.27 317.781C1999.06 268.973 2102.75 207.796 2138.84 112.657C2148.67 86.7472 2152.8 59.9302 2153.12 32.9004M920.586 3197.18C922.013 3065.98 1043.67 2959.91 1156.54 2875.8C1285.15 2779.96 1428.16 2697.57 1558.46 2603.28C1659.44 2530.2 1767.18 2444.13 1804.63 2335.87C1821.43 2287.34 1817.36 2236.95 1812.42 2187.31C1806.06 2123.46 1794.78 2059.95 1782.04 1996.74C1718.54 1681.67 1620.5 1371.78 1548.83 1057.93C1533.05 988.844 1518.45 919.54 1507.27 849.868C1498.25 793.622 1490.06 736.407 1491.13 679.597C1491.92 637.267 1504.18 595.45 1529.26 558.087C1553.45 522.058 1588.16 491.406 1626.96 465.106C1715.58 405.033 1822.32 365.327 1921.13 317.631C2022.67 268.622 2126.16 207.362 2162.57 112.443C2172.46 86.6485 2176.71 59.9422 2177.16 33.0109M944.938 3197.18C945.71 3066.14 1065.28 2960.71 1178.6 2877.08C1307.56 2781.9 1451.35 2700.79 1582.31 2607.48C1684.19 2534.88 1792.66 2449.02 1829.99 2340.41C1846.9 2291.2 1842.72 2240.05 1837.76 2189.73C1831.33 2124.66 1819.84 2059.93 1806.8 1995.53C1743.63 1683.71 1645.75 1377.13 1574.57 1066.5C1558.76 997.516 1544.18 928.306 1533.06 858.725C1524.1 802.657 1515.41 745.276 1516.9 688.632C1519.15 602.946 1574.39 530.524 1652.91 475.068C1740.45 413.236 1845.62 370.215 1943.23 319.904C2043.01 268.472 2145.58 205.582 2183.4 111.335C2193.47 86.238 2198.22 60.2261 2199.19 33.9222M969.649 3197.18C969.934 3065.59 1089.42 2960.59 1204.11 2877.47C1332.87 2784.16 1476.41 2705.14 1607.25 2613.8C1710.06 2542.02 1819.34 2456.75 1856.78 2348.06C1874.15 2297.63 1869.55 2244.98 1864.39 2193.43C1858.06 2130.17 1846.99 2067.25 1834.33 2004.63C1771.74 1694.98 1673.19 1390.79 1602.15 1082.42C1586.33 1013.77 1571.79 944.889 1560.74 875.631C1551.77 819.418 1542.34 761.325 1544.67 704.524C1548.16 619.426 1605.35 546.941 1681.3 490.416C1767.56 426.212 1870.95 379.148 1966.94 325.277C2064.11 270.74 2163.9 205.499 2202.31 111.93C2212.42 87.2913 2217.56 61.7569 2218.93 35.8752M994.699 3197.18C994.635 3065.28 1114.27 2961.1 1230.32 2878.91C1359.87 2787.16 1504.26 2710.11 1635.79 2620.28C1739.18 2549.66 1848.89 2465.18 1885.57 2356.6C1902.48 2306.52 1897.77 2254.12 1892.69 2202.98C1886.33 2138.98 1875.08 2075.32 1862.16 2011.99C1800.01 1707.43 1701.82 1408.42 1631.41 1105.11C1615.81 1037.92 1601.5 970.486 1590.59 902.689C1581.41 845.634 1571.21 786.217 1574.24 728.551C1578.66 644.282 1636.15 571.205 1708.69 513.09C1792.91 445.623 1894.04 393.734 1988 335.729C2083.11 277.005 2180.64 208.348 2219.42 114.096C2229.46 89.6863 2234.87 64.4279 2236.54 38.7868M1020.06 3197.18C1019.76 3065.2 1139.81 2962.18 1257.18 2881.31C1387.65 2791.41 1532.95 2716.66 1665.28 2628.62C1769.26 2559.46 1879.54 2476.05 1915.58 2367.77C1932.06 2318.22 1927.3 2266.25 1922.31 2215.69C1916.03 2152.13 1904.86 2088.91 1891.95 2026.03C1830.62 1727.38 1732.86 1434.4 1662.95 1137.08C1647.1 1069.65 1632.6 1001.96 1621.63 933.897C1616.83 904.081 1612.71 874.191 1609.76 844.222C1607.07 817.03 1603.94 789.137 1605.34 761.842C1609.72 676.579 1668.03 601.095 1738.35 540.037C1820.44 468.759 1919.11 411.409 2010.66 348.449C2102.72 285.129 2196.48 212.644 2234.9 117.714C2244.76 93.3278 2250.33 68.1563 2252.21 42.5862M1045.7 3197.18C1045.29 3065.11 1166.31 2963.49 1285.16 2884.24C1416.01 2796.98 1561.39 2725.09 1694.04 2639.69C1798.27 2572.58 1909.06 2491.18 1945.75 2384.15C1963 2333.85 1958.08 2280.99 1952.96 2229.59C1946.68 2166.48 1935.5 2103.71 1922.53 2041.28C1861.73 1748.87 1764.3 1462.26 1695.1 1171.16C1679.48 1105.5 1665.25 1039.58 1654.46 973.291C1645.29 916.951 1635.25 858.256 1638.03 801.304C1642.22 715.8 1699.54 638.06 1766.33 574.113C1845.68 498.129 1941.48 434.584 2030.39 366.148C2119.98 297.19 2210.84 219.845 2248.87 122.749C2258.5 98.177 2264.12 72.879 2266.13 47.1866M1071.59 3197.18C1071.17 3066.2 1191.62 2966.79 1310.89 2889.79C1442.91 2804.56 1589.56 2735.36 1723.55 2652.24C1828.72 2587.01 1940.69 2507.27 1977.58 2400.71C1994.97 2350.48 1989.85 2297.45 1984.68 2246.1C1978.5 2184.56 1967.57 2123.35 1954.8 2062.48C1894.7 1776 1797.18 1495.53 1728.51 1210.41C1712.95 1145.8 1698.81 1080.93 1688.17 1015.68C1679.14 960.331 1669.48 902.768 1672.02 846.814C1676 759.25 1733.37 677.841 1797.89 609.803C1873.68 529.881 1964.94 460.478 2049.79 386.944C2136.56 311.733 2224.18 228.947 2261.48 128.986C2270.78 104.055 2276.37 78.4775 2278.43 52.5129M1097.72 3197.18C1097.36 3066.41 1219.23 2968.99 1339.89 2894.23C1473.36 2811.52 1621.24 2745.29 1756.44 2664.51C1861.54 2601.71 1973.45 2524.31 2010.33 2419.22C2027.63 2369.94 2022.63 2317.78 2017.62 2267.35C2011.6 2206.7 2000.8 2146.39 1988.09 2086.42C1928.73 1806.49 1831.17 1532.81 1763.09 1254.29C1747.59 1190.89 1733.56 1127.21 1723.08 1063.14C1714.13 1008.43 1704.5 951.375 1707.39 896.072C1712.03 807.755 1766.26 724.377 1826.92 652.768C1900.05 566.439 1988.61 489.433 2070.76 408.742C2153.71 327.281 2236.92 239.059 2272.91 136.305C2281.81 110.865 2287.29 84.8651 2289.31 58.4941M1124.04 3197.18C1123.83 3067.77 1245.5 2973 1366.45 2901.02C1500.42 2821.29 1648.54 2758.5 1784.54 2681.14C1890.72 2620.75 2004.99 2545.65 2043.16 2441.4C2061.33 2391.76 2056.27 2339.12 2051.17 2288.22C2045.17 2228.49 2034.4 2169.1 2021.67 2110.07C1963.2 1839.11 1866.58 1574.54 1799.36 1305.03C1783.87 1242.89 1769.88 1180.46 1759.45 1117.63C1750.45 1063.33 1741.08 1006.85 1743.7 951.959C1748.03 861.108 1800.18 774.089 1857.85 697.742C1927.28 605.818 2011.45 521.785 2089.6 434.671C2169.61 345.49 2249.76 250.157 2283.98 142.353C2292.04 116.992 2297.05 91.17 2298.92 65.0476M1150.54 3197.18C1150.54 3067.98 1274.39 2975.6 1396.8 2906.31C1532.62 2829.44 1682.2 2769.92 1819.68 2695.09C1925.66 2637.4 2040.11 2564.76 2077.78 2461.95C2095.35 2414.01 2090.6 2363.16 2085.76 2313.98C2079.98 2255.33 2069.38 2197.02 2056.72 2139.1C1999.07 1875.33 1902.31 1618.24 1835.71 1355.97C1820.49 1296.06 1806.81 1235.84 1796.62 1175.23C1787.59 1121.46 1778.59 1065.7 1780.99 1011.34C1785.09 918.068 1834.37 827.643 1888.55 746.672C1954.64 647.896 2035.02 555.85 2109.55 461.172C2185.28 364.972 2260.87 263.394 2293.39 151.483C2300.98 125.372 2305.75 98.8672 2307.46 72.0938M1177.18 3197.18C1177.45 3068.45 1303.33 2978.77 1426.91 2912.44C1562.6 2839.61 1711.25 2784.06 1848.66 2713.46C1956.33 2658.14 2074.04 2587.68 2112.58 2484.89C2130.63 2436.73 2125.46 2385.22 2120.41 2335.78C2114.62 2279.06 2104.19 2222.69 2091.7 2166.69C2035 1912.67 1939.25 1665.51 1873.58 1413.03C1858.38 1354.59 1844.76 1295.84 1834.64 1236.69C1825.55 1183.53 1817.07 1128.68 1818.99 1074.91C1822.47 977.497 1869.84 882.118 1921.36 795.295C1983.29 690.948 2058.32 592.045 2128.02 491.011C2199.74 387.046 2271.3 278.402 2302.05 161.193C2309.11 134.277 2313.56 107.03 2315.06 79.5469M1203.94 3197.18C1204.52 3069.77 1331.09 2983.26 1454.92 2920.2C1593.35 2849.71 1744.66 2797.43 1884.66 2729.1C1991.32 2677.06 2108.68 2609.91 2147.54 2509.64C2165.74 2462.69 2160.96 2412.5 2156.12 2364.17C2150.57 2308.71 2140.32 2253.58 2127.91 2198.85C2072.1 1952.75 1976.24 1713.85 1911.26 1469.36C1896.15 1412.5 1882.67 1355.3 1872.77 1297.69C1863.89 1246 1856.13 1192.94 1857.68 1140.67C1860.65 1040.84 1904.07 942.427 1951.42 851.237C2009.95 738.498 2081.35 630.425 2147.54 520.542C2214.6 409.219 2281.42 293.888 2310.07 171.6C2316.59 143.766 2320.69 115.659 2321.94 87.3506M1230.79 3197.18C1231.71 3071.12 1359.09 2987.86 1483.07 2928.18C1622.45 2861.08 1774.21 2812.62 1915.32 2748.05C2022.78 2698.87 2142.96 2634.56 2182.85 2535.15C2201.47 2488.76 2196.8 2439.05 2191.98 2391.18C2186.52 2336.96 2176.36 2283.07 2163.95 2229.61C2109.13 1993.4 2014.13 1764.64 1950.08 1530.1C1934.98 1474.82 1921.58 1419.19 1911.77 1363.13C1902.86 1312.18 1895.72 1260.14 1896.85 1208.61C1899.15 1104.49 1939.86 1001.33 1984.04 904.401C2038.65 784.58 2105.21 668.55 2166.89 551.028C2229.18 432.312 2291.23 310.17 2317.61 182.454C2323.56 153.641 2327.28 124.603 2328.23 95.4032M1257.7 3197.18C1259.01 3071.42 1389.32 2991.29 1514.38 2934.93C1654.88 2871.6 1806.99 2826.99 1949 2766.02C2056.29 2719.95 2177.65 2658.9 2218.4 2561.2C2237.5 2515.44 2232.91 2466.2 2228.11 2418.85C2222.76 2365.92 2212.68 2313.34 2200.28 2261.2C2146.46 2035 2052.33 1816.52 1989.22 1592.05C1960.41 1489.6 1934.88 1383.57 1936.37 1278.09C1937.9 1170.28 1975.2 1063.08 2015.69 961.092C2066.1 834.082 2127.68 710.15 2184.79 585.034C2242.76 458.016 2300.67 328.075 2324.85 193.651C2330.21 163.816 2333.51 133.796 2334.14 103.653M1284.66 3197.18C1285.44 3139.72 1314.04 3088.36 1362.46 3046.45C1413.53 3002.25 1479.14 2969.93 1545.2 2942.13C1686.62 2882.61 1838.86 2841.87 1981.66 2784.69C2089.42 2741.53 2212.86 2683.54 2254.41 2586.79C2273.77 2541.72 2269.12 2492.93 2264.33 2446.2C2259.13 2395.45 2249.34 2345.02 2237.2 2295.06C2184.35 2077.62 2090.29 1868.35 2027.97 1652.74C1999.29 1553.49 1975.47 1451.45 1976.07 1349.2C1976.74 1236.87 2010.74 1125 2047.85 1017.35C2094.43 882.204 2151.47 749.56 2204.26 615.942C2257.28 481.74 2310.29 345.075 2331.91 204.907C2336.67 174.066 2339.51 143.079 2339.8 111.998M1311.62 3197.18C1312.57 3141.02 1340.79 3091.01 1388.97 3050.64C1440.61 3007.36 1507.04 2976.58 1573.56 2950.4C1716.96 2893.96 1870.73 2856.92 2015.5 2802.95C2123.62 2762.64 2249.22 2707.53 2290.95 2611.42C2309.99 2567.57 2305.36 2519.85 2300.67 2474.36C2295.57 2424.93 2285.88 2375.86 2273.74 2327.25C2221.74 2119.12 2128.02 1919.56 2066.69 1713.29C2038.1 1617.16 2015.92 1518.91 2015.84 1419.79C2015.75 1302.52 2046.65 1185.64 2080.52 1072.1C2123.05 929.525 2175.19 788.931 2223.38 647.556C2271.59 506.114 2319.87 362.589 2338.93 216.381C2343.09 184.478 2345.49 152.457 2345.42 120.377M1338.56 3197.18C1339.69 3141.4 1368.45 3092.18 1417.52 3053.04C1469.47 3011.59 1535.75 2982.8 1601.84 2958.56C1747.25 2905.21 1902.54 2871.87 2049.29 2821.13C2157.01 2783.89 2283.94 2732.18 2326.61 2637.71C2346.12 2594.52 2341.59 2547.29 2336.92 2502.33C2331.92 2454.25 2322.32 2406.52 2310.18 2359.27C2259.26 2161.12 2166.31 1971.92 2105.95 1775.72C2077.11 1681.98 2056.2 1586.71 2055.49 1489.94C2054.59 1368.67 2081.95 1247.75 2112.23 1129.37C2150.57 979.501 2197.77 831.202 2241.41 682.303C2285.27 532.659 2329.41 381.251 2346.03 227.791C2349.6 194.831 2351.54 161.78 2351.11 128.694M1365.46 3197.18C1366.75 3141.85 1396.01 3093.42 1445.82 3055.56C1498.79 3015.3 1565.94 2988.23 1632.59 2965.65C1778.9 2916.07 1934.25 2886.47 2081.77 2839.45C2188.88 2805.31 2317.55 2757.2 2361.62 2664.62C2381.83 2622.16 2377.72 2575.69 2373.13 2531.25C2368.32 2484.56 2358.95 2438.23 2346.88 2392.41C2296.94 2202.89 2204.01 2022.91 2144.46 1835.45C2115.7 1744.89 2096.39 1653.39 2094.93 1559.81C2092.97 1433.91 2117.25 1308.21 2144.24 1184.52C2178.74 1026.44 2221.47 869.603 2260.84 712.28C2299.95 555.968 2339.43 398.176 2353.44 238.881C2356.42 204.935 2357.91 170.926 2357.14 136.897M1392.29 3197.18C1393.74 3142.19 1423.57 3094.47 1474.23 3057.84C1527.48 3019.33 1594.42 2994.17 1660.61 2973.39C1808.92 2926.82 1965.73 2900.81 2115.21 2856.96C2222.52 2825.48 2353.38 2780.31 2397.63 2688.14C2417.48 2646.79 2413.38 2601.32 2408.88 2558.01C2404.17 2512.6 2394.9 2467.55 2382.81 2423.04C2333.94 2243.1 2241.72 2073.19 2183.13 1895.41C2154.05 1807.18 2135.93 1718.45 2133.95 1627.13C2131.15 1497.42 2152.18 1367.86 2175.78 1239.8C2206.46 1073.39 2244.82 907.952 2280.04 742.135C2314.64 579.202 2349.69 415.031 2361.19 249.794C2363.62 214.854 2364.68 179.862 2363.58 144.874M1419.01 3197.18C1420.6 3142.55 1450.87 3095.57 1502.28 3060.14C1556.53 3022.75 1624.33 2999.22 1691.02 2980C1840.15 2937.04 1996.98 2914.54 2147.15 2874.23C2254.5 2845.42 2387.74 2803.34 2432.79 2711.86C2452.85 2671.11 2448.65 2625.92 2444.15 2583.15C2439.57 2539.68 2430.6 2496.56 2418.73 2454.01C2370.82 2282.24 2278.55 2121.2 2220.76 1951.73C2206.44 1909.73 2194.25 1867.21 2185.72 1824.2C2176.9 1779.72 2173.88 1735.52 2172.39 1690.58C2167.97 1557.39 2187.02 1423.79 2207.42 1291.83C2234.18 1118.75 2267.9 946.419 2298.79 773.797C2329.47 602.413 2360.84 429.941 2369.67 256.758C2371.44 222.046 2372.01 187.311 2370.66 152.584M1445.61 3197.18C1447.32 3142.81 1477.99 3096.56 1530.15 3062.25C1584.48 3026.52 1651.83 3004.72 1717.89 2987.15C1868.75 2947.02 2026.78 2927.89 2178.7 2890.72C2285.31 2864.64 2420.19 2825.99 2466.59 2736.17C2487.63 2695.42 2483.47 2650 2478.89 2607.01C2474.45 2565.37 2465.74 2524.07 2454.09 2483.35C2407.38 2320.03 2315.42 2168.17 2258.41 2007.35C2243.86 1966.31 2231.61 1924.73 2223.14 1882.59C2214.49 1839.57 2211.54 1796.74 2210.24 1753.25C2206.13 1615.68 2221.26 1478.25 2238.79 1341.52C2261.98 1160.68 2291.54 980.413 2318.47 799.919C2344.9 622.823 2372.08 444.826 2378.63 266.392C2379.93 230.904 2380.15 195.399 2378.55 159.918M1472.06 3197.18C1473.83 3143.82 1503.98 3098.58 1555.77 3065.44C1611.5 3029.78 1680.85 3009.16 1748.39 2992.78C1900.16 2955.99 2058.34 2940.07 2210.99 2906.01C2317.69 2882.2 2454.71 2846.25 2501.12 2756.5C2521.72 2716.65 2517.53 2671.98 2513.02 2629.94C2508.67 2589.33 2500.06 2549.05 2488.35 2509.39C2442.48 2353.92 2350.6 2210.65 2294.51 2057.76C2280.2 2018.74 2268.26 1979.13 2260.03 1938.98C2251.48 1897.33 2248.63 1855.87 2247.33 1813.75C2242.99 1672.23 2254.86 1531.06 2269.63 1390.09C2289.39 1201.55 2314.97 1013.44 2338.13 825.15C2360.6 642.506 2383.87 459.132 2388.38 275.518C2389.28 239.288 2389.18 203.045 2387.39 166.83M1498.32 3197.18C1500.15 3143.97 1530.62 3099.21 1583.12 3067.02C1639.76 3032.29 1709.9 3013.1 1777.91 2998.07C1930.28 2964.41 2088.36 2951.49 2241.51 2920.5C2348.23 2898.91 2487.44 2865.73 2534.47 2776.28C2554.94 2737.35 2550.91 2693.45 2546.53 2652.29C2542.32 2612.62 2533.92 2573.28 2522.23 2534.59C2477.35 2386.04 2385.15 2250.65 2329.82 2104.86C2315.75 2067.76 2304.1 2030.05 2296.08 1991.8C2287.29 1949.92 2284.87 1908.34 2283.28 1865.99C2277.85 1721.78 2288.16 1577.56 2300.3 1433.71C2316.7 1239.52 2338.25 1045.64 2357.67 851.632C2376.59 662.726 2396.4 473.229 2399.12 283.634C2399.65 246.819 2399.3 210.005 2397.37 173.218M1524.38 3197.18C1526.22 3144.08 1556.92 3099.58 1610.15 3068.28C1666.81 3034.97 1736.25 3017.18 1803.61 3003.46C1958.58 2971.89 2118.91 2961.96 2274.6 2933.14C2379.65 2913.7 2518.37 2883.27 2566.1 2795.92C2587.52 2756.71 2583.44 2712.28 2578.96 2670.64C2574.79 2631.82 2566.44 2593.34 2554.67 2555.55C2510.77 2414.55 2419.14 2287.49 2364.71 2149.4C2350.36 2112.99 2338.63 2075.89 2330.67 2038.23C2322.04 1997.43 2319.54 1956.82 2318.22 1915.54C2313.49 1768.05 2320.7 1620.83 2330.53 1473.53C2343.84 1274.19 2361.62 1075.05 2377.61 875.837C2393.23 681.136 2409.77 485.957 2410.97 290.779C2411.2 253.511 2410.66 216.238 2408.68 179.002M1550.2 3197.18C1552 3144.9 1581.84 3101.11 1634.52 3070.51C1691.29 3037.52 1761.34 3020.74 1828.79 3008.05C1985.23 2978.61 2146.61 2971.39 2303.77 2945.01C2409.05 2927.35 2549.53 2899.27 2597.67 2811.9C2619.22 2772.8 2614.92 2728.14 2610.4 2686.6C2606.24 2648.49 2597.95 2610.72 2586.08 2573.67C2542.96 2439.02 2451.31 2319.23 2397.79 2187.58C2383.64 2152.78 2372.18 2117.26 2364.4 2081.17C2355.68 2040.7 2353.3 2000.45 2351.92 1959.5C2346.86 1809.26 2352.51 1659.18 2360.26 1509.04C2370.87 1303.47 2385.36 1098.03 2398.26 892.541C2410.71 694.191 2424.06 495.481 2424.07 296.823C2424.07 259.239 2423.42 221.66 2421.46 184.107M1575.76 3197.18C1577.48 3144.88 1607.28 3101.19 1660.55 3071.1C1717.87 3038.73 1788.49 3022.98 1856.18 3011.29C2012.71 2984.26 2173.64 2979.36 2330.85 2955.52C2394.93 2945.8 2460.1 2933.32 2518.67 2909.69C2564.24 2891.31 2606.34 2864.69 2627.71 2826.6C2649.63 2787.53 2645.34 2742.75 2640.84 2701.14C2636.78 2663.57 2628.65 2626.34 2616.73 2589.86C2574.44 2460.46 2482.5 2346.98 2429.63 2220.76C2415.44 2186.89 2404.13 2152.25 2396.49 2117.04C2387.72 2076.66 2385.34 2036.4 2384.11 1995.52C2379.57 1844.36 2383.48 1693.33 2389.33 1542.21C2397.49 1331.37 2408.92 1120.62 2419.03 909.842C2428.74 707.203 2439.32 504.295 2438.54 301.467C2438.39 263.792 2437.7 226.118 2435.88 188.471M1601.03 3197.18C1602.62 3144.77 1632.27 3101 1686.14 3071.25C1743.93 3039.33 1815.04 3024.49 1882.98 3013.67C2040.56 2988.56 2202.15 2985.86 2360.32 2963.8C2424.52 2954.85 2489.95 2943.12 2548.75 2919.91C2594.44 2901.87 2636.48 2875.37 2657.49 2837.2C2678.84 2798.41 2674.46 2753.93 2670.06 2712.71C2666.08 2675.5 2658.07 2638.59 2646.1 2602.5C2604.67 2477.56 2512.28 2369.67 2460.02 2248.12C2445.78 2214.99 2434.6 2181.02 2427.07 2146.5C2418.23 2105.97 2416.17 2065.62 2414.77 2024.61C2409.57 1871.72 2413.65 1718.68 2417.98 1565.81C2424.1 1350.07 2432.82 1134.38 2440.45 918.675C2447.72 712.86 2455.82 506.868 2454.53 300.946C2454.3 264.625 2453.66 228.308 2452.13 192.006M1625.97 3197.18C1627.4 3144.49 1656.89 3100.36 1711.46 3070.77C1769.79 3039.14 1841.48 3025.07 1909.82 3014.98C2067.44 2991.7 2228.66 2990.75 2386.82 2970.5C2492.36 2956.99 2637.5 2933.98 2685.63 2845.77C2706.72 2807.11 2702.28 2762.69 2697.98 2721.66C2694.09 2684.49 2686.24 2647.6 2674.17 2611.58C2633.47 2490.06 2540.4 2386.82 2488.7 2268.85C2457.19 2196.97 2445.38 2123.4 2443.79 2047.51C2440.61 1895.01 2442.76 1742.52 2445.8 1590.01C2450.19 1370.05 2456.54 1150.12 2462.09 930.172C2467.35 721.142 2473.31 512.008 2472.22 302.923C2472.04 266.826 2471.55 230.73 2470.38 194.645M1650.58 3197.18C1651.77 3144.25 1680.77 3099.66 1735.8 3070C1794.23 3038.52 1866.17 3024.98 1934.58 3015.44C2092.77 2993.39 2254.3 2994.03 2412.99 2975.06C2518.71 2962.42 2664.45 2940.34 2712.26 2851.67C2733.37 2812.51 2728.65 2767.41 2724.32 2725.92C2720.43 2688.73 2712.68 2651.8 2700.51 2615.77C2660.48 2497.21 2567.01 2397.97 2515.85 2283.12C2483.94 2211.49 2471.89 2137.26 2470.95 2061.47C2469.05 1909.01 2470.89 1756.55 2473.03 1604.1C2479.12 1170.4 2492.35 736.655 2491.74 302.919C2491.69 267.375 2491.46 231.827 2490.8 196.287M1674.81 3197.18C1675.71 3143.83 1704.19 3098.47 1759.8 3068.53C1818.34 3037 1890.69 3023.8 1959.27 3014.67C2118.09 2993.52 2280.08 2995.52 2439.35 2977.28C2544.78 2965.2 2689.67 2943.63 2737.08 2855.09C2758.73 2814.67 2753.49 2767.87 2748.95 2725.1C2744.98 2687.68 2737.16 2650.51 2724.81 2614.26C2685.4 2498.57 2592.27 2402.86 2541.62 2291C2508.86 2218.63 2496.16 2142.42 2496.11 2065.65C2496 1913.39 2497.92 1761.12 2499.51 1608.87C2504.05 1173.03 2510.82 737.203 2513.23 301.356C2513.42 266.523 2513.56 231.689 2513.55 196.859" stroke="url(#paint0_linear_70_2039)" stroke-opacity="0.33" stroke-width="2" stroke-miterlimit="10"/>
<defs>
<linearGradient id="paint0_linear_70_2039" x1="1377" y1="-6.01469e-05" x2="1377" y2="3444" gradientUnits="userSpaceOnUse">
<stop stop-color="white" stop-opacity="0.44"/>
<stop offset="1" stop-color="white"/>
</linearGradient>
</defs>
</svg>
