<svg width="177" height="25" viewBox="0 0 177 25" fill="none" xmlns="http://www.w3.org/2000/svg">
<path d="M11.493 18.916L5.18346 10.8545H4.04088V18.916H0.0545502V0H4.04088V7.56641H5.14537L11.1376 0H16.1014L8.72545 9.14062L16.4569 18.916H11.493Z" fill="#160E0E"/>
<path d="M17.5614 24.2227V4.72266H21.4208V7.12207H21.5985C21.7762 6.73275 22.0301 6.33919 22.3602 5.94141C22.6903 5.54362 23.1219 5.21354 23.6551 4.95117C24.1883 4.68034 24.8485 4.54492 25.6356 4.54492C26.6766 4.54492 27.6288 4.81576 28.4921 5.35742C29.3638 5.89062 30.062 6.69889 30.5868 7.78223C31.1115 8.86556 31.3739 10.2197 31.3739 11.8447C31.3739 13.4189 31.12 14.752 30.6122 15.8438C30.1044 16.9271 29.4146 17.748 28.5428 18.3066C27.6796 18.8652 26.7062 19.1445 25.6229 19.1445C24.8612 19.1445 24.2137 19.0176 23.6805 18.7637C23.1473 18.5098 22.7115 18.1924 22.3729 17.8115C22.0428 17.4222 21.7847 17.0329 21.5985 16.6436H21.4842V24.2227H17.5614ZM24.3788 16.0215C25.022 16.0215 25.5637 15.8438 26.0038 15.4883C26.4439 15.1328 26.7782 14.6419 27.0067 14.0156C27.2352 13.3809 27.3495 12.653 27.3495 11.832C27.3495 11.0111 27.2352 10.2917 27.0067 9.67383C26.7866 9.04753 26.4566 8.55664 26.0165 8.20117C25.5764 7.8457 25.0305 7.66797 24.3788 7.66797C23.744 7.66797 23.2023 7.84147 22.7538 8.18848C22.3137 8.52702 21.9751 9.00944 21.7381 9.63574C21.5096 10.2536 21.3954 10.9857 21.3954 11.832C21.3954 12.6699 21.5139 13.402 21.7508 14.0283C21.9878 14.6546 22.3264 15.1455 22.7665 15.501C23.215 15.848 23.7525 16.0215 24.3788 16.0215Z" fill="#160E0E"/>
<path d="M36.8456 13.7236L41.9491 4.72266H45.8338V18.916H42.0887V9.90234L36.9979 18.916H33.1004V4.72266H36.8456V13.7236Z" fill="#160E0E"/>
<path d="M48.1571 18.916V4.72266H60.5477V18.916H56.8026V7.82031H51.8514V18.916H48.1571Z" fill="#160E0E"/>
<path d="M61.4491 7.82031V4.72266H74.284V7.82031H69.7264V18.916H65.9813V7.82031H61.4491Z" fill="#160E0E"/>
<path d="M81.7108 19.1953C80.2805 19.1953 79.0406 18.8906 77.9911 18.2812C76.9501 17.6634 76.146 16.8086 75.579 15.7168C75.0204 14.6165 74.7411 13.3385 74.7411 11.8828C74.7411 10.4102 75.0204 9.12793 75.579 8.03613C76.146 6.93587 76.9501 6.08105 77.9911 5.47168C79.0406 4.85384 80.2805 4.54492 81.7108 4.54492C83.1496 4.54492 84.3895 4.85384 85.4305 5.47168C86.48 6.08105 87.284 6.93587 87.8426 8.03613C88.4097 9.12793 88.6932 10.4102 88.6932 11.8828C88.6932 13.3385 88.4097 14.6165 87.8426 15.7168C87.284 16.8086 86.48 17.6634 85.4305 18.2812C84.3895 18.8906 83.1496 19.1953 81.7108 19.1953ZM81.7362 16.123C82.3879 16.123 82.9338 15.9411 83.3739 15.5771C83.814 15.2048 84.1441 14.6969 84.3641 14.0537C84.5926 13.4105 84.7069 12.6784 84.7069 11.8574C84.7069 11.028 84.5926 10.2959 84.3641 9.66113C84.1441 9.02637 83.814 8.52702 83.3739 8.16309C82.9338 7.79915 82.3879 7.61719 81.7362 7.61719C81.076 7.61719 80.5217 7.79915 80.0731 8.16309C79.633 8.52702 79.2987 9.02637 79.0702 9.66113C78.8501 10.2959 78.7401 11.028 78.7401 11.8574C78.7401 12.6784 78.8501 13.4105 79.0702 14.0537C79.2987 14.6969 79.633 15.2048 80.0731 15.5771C80.5217 15.9411 81.076 16.123 81.7362 16.123Z" fill="#160E0E"/>
<path d="M96.0546 0H99.9647V15.6914H105.398V0H109.283V15.6914H114.64V0H118.525V18.916H96.0546V0Z" fill="#160E0E"/>
<path d="M120.899 18.916V4.72266H124.822V10.2324H125.939L129.786 4.72266H134.407L129.392 11.7812L134.458 18.916H129.786L126.282 13.8887H124.822V18.916H120.899Z" fill="#160E0E"/>
<path d="M141.072 19.1953C139.642 19.1953 138.402 18.8906 137.352 18.2812C136.311 17.6634 135.507 16.8086 134.94 15.7168C134.382 14.6165 134.102 13.3385 134.102 11.8828C134.102 10.4102 134.382 9.12793 134.94 8.03613C135.507 6.93587 136.311 6.08105 137.352 5.47168C138.402 4.85384 139.642 4.54492 141.072 4.54492C142.511 4.54492 143.751 4.85384 144.792 5.47168C145.841 6.08105 146.645 6.93587 147.204 8.03613C147.771 9.12793 148.055 10.4102 148.055 11.8828C148.055 13.3385 147.771 14.6165 147.204 15.7168C146.645 16.8086 145.841 17.6634 144.792 18.2812C143.751 18.8906 142.511 19.1953 141.072 19.1953ZM141.098 16.123C141.749 16.123 142.295 15.9411 142.735 15.5771C143.175 15.2048 143.505 14.6969 143.725 14.0537C143.954 13.4105 144.068 12.6784 144.068 11.8574C144.068 11.028 143.954 10.2959 143.725 9.66113C143.505 9.02637 143.175 8.52702 142.735 8.16309C142.295 7.79915 141.749 7.61719 141.098 7.61719C140.437 7.61719 139.883 7.79915 139.434 8.16309C138.994 8.52702 138.66 9.02637 138.432 9.66113C138.211 10.2959 138.101 11.028 138.101 11.8574C138.101 12.6784 138.211 13.4105 138.432 14.0537C138.66 14.6969 138.994 15.2048 139.434 15.5771C139.883 15.9411 140.437 16.123 141.098 16.123Z" fill="#160E0E"/>
<path d="M148.943 18.916L148.931 15.8057H149.4C149.849 15.7972 150.213 15.6449 150.492 15.3486C150.78 15.0524 150.996 14.5573 151.14 13.8633C151.292 13.1608 151.389 12.2129 151.432 11.0195L151.673 4.72266H162.451V18.916H158.706V7.82031H155.202L154.973 12.1621C154.914 13.347 154.77 14.3669 154.542 15.2217C154.313 16.0765 153.996 16.779 153.59 17.3291C153.192 17.8708 152.701 18.2728 152.117 18.5352C151.542 18.7891 150.877 18.916 150.124 18.916H148.943Z" fill="#160E0E"/>
<path d="M168.811 19.1826C167.914 19.1826 167.106 19.026 166.387 18.7129C165.676 18.3913 165.117 17.9173 164.711 17.291C164.305 16.6647 164.101 15.8861 164.101 14.9551C164.101 14.1595 164.245 13.4993 164.533 12.9746C164.821 12.4414 165.214 12.0098 165.714 11.6797C166.213 11.3496 166.78 11.0999 167.415 10.9307C168.05 10.7614 168.723 10.6429 169.433 10.5752C170.254 10.499 170.915 10.4229 171.414 10.3467C171.913 10.2705 172.277 10.1562 172.506 10.0039C172.743 9.8431 172.861 9.61458 172.861 9.31836V9.25488C172.861 8.6709 172.675 8.2181 172.303 7.89648C171.939 7.57487 171.422 7.41406 170.754 7.41406C170.051 7.41406 169.488 7.57064 169.065 7.88379C168.651 8.18848 168.376 8.5778 168.24 9.05176L164.597 8.75977C164.783 7.89648 165.147 7.15169 165.688 6.52539C166.23 5.89062 166.928 5.40397 167.783 5.06543C168.646 4.71842 169.645 4.54492 170.779 4.54492C171.566 4.54492 172.32 4.63802 173.039 4.82422C173.758 5.01042 174.397 5.29818 174.956 5.6875C175.523 6.06836 175.972 6.56348 176.302 7.17285C176.632 7.78223 176.797 8.50586 176.797 9.34375V18.916H173.052V16.9355H172.95C172.722 17.3841 172.417 17.7777 172.036 18.1162C171.655 18.4463 171.198 18.7087 170.665 18.9033C170.132 19.0895 169.514 19.1826 168.811 19.1826ZM169.941 16.4658C170.517 16.4658 171.025 16.3516 171.465 16.123C171.913 15.8861 172.26 15.5729 172.506 15.1836C172.76 14.7858 172.887 14.3415 172.887 13.8506V12.3398C172.768 12.416 172.599 12.488 172.379 12.5557C172.167 12.6234 171.93 12.6826 171.668 12.7334C171.405 12.7842 171.143 12.8307 170.881 12.873C170.618 12.9069 170.381 12.9408 170.17 12.9746C169.704 13.0423 169.298 13.1523 168.951 13.3047C168.604 13.4486 168.333 13.6475 168.139 13.9014C167.952 14.1468 167.859 14.4557 167.859 14.8281C167.859 15.3613 168.054 15.7676 168.443 16.0469C168.833 16.3262 169.332 16.4658 169.941 16.4658Z" fill="#160E0E"/>
</svg>
