<svg width="141" height="20" viewBox="0 0 141 20" fill="none" xmlns="http://www.w3.org/2000/svg">
<path d="M9.14627 15.3899L4.14837 9.00425H3.24332V15.3899H0.0856934V0.40625H3.24332V6.39971H4.1182L8.8647 0.40625H12.7967L6.95404 7.64667L13.0782 15.3899H9.14627Z" fill="#160E0E"/>
<path d="M13.9531 19.5934V4.14713H17.0102V6.04774H17.151C17.2917 5.73936 17.4929 5.42762 17.7543 5.11252C18.0158 4.79743 18.3577 4.53597 18.7801 4.32814C19.2024 4.11361 19.7253 4.00635 20.3488 4.00635C21.1734 4.00635 21.9276 4.22088 22.6114 4.64994C23.302 5.0723 23.855 5.71254 24.2707 6.57066C24.6864 7.42879 24.8942 8.50144 24.8942 9.78863C24.8942 11.0356 24.6931 12.0915 24.2908 12.9563C23.8886 13.8144 23.3422 14.4647 22.6517 14.9072C21.9678 15.3497 21.1969 15.5709 20.3388 15.5709C19.7354 15.5709 19.2225 15.4703 18.8002 15.2692C18.3778 15.0681 18.0325 14.8167 17.7644 14.515C17.5029 14.2066 17.2984 13.8982 17.151 13.5898H17.0605V19.5934H13.9531ZM19.3533 13.0971C19.8628 13.0971 20.2918 12.9563 20.6404 12.6747C20.989 12.3932 21.2539 12.0043 21.4349 11.5082C21.6159 11.0054 21.7064 10.4289 21.7064 9.77857C21.7064 9.12827 21.6159 8.55843 21.4349 8.06903C21.2606 7.57292 20.9991 7.18409 20.6505 6.90252C20.3019 6.62094 19.8695 6.48016 19.3533 6.48016C18.8504 6.48016 18.4214 6.61759 18.0661 6.89246C17.7175 7.16062 17.4493 7.54276 17.2616 8.03886C17.0806 8.52826 16.9901 9.10816 16.9901 9.77857C16.9901 10.4423 17.0839 11.0222 17.2716 11.5183C17.4593 12.0144 17.7275 12.4032 18.0761 12.6848C18.4314 12.9597 18.8571 13.0971 19.3533 13.0971Z" fill="#160E0E"/>
<path d="M29.2284 11.2769L33.2709 4.14713H36.3481V15.3899H33.3816V8.25004L29.3491 15.3899H26.2618V4.14713H29.2284V11.2769Z" fill="#160E0E"/>
<path d="M38.1884 15.3899V4.14713H48.0032V15.3899H45.0366V6.60083H41.1147V15.3899H38.1884Z" fill="#160E0E"/>
<path d="M48.7172 6.60083V4.14713H58.8839V6.60083H55.2738V15.3899H52.3072V6.60083H48.7172Z" fill="#160E0E"/>
<path d="M64.7668 15.6111C63.6338 15.6111 62.6516 15.3698 61.8203 14.8871C60.9957 14.3977 60.3588 13.7206 59.9097 12.8557C59.4672 11.9842 59.2459 10.9719 59.2459 9.8188C59.2459 8.65228 59.4672 7.63661 59.9097 6.77179C60.3588 5.90025 60.9957 5.22314 61.8203 4.74045C62.6516 4.25105 63.6338 4.00635 64.7668 4.00635C65.9065 4.00635 66.8886 4.25105 67.7132 4.74045C68.5445 5.22314 69.1814 5.90025 69.6239 6.77179C70.0731 7.63661 70.2976 8.65228 70.2976 9.8188C70.2976 10.9719 70.0731 11.9842 69.6239 12.8557C69.1814 13.7206 68.5445 14.3977 67.7132 14.8871C66.8886 15.3698 65.9065 15.6111 64.7668 15.6111ZM64.7869 13.1775C65.3031 13.1775 65.7355 13.0334 66.0841 12.7451C66.4327 12.4502 66.6942 12.0479 66.8685 11.5384C67.0495 11.0289 67.14 10.449 67.14 9.79868C67.14 9.14168 67.0495 8.56178 66.8685 8.05897C66.6942 7.55616 66.4327 7.16062 66.0841 6.87235C65.7355 6.58407 65.3031 6.43993 64.7869 6.43993C64.264 6.43993 63.8248 6.58407 63.4695 6.87235C63.1209 7.16062 62.8561 7.55616 62.6751 8.05897C62.5008 8.56178 62.4136 9.14168 62.4136 9.79868C62.4136 10.449 62.5008 11.0289 62.6751 11.5384C62.8561 12.0479 63.1209 12.4502 63.4695 12.7451C63.8248 13.0334 64.264 13.1775 64.7869 13.1775Z" fill="#160E0E"/>
<path d="M76.1287 0.40625H79.2259V12.8356H83.53V0.40625H86.6072V12.8356H90.8508V0.40625H93.928V15.3899H76.1287V0.40625Z" fill="#160E0E"/>
<path d="M95.8085 15.3899V4.14713H98.9159V8.5115H99.8008L102.848 4.14713H106.508L102.536 9.73835L106.548 15.3899H102.848L100.072 11.4077H98.9159V15.3899H95.8085Z" fill="#160E0E"/>
<path d="M111.788 15.6111C110.655 15.6111 109.673 15.3698 108.841 14.8871C108.017 14.3977 107.38 13.7206 106.931 12.8557C106.488 11.9842 106.267 10.9719 106.267 9.8188C106.267 8.65228 106.488 7.63661 106.931 6.77179C107.38 5.90025 108.017 5.22314 108.841 4.74045C109.673 4.25105 110.655 4.00635 111.788 4.00635C112.927 4.00635 113.91 4.25105 114.734 4.74045C115.565 5.22314 116.202 5.90025 116.645 6.77179C117.094 7.63661 117.319 8.65228 117.319 9.8188C117.319 10.9719 117.094 11.9842 116.645 12.8557C116.202 13.7206 115.565 14.3977 114.734 14.8871C113.91 15.3698 112.927 15.6111 111.788 15.6111ZM111.808 13.1775C112.324 13.1775 112.756 13.0334 113.105 12.7451C113.454 12.4502 113.715 12.0479 113.889 11.5384C114.07 11.0289 114.161 10.449 114.161 9.79868C114.161 9.14168 114.07 8.56178 113.889 8.05897C113.715 7.55616 113.454 7.16062 113.105 6.87235C112.756 6.58407 112.324 6.43993 111.808 6.43993C111.285 6.43993 110.846 6.58407 110.49 6.87235C110.142 7.16062 109.877 7.55616 109.696 8.05897C109.522 8.56178 109.435 9.14168 109.435 9.79868C109.435 10.449 109.522 11.0289 109.696 11.5384C109.877 12.0479 110.142 12.4502 110.49 12.7451C110.846 13.0334 111.285 13.1775 111.808 13.1775Z" fill="#160E0E"/>
<path d="M118.023 15.3899L118.012 12.9261H118.385C118.74 12.9194 119.028 12.7988 119.249 12.5641C119.477 12.3295 119.648 11.9373 119.762 11.3876C119.883 10.8311 119.96 10.0803 119.994 9.13498L120.185 4.14713H128.722V15.3899H125.756V6.60083H122.98L122.799 10.04C122.752 10.9786 122.638 11.7864 122.457 12.4636C122.276 13.1407 122.025 13.6971 121.703 14.1329C121.388 14.5619 120.999 14.8804 120.537 15.0882C120.081 15.2893 119.554 15.3899 118.958 15.3899H118.023Z" fill="#160E0E"/>
<path d="M133.76 15.6011C133.05 15.6011 132.41 15.477 131.84 15.229C131.277 14.9742 130.834 14.5988 130.512 14.1027C130.19 13.6066 130.03 12.9898 130.03 12.2524C130.03 11.6222 130.144 11.0993 130.371 10.6836C130.599 10.2613 130.911 9.91936 131.307 9.6579C131.702 9.39644 132.151 9.19867 132.654 9.06458C133.157 8.9305 133.69 8.83665 134.253 8.78301C134.903 8.72268 135.426 8.66234 135.822 8.602C136.217 8.54167 136.506 8.45116 136.687 8.33049C136.874 8.20311 136.968 8.0221 136.968 7.78746V7.73717C136.968 7.27459 136.821 6.91592 136.526 6.66117C136.238 6.40641 135.829 6.27903 135.299 6.27903C134.743 6.27903 134.297 6.40306 133.962 6.65111C133.633 6.89246 133.415 7.20085 133.308 7.57628L130.422 7.34499C130.569 6.66117 130.858 6.07121 131.287 5.5751C131.716 5.0723 132.269 4.68681 132.946 4.41865C133.63 4.14378 134.421 4.00635 135.319 4.00635C135.943 4.00635 136.539 4.08009 137.109 4.22758C137.679 4.37507 138.185 4.60301 138.628 4.9114C139.077 5.21308 139.432 5.60527 139.693 6.08797C139.955 6.57066 140.086 7.14386 140.086 7.80757V15.3899H137.119V13.8211H137.039C136.858 14.1765 136.616 14.4882 136.315 14.7564C136.013 15.0178 135.651 15.2256 135.229 15.3798C134.806 15.5273 134.317 15.6011 133.76 15.6011ZM134.655 13.4491C135.111 13.4491 135.514 13.3586 135.862 13.1775C136.217 12.9898 136.492 12.7418 136.687 12.4334C136.888 12.1183 136.988 11.7663 136.988 11.3775V10.1808C136.895 10.2412 136.76 10.2981 136.586 10.3518C136.419 10.4054 136.231 10.4523 136.023 10.4926C135.815 10.5328 135.607 10.5697 135.4 10.6032C135.192 10.63 135.004 10.6568 134.836 10.6836C134.468 10.7373 134.146 10.8244 133.871 10.9451C133.596 11.0591 133.382 11.2166 133.227 11.4177C133.08 11.6121 133.006 11.8568 133.006 12.1518C133.006 12.5742 133.16 12.896 133.469 13.1172C133.777 13.3384 134.173 13.4491 134.655 13.4491Z" fill="#160E0E"/>
</svg>
