<?xml version="1.0" encoding="UTF-8" standalone="no"?>
<!-- Created with Inkscape (http://www.inkscape.org/) -->

<svg
   version="1.1"
   id="svg1"
   width="500"
   height="168.40741"
   viewBox="0 0 499.99999 168.40741"
   sodipodi:docname="bitcoin.svg"
   inkscape:version="1.4 (86a8ad7, 2024-10-11)"
   xmlns:inkscape="http://www.inkscape.org/namespaces/inkscape"
   xmlns:sodipodi="http://sodipodi.sourceforge.net/DTD/sodipodi-0.dtd"
   xmlns="http://www.w3.org/2000/svg"
   xmlns:svg="http://www.w3.org/2000/svg">
  <defs
     id="defs1" />
  <sodipodi:namedview
     id="namedview1"
     pagecolor="#000000"
     bordercolor="#000000"
     borderopacity="0.25"
     inkscape:showpageshadow="2"
     inkscape:pageopacity="0.0"
     inkscape:pagecheckerboard="0"
     inkscape:deskcolor="#d1d1d1"
     inkscape:zoom="0.76464841"
     inkscape:cx="376.64369"
     inkscape:cy="37.272032"
     inkscape:window-width="1920"
     inkscape:window-height="1001"
     inkscape:window-x="-9"
     inkscape:window-y="-9"
     inkscape:window-maximized="1"
     inkscape:current-layer="g1"
     showgrid="false" />
  <g
     inkscape:groupmode="layer"
     inkscape:label="Image"
     id="g1"
     transform="translate(-0.12303047,0.00707234)">
    <path
       style="fill:#ffffff;fill-opacity:1;stroke-width:0.0822354"
       d="M 80.292421,168.32042 C 59.937345,167.32205 40.276471,158.83343 25.939845,144.8536 18.576393,137.67341 13.050798,130.07428 8.6569499,121.08512 1.5238273,106.49183 -1.2176748,90.256203 0.73496545,74.169833 2.9369483,56.029314 10.914438,39.102334 23.368811,26.144364 30.572264,18.649638 38.309875,12.994291 47.497169,8.5091749 65.450492,-0.2554 85.674596,-2.322749 105.08639,2.622288 c 5.96845,1.5204251 11.16793,3.4430206 16.69379,6.1728087 15.34269,7.5793253 28.13014,19.8834243 36.40599,35.0298763 8.45368,15.471919 11.84074,33.052417 9.71995,50.451414 -2.2266,18.267183 -10.31995,35.314903 -22.93556,48.311093 -1.76578,1.81905 -3.41928,3.40108 -5.05748,4.83886 -15.48312,13.58889 -35.41403,21.07617 -55.829328,20.97294 -1.338948,-0.007 -3.045045,-0.0423 -3.791331,-0.0789 z m 3.331166,-39.96438 c 1.039933,-4.16492 1.909284,-7.60116 1.931899,-7.63611 0.02262,-0.035 0.873751,0.0782 1.891414,0.25134 1.898026,0.32299 4.317046,0.64667 6.208772,0.83078 1.681327,0.16363 6.382768,0.13778 7.853478,-0.0432 5.68246,-0.69918 9.83221,-2.81508 12.85302,-6.55357 2.46798,-3.0543 4.4659,-7.91019 5.12602,-12.45866 0.20995,-1.44661 0.19243,-3.960783 -0.0364,-5.221945 -0.52112,-2.872334 -1.6876,-5.177442 -3.71742,-7.346063 -1.19858,-1.280545 -3.25806,-2.834539 -5.19724,-3.921625 -0.43952,-0.246386 -0.77257,-0.469671 -0.74012,-0.496184 0.0325,-0.02652 0.42757,-0.149701 0.87803,-0.273737 3.38451,-0.931932 6.21419,-2.933048 8.03765,-5.684118 1.6607,-2.505504 2.7585,-6.140297 2.91636,-9.656007 0.26902,-5.99184 -2.71657,-10.904197 -8.97703,-14.770404 -2.11722,-1.307507 -5.54914,-2.911615 -8.53282,-3.988313 -0.95188,-0.343495 -1.20549,-0.465943 -1.17505,-0.567322 0.14471,-0.481827 3.74639,-14.999593 3.72622,-15.019764 -0.0139,-0.01394 -2.08736,-0.541106 -4.60761,-1.17148 l -4.582276,-1.146136 -0.07912,0.298274 c -0.04352,0.164051 -0.862008,3.46228 -1.818875,7.3294 -0.956874,3.867119 -1.763357,7.056403 -1.792188,7.087298 -0.02883,0.0309 -0.628896,-0.08618 -1.333472,-0.260156 -0.704576,-0.173982 -2.351102,-0.562912 -3.658949,-0.864291 -1.307838,-0.30138 -2.38407,-0.554368 -2.391619,-0.562197 -0.0076,-0.0078 0.814863,-3.343656 1.827575,-7.412947 1.012712,-4.069291 1.814269,-7.42241 1.781251,-7.451374 -0.09002,-0.07896 -9.080304,-2.307917 -9.125692,-2.262529 -0.02154,0.02154 -0.882291,3.411028 -1.912773,7.532191 -1.030481,4.121162 -1.894027,7.513445 -1.918989,7.538407 -0.05036,0.05036 -2.279622,-0.451718 -4.495371,-1.012453 -6.330479,-1.60204 -13.88066,-3.481238 -13.990447,-3.482142 -0.108497,-8.97e-4 -0.363222,0.916882 -1.347717,4.855839 -0.683314,2.73393 -1.181996,4.884446 -1.140866,4.919864 0.04019,0.0346 0.683667,0.202567 1.429953,0.37325 4.22365,0.965981 6.302016,1.575505 7.217342,2.116635 0.714752,0.422552 1.450291,1.210405 1.776634,1.902993 0.319416,0.677885 0.429941,1.094783 0.505662,1.907335 0.05201,0.558137 -0.01171,0.837071 -2.09464,9.169247 -1.181557,4.726479 -2.166728,8.654818 -2.189271,8.729643 -0.02806,0.09313 0.0313,0.163428 0.188206,0.222867 l 0.229191,0.08682 -0.230764,-0.01728 -0.230764,-0.01728 -3.042011,12.16768 c -2.489862,9.959142 -3.086838,12.246026 -3.288974,12.599318 -0.762794,1.333216 -2.051035,1.929756 -3.615138,1.674016 -0.647118,-0.10581 -3.300956,-0.752133 -5.617528,-1.368125 -0.763004,-0.202891 -1.404957,-0.351211 -1.426561,-0.329608 -0.05304,0.05303 -4.546308,10.413373 -4.545925,10.481743 1.64e-4,0.0297 2.303785,0.62328 5.119153,1.31911 5.255513,1.29891 13.25601,3.34346 13.377797,3.41874 0.03758,0.0232 -0.792298,3.48413 -1.844178,7.69091 l -1.912511,7.64867 0.298169,0.0787 c 1.263443,0.33367 8.916231,2.22566 8.927409,2.20712 0.0078,-0.013 0.857804,-3.41883 1.888882,-7.56863 1.411175,-5.6796 1.904205,-7.54511 1.994072,-7.54511 0.06566,0 1.014879,0.23888 2.10937,0.53082 1.094492,0.29196 2.693098,0.70461 3.552457,0.91701 0.85936,0.21241 1.57302,0.39424 1.585912,0.40406 0.01289,0.01 -0.825109,3.41145 -1.862223,7.55914 -1.308501,5.23304 -1.855917,7.55266 -1.788485,7.57854 0.170556,0.0655 8.885184,2.23553 9.014318,2.2447 0.09718,0.007 0.532827,-1.6286 2.014769,-7.56376 z m 4.152254,-19.77965 c -4.12121,-0.22551 -7.932581,-0.95012 -15.460253,-2.93926 -0.236181,-0.0624 -0.367072,-0.14181 -0.361802,-0.21949 0.0087,-0.12754 4.979075,-20.167813 5.013342,-20.21333 0.07049,-0.09363 7.334145,1.679798 9.492947,2.317714 9.013164,2.663333 13.800215,6.484162 14.129165,11.277309 0.14128,2.058567 -0.36125,4.093947 -1.402605,5.680967 -1.462375,2.22864 -4.013662,3.55866 -7.627965,3.97655 -0.8058,0.0932 -2.998484,0.16246 -3.782829,0.11954 z m 3.371652,-30.263441 c -1.713975,-0.151917 -4.105997,-0.536482 -6.085419,-0.97835 -1.234913,-0.275669 -5.678379,-1.414547 -5.733297,-1.469465 -0.02044,-0.02043 4.399957,-17.892859 4.540061,-18.356267 0.02905,-0.09609 2.933254,0.535596 5.722967,1.244782 10.192345,2.591043 14.756625,6.737907 13.765525,12.506615 -0.66433,3.866692 -3.06256,6.139911 -7.275714,6.896462 -0.757166,0.135963 -4.003169,0.238738 -4.934123,0.156223 z"
       id="path1" />
    <path
       d="m 213.12172,55.414241 h 32.89415 q 8.05907,0 11.8419,3.700593 3.78283,3.618357 3.78283,11.101778 0,4.934123 -2.13812,8.059068 -2.13812,3.04271 -5.26307,4.276242 6.66107,1.809179 9.0459,8.881423 0.82235,2.549297 0.82235,5.920948 0,8.059067 -3.78283,11.841897 -3.78283,3.78283 -11.8419,3.78283 h -35.36121 z m 36.18357,39.47299 q 0,-4.934123 -4.93412,-4.934123 h -16.44708 v 11.512952 h 16.44708 q 4.93412,0 4.93412,-4.934121 z M 246.83823,71.86132 q 0,-4.934124 -4.93413,-4.934124 h -13.98001 v 11.512955 h 13.98001 q 4.93413,0 4.93413,-4.934123 z M 288.7782,71.038966 V 112.97902 H 274.38701 V 82.140744 h -6.16766 V 71.038966 Z M 274.38701,54.591887 h 14.39119 v 11.512955 h -14.39119 z m 53.04179,58.387133 q -7.97683,0.82235 -15.62472,0.82235 -5.59201,0 -8.96366,-3.37165 -3.37165,-3.37165 -3.37165,-8.96366 V 80.496036 h -4.93412 V 69.394258 h 4.93412 l 1.64471,-9.868247 h 12.74648 v 9.868247 h 10.27943 v 11.101778 h -10.27943 v 18.914142 q 0,1.233532 0.82236,2.055882 0.82235,0.82236 2.05588,0.82236 h 10.6906 z m 43.58479,-0.82236 q -15.37802,1.64471 -27.13768,1.64471 -5.59201,0 -8.96366,-3.37165 -3.37165,-3.37165 -3.37165,-8.96366 V 82.551922 q 0,-6.167656 3.45389,-9.621542 3.53612,-3.536122 9.70377,-3.536122 h 26.31533 v 11.101778 h -21.79238 q -3.28942,0 -3.28942,3.289417 v 16.035902 q 0,1.233535 0.82236,2.055885 0.82235,0.82235 2.05588,0.82235 7.40119,0 22.20356,-1.23353 z m 50.98588,-11.51295 q 0,6.16765 -3.53612,9.70378 -3.45389,3.45388 -9.62154,3.45388 h -18.91414 q -6.16765,0 -9.70378,-3.45388 -3.45388,-3.53613 -3.45388,-9.70378 V 81.729567 q 0,-6.167655 3.45388,-9.621541 3.53613,-3.536122 9.70378,-3.536122 h 18.91414 q 6.16765,0 9.62154,3.536122 3.53612,3.453886 3.53612,9.621541 z M 407.60828,82.963099 q 0,-3.289417 -3.28942,-3.289417 h -9.86824 q -3.28942,0 -3.28942,3.289417 v 16.447079 q 0,3.289412 3.28942,3.289412 h 9.86824 q 3.28942,0 3.28942,-3.289412 z m 39.8841,-11.924133 V 112.97902 H 433.10119 V 82.140744 h -6.16766 V 71.038966 Z M 433.10119,54.591887 h 14.39119 v 11.512955 h -14.39119 z m 46.87413,25.904149 q -4.35848,0 -9.86825,1.644708 V 112.97902 H 455.71588 V 69.394258 h 12.74648 l 0.82236,4.11177 q 3.86506,-2.549298 7.89459,-3.700593 4.11177,-1.233531 6.90778,-1.233531 h 3.70059 q 5.59201,0 8.96366,3.371651 3.37165,3.371651 3.37165,8.963658 V 112.97902 H 485.7318 V 83.374276 q 0,-1.233532 -0.82236,-2.055886 -0.82235,-0.822354 -2.05588,-0.822354 z"
       id="text1"
       style="font-size:1000px;font-family:'Russo One';-inkscape-font-specification:'Russo One, Normal';fill:#ffffff;stroke:#285335;stroke-width:8.22354e-05"
       aria-label="Bitcoin" />
  </g>
</svg>
