<?xml version="1.0" encoding="UTF-8" standalone="no"?>
<!-- Created with Inkscape (http://www.inkscape.org/) -->

<svg
   version="1.1"
   id="svg1"
   width="307.24738"
   height="82.325279"
   viewBox="0 0 307.24737 82.325279"
   sodipodi:docname="mono.svg"
   inkscape:version="1.4 (86a8ad7, 2024-10-11)"
   xmlns:inkscape="http://www.inkscape.org/namespaces/inkscape"
   xmlns:sodipodi="http://sodipodi.sourceforge.net/DTD/sodipodi-0.dtd"
   xmlns="http://www.w3.org/2000/svg"
   xmlns:svg="http://www.w3.org/2000/svg">
  <defs
     id="defs1">
    <clipPath
       clipPathUnits="userSpaceOnUse"
       id="clipPath1">
      <rect
         style="fill:none;stroke:#285335;stroke-width:0.001"
         id="rect2"
         width="312.05518"
         height="83.168877"
         x="78.013794"
         y="38.491386"
         rx="4" />
    </clipPath>
  </defs>
  <sodipodi:namedview
     id="namedview1"
     pagecolor="#000000"
     bordercolor="#000000"
     borderopacity="0"
     inkscape:showpageshadow="2"
     inkscape:pageopacity="0.0"
     inkscape:pagecheckerboard="0"
     inkscape:deskcolor="#d1d1d1"
     showgrid="false"
     inkscape:zoom="1.0287492"
     inkscape:cx="295.99052"
     inkscape:cy="89.915018"
     inkscape:window-width="1920"
     inkscape:window-height="1001"
     inkscape:window-x="-9"
     inkscape:window-y="-9"
     inkscape:window-maximized="1"
     inkscape:current-layer="svg1" />
  <path
     style="fill:#ffffff;fill-opacity:1"
     d="M 12.2374,81.48673 C 10.90131,80.99987 8.84988,79.89811 7.67868,79.03836 6.50748,78.17862 4.87982,76.64327 4.06166,75.62648 3.24351,74.60969 1.99493,72.57777 1.28705,71.1111 0,68.44444 0,68.44444 0,41.06728 0,18.96194 0.11598,13.44181 0.60234,12.40062 0.93363,11.69139 1.53363,10.41877 1.93567,9.57258 2.33772,8.72639 3.77126,6.90152 5.12133,5.51731 6.70496,3.89362 8.67635,2.46819 10.67689,1.50028 13.77777,0 13.77777,0 100,0 c 86.22222,0 86.22222,0 89.13072,1.41033 1.776,0.86118 3.89594,2.40567 5.44445,3.96658 1.39476,1.40594 2.53594,2.82129 2.53594,3.14523 0,0.32393 0.2,0.58897 0.44444,0.58897 0.24445,0 0.44445,0.21098 0.44445,0.46883 0,0.25786 0.45,1.40786 1,2.55556 0.99396,2.07412 1.00083,2.23432 1.13774,26.53117 0.0878,15.57968 -0.0338,25.72481 -0.33542,27.97505 -0.26024,1.94184 -0.64143,3.64184 -0.84709,3.77778 -0.20566,0.13594 -0.50853,0.79716 -0.67305,1.46938 -0.16451,0.67222 -0.49531,1.22222 -0.73509,1.22222 -0.23979,0 -0.43598,0.26504 -0.43598,0.58898 0,0.32394 -1.12384,1.72181 -2.49741,3.10639 -1.37358,1.38457 -3.42358,2.94336 -4.55556,3.46397 -1.13198,0.52061 -2.45814,1.17274 -2.94703,1.44917 -0.65138,0.36831 -23.80813,0.52261 -86.66667,0.57746 C 15.799,82.37097 14.63459,82.36027 12.2374,81.48673 Z M 93.33333,56.36822 c 1.71111,-0.40987 3.89074,-1.23161 4.84363,-1.82609 0.95288,-0.59447 2.40192,-1.80965 3.22009,-2.70039 0.81818,-0.89073 1.48854,-1.86952 1.48971,-2.17508 0.001,-0.30555 0.15518,-0.55555 0.34225,-0.55555 0.18707,0 0.68707,-0.97684 1.11111,-2.17076 0.49344,-1.3893 0.77099,-3.48779 0.77099,-5.82924 0,-2.34145 -0.27755,-4.43993 -0.77099,-5.82924 -0.42404,-1.19391 -0.92404,-2.17076 -1.11111,-2.17076 -0.18707,0 -0.34108,-0.25 -0.34225,-0.55555 -10e-4,-0.30556 -0.67153,-1.28434 -1.48971,-2.17508 C 100.57888,29.48974 99.12984,28.2736 98.17696,27.67795 97.22407,27.08229 94.9985,26.22358 93.23125,25.76969 90.36706,25.03408 89.69122,25.00714 87.00902,25.52165 85.35406,25.83911 83.1,26.52501 82,27.04586 c -1.1,0.52085 -2.95309,1.92609 -4.11798,3.12275 -1.16488,1.19666 -2.23656,2.64827 -2.38151,3.22579 -0.14495,0.57753 -0.41371,1.05005 -0.59725,1.05005 -0.18355,0 -0.52382,1.40441 -0.75618,3.12092 -0.25805,1.90632 -0.26698,4.45691 -0.023,6.55379 0.21973,1.88808 0.55473,3.53367 0.74445,3.65686 0.18973,0.12319 0.47874,0.65303 0.64225,1.17742 0.16352,0.52439 1.24047,1.93402 2.39324,3.1325 1.15276,1.19848 3.01784,2.61943 4.14462,3.15767 1.12677,0.53823 2.52677,0.99267 3.11111,1.00985 0.58433,0.0172 1.46243,0.20312 1.95132,0.4132 0.48889,0.21009 1.38889,0.39655 2,0.41437 0.61111,0.0178 2.51111,-0.30294 4.22222,-0.71281 z m -6.88889,-6.81267 c 0,-0.24444 -0.26258,-0.44444 -0.58351,-0.44444 -0.32094,0 -1.10233,-0.55 -1.73644,-1.22222 -0.63411,-0.67222 -1.47153,-1.99665 -1.86093,-2.94317 -0.38941,-0.94652 -0.70801,-2.6871 -0.70801,-3.86797 0,-1.18087 0.24323,-2.70645 0.54051,-3.39017 0.29727,-0.68372 1.01756,-1.8886 1.60062,-2.67751 0.58307,-0.78891 1.67057,-1.73891 2.41667,-2.11111 0.7461,-0.37221 2.30296,-0.67674 3.45968,-0.67674 1.15673,0 2.59597,0.25569 3.19832,0.56819 0.60235,0.3125 1.46304,0.93605 1.91264,1.38565 0.44961,0.44961 1.17964,1.4932 1.62229,2.3191 0.5552,1.03586 0.80483,2.45811 0.80483,4.58541 0,1.69608 -0.18348,3.56638 -0.40774,4.15621 -0.22425,0.58983 -0.97425,1.66382 -1.66666,2.38664 -0.69242,0.72282 -1.81835,1.55324 -2.50207,1.84539 C 91.85091,49.76097 90.20091,50 88.86797,50 87.53503,50 86.44444,49.8 86.44444,49.55555 Z m 79.33334,6.81307 c 1.71111,-0.40965 3.21111,-0.88321 3.33333,-1.05237 0.12222,-0.16916 0.62222,-0.43403 1.11111,-0.58861 0.48889,-0.15459 1.58889,-0.94423 2.44444,-1.75476 0.85556,-0.81054 1.79943,-1.86102 2.0975,-2.3344 0.29807,-0.47339 0.98688,-1.7607 1.53069,-2.8607 0.82766,-1.67416 0.99146,-2.76029 1.00543,-6.66667 0.0143,-3.99787 -0.12859,-4.95329 -0.99701,-6.66666 -0.55754,-1.1 -1.25385,-2.38732 -1.54737,-2.86071 -0.29353,-0.47338 -1.23368,-1.52386 -2.08924,-2.3344 -0.85555,-0.81053 -1.95555,-1.60017 -2.44444,-1.75475 -0.48889,-0.15459 -0.98889,-0.41946 -1.11111,-0.58862 -0.12222,-0.16915 -1.62222,-0.64272 -3.33333,-1.05237 -1.71112,-0.40965 -3.51112,-0.74481 -4,-0.74481 -0.48889,0 -2.28889,0.33516 -4.00001,0.74481 -1.71111,0.40965 -3.21111,0.88322 -3.33333,1.05237 -0.12222,0.16916 -0.62222,0.43403 -1.11111,0.58862 -0.48889,0.15458 -1.58889,0.94422 -2.44444,1.75475 -0.85556,0.81054 -1.79943,1.86102 -2.0975,2.3344 -0.29807,0.47339 -0.9791,1.76071 -1.51339,2.86071 -0.79022,1.62689 -0.97932,2.83717 -1.01362,6.48761 -0.0259,2.75662 0.16859,4.89955 0.50422,5.55556 0.30051,0.58736 0.75004,1.56794 0.99894,2.17904 0.24891,0.61112 0.70303,1.49843 1.00917,1.97182 0.30614,0.47338 1.25662,1.52386 2.11218,2.3344 0.85555,0.81053 1.95555,1.60017 2.44444,1.75476 0.48889,0.15458 0.98889,0.42294 1.11111,0.59637 0.12222,0.17342 1.42222,0.61934 2.88889,0.99093 1.46667,0.37159 3.26667,0.70326 4,0.73705 0.73333,0.0338 2.73333,-0.27372 4.44445,-0.68337 z m -7.32977,-6.95426 c -0.60915,-0.28901 -1.45915,-0.87547 -1.88889,-1.30325 -0.42974,-0.42778 -0.78135,-0.97778 -0.78135,-1.22222 0,-0.24444 -0.17231,-0.44444 -0.38291,-0.44444 -0.21061,0 -0.6694,-1.17266 -1.01954,-2.60591 -0.5436,-2.22514 -0.5481,-3.00441 -0.0308,-5.33333 0.3332,-1.50009 0.79199,-2.72743 1.01954,-2.72743 0.22755,0 0.418,-0.25 0.42321,-0.55556 0.005,-0.30555 0.78718,-1.10555 1.73768,-1.77777 1.36931,-0.96842 2.22566,-1.22223 4.12377,-1.22223 1.85445,0 2.81726,0.27342 4.26232,1.21042 1.02671,0.66573 1.86675,1.46573 1.86675,1.77778 0,0.31205 0.16833,0.56736 0.37407,0.56736 0.20574,0 0.73545,1.19353 1.17713,2.6523 0.75599,2.49685 0.76021,2.8029 0.0721,5.22163 -0.402,1.41313 -0.93171,2.63626 -1.17713,2.71807 -0.24542,0.0818 -0.45049,0.38207 -0.4557,0.66726 -0.005,0.28518 -0.78718,1.06852 -1.73768,1.74074 -1.38626,0.98039 -2.19779,1.21627 -4.10162,1.19214 -1.30539,-0.0165 -2.87183,-0.26655 -3.48098,-0.55556 z M 29.55555,46 c 0,-6.51852 0.16103,-10.22222 0.44444,-10.22222 0.24445,0 0.44445,-0.3 0.44445,-0.66667 0,-0.36666 0.3,-0.66666 0.66667,-0.66666 0.36666,0 0.66666,-0.18536 0.66666,-0.4119 0,-0.22654 0.63073,-0.72654 1.40162,-1.11111 0.77089,-0.38457 2.23318,-0.69922 3.24953,-0.69922 1.2618,0 2.16506,0.29547 2.84783,0.93157 0.54996,0.51236 1.18767,1.42538 1.41714,2.02893 0.22947,0.60356 0.41722,5.59244 0.41722,11.08641 0,9.98904 0,9.98904 3.66666,9.85995 C 48.44444,56 48.44444,56 48.66666,45.71617 c 0.22167,-10.25814 0.225,-10.28648 1.33333,-11.34938 0.61112,-0.58605 1.67053,-1.30833 2.35425,-1.60506 0.68372,-0.29673 2.01257,-0.53951 2.953,-0.53951 1.27343,0 2.06219,0.32912 3.0902,1.28943 1.38033,1.28943 1.38033,1.28943 1.38033,12 0,10.71057 0,10.71057 3.29699,10.71057 1.81334,0 3.61334,-0.1214 4,-0.26977 0.61457,-0.23584 0.70301,-1.63899 0.70301,-11.15382 0,-8.68705 -0.14435,-11.3806 -0.71513,-13.34403 -0.39333,-1.35299 -1.19996,-3.00411 -1.79253,-3.66917 -0.65822,-0.73874 -2.12401,-1.52607 -3.76756,-2.0237 -2.32549,-0.7041 -2.97117,-0.73959 -4.76303,-0.26182 -1.14007,0.30399 -2.94365,0.98669 -4.00794,1.51713 -1.06429,0.53044 -2.40138,1.51861 -2.97131,2.19592 -0.56992,0.67732 -1.24913,1.23149 -1.50936,1.23149 -0.26023,0 -0.47314,-0.28462 -0.47314,-0.63248 0,-0.34787 -0.59529,-1.22777 -1.32286,-1.95534 -0.73974,-0.73974 -2.42873,-1.67071 -3.83163,-2.11197 -2.15385,-0.67747 -2.7998,-0.7115 -4.56602,-0.24058 -1.1315,0.30169 -2.95131,0.98669 -4.04403,1.52223 -1.09273,0.53553 -2.35002,1.33099 -2.79399,1.76768 -0.44397,0.43669 -0.99993,0.67489 -1.23546,0.52933 -0.23552,-0.14557 -0.42823,-0.95286 -0.42823,-1.79399 0,-1.52933 0,-1.52933 -3.55556,-1.52933 -3.55555,0 -3.55555,0 -3.55555,15.11111 0,15.11111 0,15.11111 3.55555,15.11111 3.55556,0 3.55556,0 3.55556,-10.22222 z m 89.33334,0.20019 c 0,-10.02203 0,-10.02203 1.44444,-11.46157 0.79444,-0.79176 2.00385,-1.68184 2.68758,-1.97797 0.68372,-0.29614 2.33372,-0.53843 3.66667,-0.53843 1.33294,0 2.42353,0.2 2.42353,0.44445 0,0.24444 0.277,0.44444 0.61555,0.44444 0.33855,0 0.93855,0.49297 1.33333,1.09548 0.60803,0.92796 0.71778,2.6537 0.71778,11.28578 0,8.88223 0.0902,10.22493 0.70302,10.46008 0.38666,0.14837 2.18666,0.26977 4,0.26977 3.29698,0 3.29698,0 3.29698,-11.97377 0,-6.58557 -0.17416,-12.08141 -0.38703,-12.21297 -0.21288,-0.13156 -0.50278,-0.81788 -0.64424,-1.52516 -0.14145,-0.70728 -0.84393,-1.87271 -1.56107,-2.58984 -0.77788,-0.77788 -2.40234,-1.63646 -4.02682,-2.12832 -2.64411,-0.80057 -2.826,-0.80091 -6.28142,-0.0117 -1.95715,0.447 -3.77966,1.07927 -4.05002,1.40503 -0.27037,0.32577 -0.66708,0.5923 -0.88159,0.5923 -0.21452,0 -0.79732,0.40729 -1.29513,0.9051 -0.4978,0.4978 -1.0978,0.786 -1.33333,0.64044 -0.23553,-0.14557 -0.42823,-0.95286 -0.42823,-1.79399 0,-1.52933 0,-1.52933 -3.55556,-1.52933 -3.55556,0 -3.55556,0 -3.55556,15.11111 0,15.11111 0,15.11111 3.55556,15.11111 3.55556,0 3.55556,0 3.55556,-10.02203 z m 163,25.27121 c -0.57417,-0.15004 -0.76618,-0.63102 -0.73348,-1.83733 0.0244,-0.89874 0.18385,-2.13408 0.3544,-2.74519 0.25205,-0.90315 0.59729,-1.11589 1.84458,-1.13663 0.84398,-0.014 2.08128,-0.16704 2.74957,-0.34001 0.83855,-0.21703 1.49274,-0.88918 2.11111,-2.16907 0.49282,-1.02002 0.89604,-2.31973 0.89604,-2.88824 0,-0.56852 -0.19298,-1.38095 -0.42885,-1.80541 -0.23587,-0.42446 -0.83588,-1.71077 -1.33334,-2.85847 -0.49746,-1.1477 -0.90448,-2.30041 -0.90448,-2.56159 0,-0.26117 -0.19298,-0.82214 -0.42885,-1.2466 -0.23587,-0.42446 -0.83587,-1.71078 -1.33333,-2.85848 -0.49747,-1.14769 -0.90448,-2.30041 -0.90448,-2.56158 0,-0.26117 -0.18745,-0.82215 -0.41656,-1.24661 -0.22911,-0.42446 -0.80359,-1.67174 -1.27663,-2.77174 -0.47303,-1.1 -1.18558,-2.75679 -1.58343,-3.68175 -0.39786,-0.92496 -0.72338,-1.95829 -0.72338,-2.2963 0,-0.338 -0.20472,-0.68279 -0.45493,-0.76619 -0.2502,-0.0834 -0.57637,-0.90007 -0.72481,-1.81481 -0.2699,-1.66318 -0.2699,-1.66318 2.91331,-1.66318 2.64271,0 3.2245,0.13207 3.42635,0.77778 0.13372,0.42778 0.52745,1.30864 0.87494,1.95746 0.34749,0.64883 0.6318,1.50155 0.6318,1.89492 0,0.39338 0.19299,1.06252 0.42886,1.48699 0.23587,0.42446 0.83587,1.71077 1.33333,2.85847 0.49747,1.1477 0.90448,2.36437 0.90448,2.7037 0,0.33934 0.12873,0.74571 0.28606,0.90304 0.15734,0.15734 0.75641,1.44067 1.33128,2.85185 0.57487,1.41119 1.04614,2.83008 1.04727,3.15309 0.001,0.32302 0.30206,0.8873 0.66872,1.25397 0.5128,0.51279 0.66715,0.53111 0.66873,0.0794 10e-4,-0.32302 0.4724,-1.74191 1.04727,-3.15309 0.57487,-1.41118 1.17394,-2.69451 1.33128,-2.85185 0.15733,-0.15733 0.28729,-0.60273 0.2888,-0.98977 10e-4,-0.38703 0.3015,-1.27656 0.66666,-1.97672 0.36516,-0.70017 0.66516,-1.50017 0.66667,-1.77778 0.002,-0.27762 0.28266,-1.04128 0.62478,-1.69704 0.34212,-0.65576 0.75678,-1.80576 0.92146,-2.55555 0.16468,-0.7498 0.44826,-1.36328 0.63017,-1.36328 0.18191,0 0.51602,-0.75 0.74247,-1.66666 0.41171,-1.66667 0.41171,-1.66667 3.47877,-1.79962 1.68688,-0.0731 3.2684,0.0684 3.5145,0.3145 0.30029,0.3003 0.29512,0.63634 -0.0157,1.02184 -0.25474,0.31591 -0.60216,1.22439 -0.77203,2.01883 -0.16987,0.79445 -0.49297,1.44445 -0.71799,1.44445 -0.22502,0 -0.40913,0.31977 -0.40913,0.71061 0,0.39083 -0.3183,1.44083 -0.70732,2.33333 -0.38903,0.8925 -1.10158,2.52272 -1.58344,3.62272 -0.48187,1.1 -1.06357,2.34729 -1.29268,2.77175 -0.22911,0.42446 -0.41656,0.98544 -0.41656,1.24661 0,0.26117 -0.40701,1.41388 -0.90448,2.56158 -0.49746,1.1477 -1.09746,2.43401 -1.33333,2.85847 -0.23587,0.42447 -0.43564,1.02447 -0.44394,1.33334 -0.008,0.30887 -0.4015,1.36158 -0.8738,2.33936 -0.4723,0.97778 -0.86552,2.02778 -0.87381,2.33334 -0.008,0.30555 -0.21508,0.55555 -0.45953,0.55555 -0.24444,0 -0.44444,0.31978 -0.44444,0.71061 0,0.39084 -0.31482,1.44084 -0.6996,2.33333 -0.38478,0.8925 -1.03478,2.3224 -1.44444,3.17756 -0.40967,0.85515 -1.42543,2.18464 -2.25725,2.95443 -0.83181,0.76978 -2.50478,1.72011 -3.7177,2.11184 -1.21292,0.39173 -2.83234,0.68903 -3.59872,0.66068 -0.76637,-0.0284 -1.7434,-0.14303 -2.17118,-0.25482 z M 255.35747,60.1532 c -1.08673,-0.509 -2.53015,-1.47973 -3.20759,-2.15717 -0.67745,-0.67745 -1.5354,-2.10369 -1.90656,-3.16943 -0.37116,-1.06574 -0.67774,-2.78771 -0.6813,-3.8266 -0.004,-1.03889 0.19353,-1.88889 0.43798,-1.88889 0.24444,0 0.44444,-0.50628 0.44444,-1.12506 0,-0.61878 0.3,-1.24018 0.66667,-1.38088 0.36667,-0.1407 0.66667,-0.53443 0.66667,-0.87494 0,-0.34052 0.3,-0.61912 0.66666,-0.61912 0.36667,0 0.66667,-0.16252 0.66667,-0.36116 0,-0.19864 1.05,-0.82092 2.33333,-1.38285 1.88157,-0.82388 2.84964,-0.97747 5,-0.79327 1.46667,0.12563 3.36667,0.54938 4.22223,0.94167 0.85555,0.39229 2.03654,1.05675 2.62442,1.47659 1.06887,0.76334 1.06887,0.76334 0.83066,-2.20435 -0.13435,-1.67367 -0.513,-3.24248 -0.86839,-3.59787 -0.34658,-0.34658 -1.26045,-0.95609 -2.0308,-1.35446 -0.77035,-0.39836 -2.25389,-0.7243 -3.29674,-0.7243 -1.04286,0 -2.79675,0.34396 -3.89754,0.76436 -1.10079,0.42039 -2.35748,1.12039 -2.79264,1.55555 -0.43516,0.43516 -1.05575,0.7912 -1.37908,0.7912 -0.32334,0 -1.03746,-0.90017 -1.58693,-2.00037 -0.8259,-1.65372 -0.89732,-2.09948 -0.41211,-2.57219 0.32281,-0.3145 1.31053,-1.01433 2.19494,-1.55518 0.88441,-0.54085 1.91774,-0.98337 2.2963,-0.98337 0.37855,0 0.77161,-0.25 0.87346,-0.55555 C 257.35595,32.15437 258.81728,32 262.48148,32 c 3.91374,0 5.44434,0.17747 6.6932,0.77607 0.89052,0.42684 2.25392,1.49906 3.02977,2.38271 0.77586,0.88365 1.59725,2.09744 1.82532,2.69731 0.22807,0.59986 0.41467,5.98678 0.41467,11.97093 0,10.88025 0,10.88025 -3,10.74884 -3,-0.13142 -3,-0.13142 -3.13735,-1.55011 -0.13735,-1.41869 -0.13735,-1.41869 -1.25723,-0.44497 -0.61594,0.53556 -1.95413,1.31279 -2.97376,1.7272 -1.01963,0.4144 -2.95388,0.75733 -4.29832,0.76206 -1.56324,0.006 -3.15674,-0.32501 -4.42031,-0.91684 z m 9.69358,-4.17532 c 0.7003,-0.13439 1.7003,-0.64218 2.22222,-1.12843 0.71368,-0.66489 0.94895,-1.41153 0.94895,-3.01151 0,-1.70862 -0.22427,-2.33814 -1.13923,-3.1977 -0.94615,-0.88885 -1.68062,-1.09323 -4.33334,-1.20585 -2.03001,-0.0862 -3.59904,0.0776 -4.30521,0.4493 -0.61111,0.3217 -1.45644,1.31621 -1.87851,2.21004 -0.6825,1.44532 -0.69763,1.79214 -0.13679,3.13442 0.34684,0.8301 0.9434,1.76887 1.3257,2.08614 0.38229,0.31728 1.34385,0.73284 2.13679,0.92347 0.79294,0.19063 1.9917,0.26512 2.66393,0.16553 0.67222,-0.0996 1.79519,-0.29102 2.49549,-0.42541 z m -46.96216,4.15545 c -0.39772,-0.39772 -0.53334,-5.23457 -0.53334,-19.02222 0,-13.78765 0.13562,-18.6245 0.53334,-19.02222 0.37582,-0.37582 2.9272,-0.53333 8.63909,-0.53333 5.80766,0 8.96411,0.19883 11.13333,0.70131 1.9076,0.44188 3.68522,1.20757 4.80536,2.06988 0.97777,0.75271 2.22777,2.05099 2.77777,2.88506 0.55,0.83407 1,1.79082 1,2.12611 0,0.33529 0.2,0.73323 0.44445,0.8843 0.24444,0.15108 0.44143,1.61288 0.43775,3.24846 -0.004,1.63557 -0.25755,3.67377 -0.56417,4.52932 -0.30661,0.85556 -0.9536,2.15548 -1.43775,2.88871 -0.48415,0.73324 -1.17472,1.68324 -1.53461,2.11111 -0.35988,0.42788 -0.90988,0.77796 -1.22222,0.77796 -0.31234,0 -0.56789,0.17698 -0.56789,0.39329 0,0.2163 -0.98758,0.7163 -2.19462,1.11111 C 238.20723,45.8049 235.91212,46 231.36093,46 c -6.24982,0 -6.24982,0 -6.24982,6.8 0,4.69629 -0.165,6.96499 -0.53333,7.33333 -0.29824,0.29824 -1.7284,0.53333 -3.24445,0.53333 -1.51605,0 -2.9462,-0.23509 -3.24444,-0.53333 z m 20.12592,-21.86636 c 1.69293,-1.43208 1.77037,-1.61167 1.77037,-4.10564 0,-1.89877 -0.23625,-2.92126 -0.86873,-3.75975 -0.4778,-0.63343 -1.80131,-1.48292 -2.94113,-1.88775 -1.40783,-0.50002 -3.51412,-0.73605 -6.56831,-0.73605 -4.4959,0 -4.4959,0 -4.4959,6 0,6 0,6 5.66667,5.99339 5.66666,-0.007 5.66666,-0.007 7.43703,-1.5042 z"
     id="path3" />
</svg>
